<svg width="426" height="460" viewBox="0 0 426 460" fill="none" xmlns="http://www.w3.org/2000/svg">
<g clip-path="url(#clip0)">
<rect width="426" height="460" fill="#D37EF4"/>
<mask id="mask0" mask-type="alpha" maskUnits="userSpaceOnUse" x="0" y="0" width="426" height="460">
<rect width="426" height="460" fill="white"/>
</mask>
<g mask="url(#mask0)">
<path opacity="0.4" fill-rule="evenodd" clip-rule="evenodd" d="M325 209C325 239.928 299.928 265 269 265C238.072 265 213 239.928 213 209C213 178.072 238.072 153 269 153C299.928 153 325 178.072 325 209ZM265.455 208.238C265.033 208.66 264.352 208.66 263.93 208.238L244.416 188.724C243.154 187.462 242.077 184.231 243.154 183.154C244.231 182.077 247.462 183.154 248.724 184.416L268.238 203.93C268.66 204.352 268.66 205.033 268.238 205.455L265.455 208.238ZM267.486 212.668L272.668 207.486C274.219 205.948 276.722 205.952 278.268 207.499C279.205 208.436 279.612 209.782 279.354 211.083L279.321 211.242C279.022 212.737 280.34 214.055 281.835 213.756C283.235 213.476 284.684 213.915 285.694 214.925L291.615 220.846C294.59 223.821 294.59 228.641 291.615 231.615C288.641 234.59 283.821 234.59 280.846 231.615L274.925 225.694C273.915 224.684 273.476 223.235 273.756 221.835C274.055 220.34 272.737 219.022 271.242 219.321L271.083 219.354C269.782 219.612 268.436 219.205 267.499 218.268C265.952 216.722 265.948 214.219 267.486 212.668ZM283.377 207.886C283.545 208.438 284.07 208.836 284.635 208.716C290.47 207.469 294.846 202.284 294.846 196.077C294.846 195.125 294.743 194.197 294.547 193.303C294.379 192.532 293.438 192.316 292.88 192.874L287.092 198.662C284.951 200.802 281.479 200.802 279.338 198.662C277.198 196.521 277.198 193.049 279.338 190.908L285.126 185.12C285.684 184.562 285.468 183.621 284.697 183.453C283.803 183.257 282.875 183.154 281.923 183.154C274.785 183.154 269 188.939 269 196.077C269 196.62 269.034 197.156 269.099 197.682C269.198 198.491 269.618 199.219 270.198 199.797L272.379 201.981C272.668 202.267 273.092 202.362 273.489 202.265C276.205 201.602 279.192 202.33 281.314 204.453C282.287 205.425 282.987 206.609 283.377 207.886ZM263.833 220.622C264.18 221.055 264.221 221.675 263.872 222.106L256.572 231.09C254.003 234.252 249.264 234.495 246.385 231.615C243.505 228.736 243.748 223.997 246.91 221.428L259.463 211.229C259.891 210.88 260.514 210.913 260.904 211.305L261.838 212.239C262.213 212.612 262.334 213.166 262.222 213.682C261.701 216.06 262.241 218.628 263.833 220.622ZM255.538 226.769C255.538 229.149 253.611 231.077 251.231 231.077C248.851 231.077 246.923 229.149 246.923 226.769C246.923 224.389 248.851 222.462 251.231 222.462C253.611 222.462 255.538 224.389 255.538 226.769Z" fill="white"/>
<path opacity="0.5" fill-rule="evenodd" clip-rule="evenodd" d="M445 142C445 172.928 419.928 198 389 198C358.072 198 333 172.928 333 142C333 111.072 358.072 86 389 86C419.928 86 445 111.072 445 142ZM406.03 118.456C403.224 116.953 400.344 116.154 393.228 116.154H384.772C377.656 116.154 374.776 116.953 371.97 118.456C369.161 119.958 366.958 122.161 365.456 124.97C363.953 127.776 363.154 130.656 363.154 137.772V146.228C363.154 153.344 363.953 156.224 365.456 159.03C366.958 161.839 369.161 164.042 371.97 165.544C374.776 167.047 377.656 167.846 384.772 167.846H393.228C400.344 167.846 403.224 167.047 406.03 165.544C408.839 164.042 411.042 161.839 412.544 159.03C414.047 156.224 414.846 153.344 414.846 146.228V137.772C414.846 130.656 414.047 127.776 412.544 124.97C411.042 122.161 408.839 119.958 406.03 118.456ZM389 130.154C391.104 130.154 391.843 130.16 392.418 130.236C396.769 130.809 400.191 134.231 400.764 138.582C400.84 139.157 400.846 139.896 400.846 142C400.846 144.104 400.84 144.843 400.764 145.418C400.191 149.769 396.769 153.191 392.418 153.762C391.843 153.84 391.104 153.846 389 153.846H384.692C383.646 153.846 383.021 153.844 382.556 153.812C382.267 153.792 382.144 153.766 382.114 153.758C381.86 153.65 381.658 153.448 381.55 153.194C381.541 153.163 381.515 153.041 381.496 152.752C381.464 152.287 381.462 151.662 381.462 150.615C381.462 149.601 381.462 149.093 381.147 148.776C380.83 148.462 380.322 148.462 379.308 148.462H377.154C376.139 148.462 375.631 148.462 375.314 148.776C375 149.093 375 149.601 375 150.615V150.71C375 151.632 375 152.481 375.05 153.191C375.101 153.958 375.22 154.798 375.573 155.653C376.34 157.501 377.806 158.968 379.654 159.735C380.51 160.088 381.35 160.206 382.116 160.258C382.827 160.308 383.676 160.308 384.598 160.308H389H389.25C391.01 160.308 392.209 160.308 393.262 160.17C400.51 159.216 406.216 153.51 407.17 146.262C407.308 145.209 407.308 144.01 407.308 142.25V142V141.75C407.308 139.99 407.308 138.791 407.17 137.738C406.216 130.49 400.51 124.784 393.262 123.83C392.209 123.692 391.01 123.692 389.25 123.692H389H384.692H384.598C383.676 123.692 382.827 123.692 382.116 123.742C381.35 123.794 380.51 123.912 379.654 124.265C377.806 125.032 376.34 126.499 375.573 128.347C375.22 129.202 375.101 130.042 375.05 130.809C375 131.519 375 132.368 375 133.29V133.385C375 134.399 375 134.907 375.314 135.224C375.631 135.538 376.139 135.538 377.154 135.538H379.308C380.322 135.538 380.83 135.538 381.147 135.224C381.462 134.907 381.462 134.399 381.462 133.385C381.462 132.338 381.464 131.713 381.496 131.248C381.515 130.959 381.541 130.837 381.55 130.806C381.658 130.552 381.86 130.35 382.114 130.242C382.144 130.234 382.267 130.208 382.556 130.188C383.021 130.156 383.646 130.154 384.692 130.154H389ZM370.692 142C370.692 140.996 370.692 140.494 370.856 140.098C371.076 139.57 371.494 139.153 372.021 138.933C372.418 138.769 372.919 138.769 373.923 138.769H384.692C385.696 138.769 386.198 138.769 386.594 138.933C387.122 139.153 387.54 139.57 387.759 140.098C387.923 140.494 387.923 140.996 387.923 142C387.923 143.004 387.923 143.506 387.759 143.902C387.54 144.43 387.122 144.847 386.594 145.067C386.198 145.231 385.696 145.231 384.692 145.231H373.923C372.919 145.231 372.418 145.231 372.021 145.067C371.494 144.847 371.076 144.43 370.856 143.902C370.692 143.506 370.692 143.004 370.692 142Z" fill="white"/>
<path opacity="0.5" fill-rule="evenodd" clip-rule="evenodd" d="M202 143C202 173.928 176.928 199 146 199C115.072 199 90 173.928 90 143C90 112.072 115.072 87 146 87C176.928 87 202 112.072 202 143ZM111.538 143C111.538 133.484 119.254 125.769 128.769 125.769H163.231C172.746 125.769 180.462 133.484 180.462 143C180.462 152.516 172.746 160.231 163.231 160.231H162.494C158.856 160.231 155.395 158.661 153 155.923L151.359 154.047C150.006 152.501 148.053 151.615 146 151.615C143.947 151.615 141.994 152.501 140.641 154.047L139 155.923C136.605 158.661 133.144 160.231 129.506 160.231H128.769C119.254 160.231 111.538 152.516 111.538 143ZM132 135.462C132 133.678 130.553 132.231 128.769 132.231C126.986 132.231 125.538 133.678 125.538 135.462V138.692C125.538 139.287 125.056 139.769 124.462 139.769H121.231C119.447 139.769 118 141.217 118 143C118 144.783 119.447 146.231 121.231 146.231H124.462C125.056 146.231 125.538 146.713 125.538 147.308V150.538C125.538 152.322 126.986 153.769 128.769 153.769C130.553 153.769 132 152.322 132 150.538V147.308C132 146.713 132.482 146.231 133.077 146.231H136.308C138.091 146.231 139.538 144.783 139.538 143C139.538 141.217 138.091 139.769 136.308 139.769H133.077C132.482 139.769 132 139.287 132 138.692V135.462ZM160 152.692C162.38 152.692 164.308 150.765 164.308 148.385C164.308 146.005 162.38 144.077 160 144.077C157.62 144.077 155.692 146.005 155.692 148.385C155.692 150.765 157.62 152.692 160 152.692ZM175.077 137.615C175.077 139.995 173.149 141.923 170.769 141.923C168.389 141.923 166.462 139.995 166.462 137.615C166.462 135.235 168.389 133.308 170.769 133.308C173.149 133.308 175.077 135.235 175.077 137.615Z" fill="white"/>
<path opacity="0.3" fill-rule="evenodd" clip-rule="evenodd" d="M202 275C202 305.928 176.928 331 146 331C115.072 331 90 305.928 90 275C90 244.072 115.072 219 146 219C176.928 219 202 244.072 202 275ZM171.846 275C171.846 289.274 160.274 300.846 146 300.846H126.615C123.046 300.846 120.154 297.958 120.154 294.389V275C120.154 260.726 131.726 249.154 146 249.154C160.274 249.154 171.846 260.726 171.846 275ZM146 279.308C148.38 279.308 150.308 277.38 150.308 275C150.308 272.62 148.38 270.692 146 270.692C143.62 270.692 141.692 272.62 141.692 275C141.692 277.38 143.62 279.308 146 279.308ZM163.231 275C163.231 277.38 161.303 279.308 158.923 279.308C156.543 279.308 154.615 277.38 154.615 275C154.615 272.62 156.543 270.692 158.923 270.692C161.303 270.692 163.231 272.62 163.231 275ZM133.077 279.308C135.457 279.308 137.385 277.38 137.385 275C137.385 272.62 135.457 270.692 133.077 270.692C130.697 270.692 128.769 272.62 128.769 275C128.769 277.38 130.697 279.308 133.077 279.308Z" fill="white"/>
<path opacity="0.7" fill-rule="evenodd" clip-rule="evenodd" d="M445 10C445 40.9279 419.928 66 389 66C358.072 66 333 40.9279 333 10C333 -20.9279 358.072 -46 389 -46C419.928 -46 445 -20.9279 445 10ZM387.497 -18.9929C385.866 -18.8508 384.613 -20.3326 385.782 -21.4763C387.268 -22.9302 389.411 -23.6711 391.617 -23.2812L417.939 -18.6397C421.573 -18 424 -14.5345 423.358 -10.9009L416.397 28.5834C415.757 32.2169 412.29 34.6443 408.656 34.0025L407.663 33.828C406.466 33.6169 405.684 32.4775 405.634 31.2628C405.615 30.7652 405.561 30.2612 405.473 29.7572L404.226 22.6862C403.958 21.1634 405.283 19.8388 406.806 20.1059L410.978 20.8425C412.188 21.0557 413.343 20.2458 413.558 19.0354L418.973 -11.6742C419.186 -12.8846 418.376 -14.0412 417.166 -14.2545L390.844 -18.896C389.73 -19.092 388.612 -19.0898 387.497 -18.9929ZM404.387 15.1563C403.465 14.9948 402.742 14.2711 402.58 13.3492L401.503 7.24308C401.363 6.45477 402.076 5.78492 402.834 6.04123C406.737 7.36584 409.5 9.97415 409.705 13.8489C409.77 15.0788 408.574 15.8951 407.364 15.6818L404.387 15.1563ZM402.399 3.28646C401.438 3.33815 400.678 2.57138 400.512 1.62369L398.511 -9.72708L398.494 -9.824C398.268 -11.0366 398.819 -12.3483 400.054 -12.4215C401.01 -12.4775 402.072 -12.3914 403.23 -12.1868C408.077 -11.3338 410.603 -9.09816 409.748 -4.25415C409.007 -0.0584641 406.267 3.07538 402.399 3.28646ZM364.952 3.21754C364.36 4.02092 365.392 6.61846 366.329 8.59354C366.843 9.68123 366.94 10.9089 366.846 12.1108C366.809 12.576 366.802 13.0455 366.833 13.5215C366.858 13.9415 366.865 14.3637 366.779 14.7751C366.553 15.8563 366.186 16.8923 365.674 17.8357C365.381 18.3785 365.508 19.0935 366.115 19.1926C366.766 19.296 367.481 19.1818 368.194 18.9449C368.635 18.8006 369.122 18.8975 369.482 19.1926C371.789 21.0923 375.342 21.4994 379.191 20.8209C383.021 20.1446 386.211 18.5594 387.738 16.0071C387.966 15.6237 388.371 15.3738 388.817 15.3437C389.467 15.2985 390.079 15.1585 390.585 14.8763C391.124 14.5769 390.999 13.8597 390.538 13.4526C389.778 12.7785 388.748 11.8652 388.565 10.8292C388.393 9.85138 388.082 8.93169 387.656 8.08092C387.09 6.95231 386.708 5.71169 386.807 4.45169C386.973 2.37754 386.982 -0.0239983 386.215 -0.532307C385.298 -1.14185 382.661 0.574768 380.955 1.83046C380.404 2.23539 379.71 2.39262 379.03 2.328C378.028 2.23323 376.997 2.26985 375.954 2.45508C374.849 2.64892 373.811 2.99569 372.859 3.46523C372.228 3.77754 371.504 3.87446 370.83 3.67415C368.799 3.07108 365.62 2.31077 364.952 3.21754ZM380.251 14.9797C380.357 15.5849 379.461 16.2505 378.25 16.4637C377.04 16.6769 375.969 16.3582 375.864 15.7529C375.756 15.1477 376.652 14.4843 377.862 14.2689C379.075 14.0557 380.143 14.3745 380.251 14.9797ZM371.086 14.8785C372.648 15.4471 374.399 14.5748 374.998 12.9292C375.597 11.2837 374.817 9.48954 373.255 8.92092C371.696 8.35231 369.945 9.22677 369.346 10.8723C368.747 12.5178 369.527 14.312 371.086 14.8785ZM384.712 8.16492C385.84 9.50892 385.722 11.4646 384.449 12.5329C383.176 13.6012 381.229 13.3772 380.102 12.0332C378.974 10.6892 379.092 8.73569 380.365 7.66739C381.638 6.59908 383.585 6.82092 384.712 8.16492ZM360.061 -9.73138C356.427 -9.09169 354 -5.624 354.642 -1.99046L361.603 37.4917C362.243 41.1252 365.71 43.5526 369.344 42.9129L395.666 38.2714C399.3 37.6295 401.727 34.164 401.085 30.5305L394.124 -8.95169C393.482 -12.5874 390.017 -15.0126 386.383 -14.3729L360.061 -9.73138ZM360.834 -5.344C359.624 -5.13077 358.814 -3.97631 359.027 -2.76369L364.442 27.9437C364.657 29.1563 365.812 29.964 367.022 29.7508L393.344 25.1092C394.557 24.896 395.365 23.7415 395.151 22.5289L389.737 -8.17846C389.523 -9.39108 388.369 -10.1988 387.156 -9.98554L360.834 -5.344Z" fill="white"/>
<path opacity="0.6" fill-rule="evenodd" clip-rule="evenodd" d="M325 77C325 107.928 299.928 133 269 133C238.072 133 213 107.928 213 77C213 46.0721 238.072 21 269 21C299.928 21 325 46.0721 325 77ZM251.916 51.1538C249.002 51.1538 246.434 53.0255 245.596 55.7588C245.439 56.2714 245.273 56.7969 245.103 57.3354C244.089 60.5446 242.964 64.1071 243.182 66.7692C243.43 69.8105 245.764 72.6923 249.206 72.6923C251.918 72.6923 254.901 69.8105 255.224 66.7692C255.256 66.472 255.5 66.2308 255.803 66.2308C256.107 66.2308 256.35 66.472 256.374 66.7692C256.624 69.8105 258.959 72.6923 262.398 72.6923C265.112 72.6923 268.095 69.8105 268.416 66.7692C268.449 66.472 268.692 66.2308 268.996 66.2308C269.299 66.2308 269.543 66.472 269.566 66.7692C269.816 69.8105 272.151 72.6923 275.593 72.6923C278.305 72.6923 281.288 69.8105 281.611 66.7692C281.641 66.472 281.884 66.2308 282.188 66.2308C282.492 66.2308 282.737 66.472 282.761 66.7692C283.009 69.8105 285.346 72.6923 288.785 72.6923C291.499 72.6923 294.48 69.8105 294.803 66.7692C295.079 64.1714 293.967 60.6962 292.959 57.5469L292.957 57.54C292.761 56.9305 292.572 56.3338 292.395 55.7588C291.557 53.0255 288.99 51.1538 286.076 51.1538H251.916ZM251.177 78.3397C251.043 77.5665 250.371 77 249.585 77H246.578C245.913 77 245.407 77.5966 245.517 78.2535L248.715 97.4465C249.234 100.563 251.931 102.846 255.088 102.846H282.912C286.069 102.846 288.766 100.563 289.285 97.4465L292.483 78.2535C292.593 77.5966 292.087 77 291.422 77H288.415C287.629 77 286.957 77.5665 286.823 78.3397L284.695 90.6575C284.338 92.7231 282.546 94.2308 280.45 94.2308H257.55C255.454 94.2308 253.662 92.7231 253.305 90.6575L251.177 78.3397ZM257.488 86.9529C257.318 86.2745 257.832 85.6154 258.532 85.6154H279.468C280.168 85.6154 280.682 86.2745 280.512 86.9529L280.176 88.2926C279.937 89.2511 279.076 89.9231 278.087 89.9231H259.913C258.924 89.9231 258.063 89.2511 257.824 88.2926L257.488 86.9529Z" fill="white"/>
<path opacity="0.8" fill-rule="evenodd" clip-rule="evenodd" d="M202 11C202 41.9279 176.928 67 146 67C115.072 67 90 41.9279 90 11C90 -19.9279 115.072 -45 146 -45C176.928 -45 202 -19.9279 202 11ZM125.538 6.69231H136.308C136.96 6.69231 137.548 6.30031 137.799 5.69723L142.307 -5.12154C142.581 -5.77846 142.391 -6.54092 141.839 -6.99323L131.946 -15.0852C131.351 -15.572 130.495 -15.572 129.9 -15.0852L120.008 -6.99323C119.455 -6.54092 119.265 -5.77846 119.539 -5.12154L124.047 5.69723C124.298 6.30031 124.886 6.69231 125.538 6.69231ZM152.462 -14.8462C151.272 -14.8462 150.308 -13.8812 150.308 -12.6923V4.53846C150.308 5.72738 151.272 6.69231 152.462 6.69231H169.692C170.882 6.69231 171.846 5.72738 171.846 4.53846V-12.6923C171.846 -13.8812 170.882 -14.8462 169.692 -14.8462H152.462ZM141.692 26.0769C141.692 32.0237 136.871 36.8462 130.923 36.8462C124.975 36.8462 120.154 32.0237 120.154 26.0769C120.154 20.1301 124.975 15.3077 130.923 15.3077C136.871 15.3077 141.692 20.1301 141.692 26.0769ZM150.331 36.8462H171.823C172.804 36.8462 173.427 35.7972 172.958 34.9357L162.211 15.2345C161.722 14.3363 160.432 14.3363 159.942 15.2345L149.196 34.9357C148.727 35.7972 149.35 36.8462 150.331 36.8462Z" fill="white"/>
</g>
<mask id="mask1" mask-type="alpha" maskUnits="userSpaceOnUse" x="306" y="14" width="426" height="460">
<rect x="306" y="14" width="426" height="460" fill="white"/>
</mask>
<g mask="url(#mask1)">
</g>
</g>
<defs>
<clipPath id="clip0">
<rect width="426" height="460" fill="white"/>
</clipPath>
</defs>
</svg>
