<svg width="426" height="460" viewBox="0 0 426 460" fill="none" xmlns="http://www.w3.org/2000/svg">
<rect width="426" height="460" fill="#3FC9CD"/>
<mask id="mask0" mask-type="alpha" maskUnits="userSpaceOnUse" x="0" y="0" width="426" height="460">
<rect width="426" height="460" fill="white"/>
</mask>
<g mask="url(#mask0)">
<path fill-rule="evenodd" clip-rule="evenodd" d="M174 250.405C148.637 250.405 128 229.744 128 204.351C128 182.902 142.749 164.877 162.609 159.788V76.2175C142.749 71.1227 128 53.0983 128 31.6487C128 6.2556 148.637 -14.4054 174 -14.4054C186.454 -14.4054 198.248 -9.26463 206.804 -0.543137L278.339 -41.8939C278.283 -42.2509 278.221 -42.6074 278.16 -42.964L278.16 -42.965L278.16 -42.9653C277.99 -43.9482 277.82 -44.9313 277.753 -45.9236C277.598 -47.0002 277.5 -47.9558 277.5 -48.9459C277.5 -74.339 298.137 -95 323.5 -95C348.863 -95 369.5 -74.339 369.5 -48.9459C369.5 -47.9558 369.402 -47.0002 369.276 -46.0445C369.205 -45.024 369.032 -44.0276 368.859 -43.0313L368.859 -43.0307L368.859 -43.0301L368.859 -43.0294L368.859 -43.0288L368.858 -43.0281L368.858 -43.0275L368.858 -43.0269V-43.0267V-43.0266V-43.0265V-43.0264C368.792 -42.6474 368.726 -42.2684 368.666 -41.8882L440.196 -0.543137C448.752 -9.26463 460.546 -14.4054 473 -14.4054C498.363 -14.4054 519 6.2556 519 31.6487C519 53.0983 504.251 71.1227 484.391 76.2175V159.783C504.251 164.877 519 182.902 519 204.351C519 229.744 498.363 250.405 473 250.405C460.546 250.405 448.752 245.265 440.196 236.537L368.885 277.762C369.264 280.133 369.5 282.528 369.5 284.946C369.5 285.936 369.402 286.892 369.27 287.842C367.654 312.101 347.564 331 323.5 331C299.436 331 279.346 312.101 277.753 287.968C277.598 286.892 277.5 285.936 277.5 284.946C277.5 282.528 277.736 280.133 278.115 277.767L206.804 236.543C198.248 245.265 186.454 250.405 174 250.405ZM313 72.7458V-4.94044C303.205 -7.46014 294.565 -13.0506 288.364 -21L219.006 18.8447C220.113 22.8165 220.707 26.9204 220.707 31.0587C220.707 35.2888 220.084 39.3755 219 43.2669L291.646 85C297.426 79.1456 304.774 74.8638 313 72.7458ZM358.631 -21L427.988 18.8447C426.881 22.8165 426.287 26.9204 426.287 31.0587C426.287 35.2888 426.91 39.3697 428 43.2669L355.354 85C349.574 79.1456 342.226 74.8638 334 72.7458V-4.94044C343.789 -7.46014 352.435 -13.0506 358.631 -21ZM439.7 173C445.468 167.151 452.801 162.868 461 160.733H460.994V77.2615C452.795 75.1261 445.462 70.8437 439.7 65L367 106.733C368.097 110.642 368.726 114.746 368.726 119C368.726 123.254 368.097 127.358 367 131.267L439.7 173ZM334 240.974V163.259C342.226 161.141 349.574 156.857 355.354 151L428 192.751C426.916 196.644 426.293 200.733 426.293 204.965C426.293 209.105 426.887 213.21 427.994 217.184L358.723 257C352.493 249.064 343.823 243.477 334 240.974ZM219.012 217.184L288.283 257C294.513 249.064 303.182 243.477 313 240.974V163.259C304.774 161.141 297.426 156.857 291.646 151L219 192.751C220.09 196.65 220.713 200.733 220.713 204.965C220.713 209.105 220.119 213.21 219.012 217.184ZM324 95C336.684 95 347 105.316 347 118C347 130.684 336.684 141 324 141C311.316 141 301 130.684 301 118C301 105.316 311.316 95 324 95ZM280 106.733L207.296 65C201.527 70.8495 194.194 75.1318 186 77.2672V160.738C194.2 162.874 201.533 167.156 207.296 173L280 131.267C278.903 127.358 278.273 123.254 278.273 119C278.273 114.746 278.903 110.642 280 106.733ZM174 227C161.315 227 151 216.685 151 204C151 191.39 161.206 181.115 173.793 181C173.831 181 173.867 181.001 173.903 181.002L173.938 181.003L173.94 181.003C173.985 181.004 174.03 181.006 174.075 181.006C186.713 181.046 197 191.362 197 204C197 207.996 195.936 211.952 193.924 215.443C189.812 222.573 182.176 227 174 227ZM324.006 308C335.997 308 346.011 298.559 346.81 286.507C346.85 285.909 346.919 285.328 347 284.747C347.011 282.108 346.459 279.25 345.366 276.507C341.852 267.693 333.472 262 324.006 262C314.539 262 306.159 267.693 302.645 276.507C301.552 279.25 301 282.108 301 285C301.092 285.328 301.161 285.909 301.201 286.507C302.001 298.559 312.014 308 324.006 308ZM496 204C496 216.685 485.685 227 473 227C464.823 227 457.188 222.573 453.076 215.443C451.064 211.952 450 207.996 450 204C450 191.362 460.287 181.046 472.891 181.006H472.922L472.99 181.006C473.061 181.005 473.132 181.004 473.207 181C485.794 181.115 496 191.384 496 204ZM496 32C496 19.3155 485.685 9 473 9C464.823 9 457.188 13.4275 453.076 20.5575C451.064 24.0478 450 28.0038 450 32C450 44.6385 460.287 54.954 472.925 54.9942C472.971 54.9942 473.016 54.9957 473.062 54.9971L473.063 54.9971C473.11 54.9986 473.158 55 473.207 55C485.794 54.885 496 44.6098 496 32ZM324.006 -72C336.693 -72 347.011 -61.6845 347 -49.253C346.919 -48.6722 346.85 -48.0915 346.81 -47.4935C346.655 -45.1475 346.12 -42.813 345.229 -40.536C341.749 -31.704 333.421 -26 324.006 -26C314.596 -26 306.268 -31.704 302.789 -40.536C301.891 -42.8073 301.357 -45.1475 301.207 -47.4877C301.161 -48.0915 301.092 -48.6722 301 -49C301 -61.6845 311.318 -72 324.006 -72ZM174 9C161.315 9 151 19.3155 151 32C151 44.6155 161.206 54.885 173.793 55C173.902 54.9942 174.006 54.9942 174.109 54.9942C186.713 54.954 197 44.6385 197 32C197 28.0038 195.936 24.0478 193.924 20.5575C189.812 13.4275 182.176 9 174 9Z" fill="white" fill-opacity="0.6"/>
</g>
</svg>
