<svg width="426" height="460" viewBox="0 0 426 460" fill="none" xmlns="http://www.w3.org/2000/svg">
<rect width="426" height="460" fill="#61A1A4"/>
<mask id="mask0" mask-type="alpha" maskUnits="userSpaceOnUse" x="0" y="0" width="426" height="460">
<rect width="426" height="460" fill="white"/>
</mask>
<g mask="url(#mask0)">
<path fill-rule="evenodd" clip-rule="evenodd" d="M349.274 -58.3616C304.66 -70.4225 255 -58.9626 219.973 -23.9821C184.947 10.9984 173.472 60.5929 185.549 105.148C191.897 65.5367 210.359 27.4856 240.934 -3.04921C271.509 -33.5842 309.61 -52.0216 349.274 -58.3616ZM225.802 167.792C212.068 117.121 225.118 60.7194 264.952 20.938C304.786 -18.8438 361.262 -31.8767 412 -18.1603C366.892 -10.95 323.561 10.0177 288.789 44.7438C254.018 79.4694 233.022 122.744 225.802 167.792ZM318.048 186.062C357.882 146.28 370.932 89.879 357.198 39.2076C349.978 84.2567 328.982 127.53 294.211 162.257C259.439 196.982 216.108 217.95 171 225.161C221.738 238.877 278.214 225.844 318.048 186.062ZM363.027 230.982C398.054 196.001 409.529 146.407 397.452 101.852C391.104 141.464 372.642 179.515 342.067 210.049C311.492 240.584 273.39 259.022 233.727 265.362C278.341 277.422 328 265.963 363.027 230.982ZM184.452 324.644C196.529 369.2 185.054 418.794 150.027 453.775C115.001 488.755 65.3406 500.215 20.7265 488.154C60.3903 481.814 98.492 463.377 129.067 432.842C159.642 402.307 178.104 364.256 184.452 324.644ZM105.048 408.855C144.882 369.073 157.932 312.671 144.198 262C136.978 307.049 115.982 350.323 81.2106 385.049C46.4392 419.775 3.10802 440.743 -42 447.953C8.73814 461.669 65.2139 448.636 105.048 408.855ZM16.8981 365.792C3.16373 315.121 16.2137 258.719 56.048 218.938C95.8818 179.156 152.358 166.123 203.096 179.84C157.988 187.05 114.657 208.018 79.8851 242.744C45.1133 277.469 24.1179 320.744 16.8981 365.792ZM140.37 139.638C95.7555 127.578 46.0956 139.037 11.0691 174.018C-23.9573 208.998 -35.4322 258.593 -23.3555 303.148C-17.0072 263.537 1.45444 225.486 32.0295 194.951C62.6046 164.416 100.706 145.978 140.37 139.638Z" fill="url(#paint0_linear)"/>
</g>
<defs>
<linearGradient id="paint0_linear" x1="203.523" y1="-238.889" x2="-261.818" y2="127.256" gradientUnits="userSpaceOnUse">
<stop stop-color="white" stop-opacity="0.698454"/>
<stop offset="1" stop-color="white" stop-opacity="0.01"/>
</linearGradient>
</defs>
</svg>
