<svg width="39" height="32" viewBox="0 0 39 32" fill="none" xmlns="http://www.w3.org/2000/svg">
<path fill-rule="evenodd" clip-rule="evenodd" d="M2.86444 31.4811C2.13347 31.4811 1.3981 31.2165 0.838857 30.6831C-0.279619 29.6163 -0.279619 27.8859 0.838857 26.8233L12.464 15.7437L0.838857 4.6599C-0.279619 3.5973 -0.279619 1.8669 0.838857 0.800099C1.95733 -0.2667 3.77155 -0.2667 4.89003 0.800099L18.5363 13.8117C19.0691 14.3241 19.373 15.0171 19.373 15.7395C19.373 16.4619 19.0691 17.1591 18.5363 17.6673L4.89003 30.6831C4.33079 31.2165 3.59542 31.4811 2.86444 31.4811Z" fill="#595959"/>
<path fill-rule="evenodd" clip-rule="evenodd" d="M36.028 31.4812H22.091C20.5898 31.4812 19.373 30.397 19.373 29.0596C19.373 27.7221 20.5898 26.6379 22.091 26.6379H36.028C37.5291 26.6379 38.746 27.7221 38.746 29.0596C38.746 30.397 37.5291 31.4812 36.028 31.4812Z" fill="#999999"/>
</svg>
