<svg width="42" height="35" viewBox="0 0 42 35" fill="none" xmlns="http://www.w3.org/2000/svg">
<path d="M37.4349 16.323H24.6521C23.4359 16.323 22.353 15.512 22.0188 14.3491L21.8782 13.8593C21.8745 13.8466 21.8654 13.8357 21.8599 13.823C21.8417 13.7704 21.8143 13.725 21.7887 13.6778C21.7613 13.6289 21.7394 13.5799 21.7047 13.5381C21.6773 13.5037 21.6426 13.4783 21.6098 13.4493C21.5623 13.4057 21.5166 13.3622 21.46 13.3295C21.4271 13.3114 21.3906 13.3005 21.3559 13.286C21.292 13.2588 21.2281 13.2334 21.1569 13.2207C21.1459 13.2188 21.1368 13.2116 21.1258 13.2098C21.0838 13.2043 21.0437 13.2152 21.0017 13.2152C20.9578 13.2152 20.9158 13.2043 20.872 13.2098C20.861 13.2116 20.8519 13.2188 20.8391 13.2207C20.7752 13.2315 20.7186 13.2551 20.6602 13.2787C20.6163 13.2969 20.5725 13.3096 20.5342 13.3313C20.4867 13.3585 20.4483 13.3966 20.4063 13.4329C20.3662 13.4674 20.3242 13.4982 20.2913 13.54C20.2603 13.5781 20.2383 13.6234 20.2146 13.667C20.1854 13.7178 20.1562 13.7649 20.1379 13.8212C20.1343 13.8339 20.1233 13.8429 20.1196 13.8556L19.979 14.3455C19.6449 15.5084 18.562 16.3193 17.3458 16.3193H4.56296C4.05895 16.3193 3.6499 16.7257 3.6499 17.2264V29.926C3.6499 30.3505 3.94756 30.7206 4.36574 30.8113L20.8008 34.4397C20.8665 34.4542 20.9323 34.4615 20.998 34.4615C21.0637 34.4615 21.1313 34.4542 21.1952 34.4397L37.6303 30.8113C38.0485 30.7188 38.3461 30.3505 38.3461 29.926V17.2264C38.3479 16.7294 37.9389 16.323 37.4349 16.323Z" fill="#595959"/>
<path fill-rule="evenodd" clip-rule="evenodd" d="M41.9527 13.315L38.3004 2.42976C38.1872 2.09413 37.8896 1.85465 37.5353 1.81474L21.1002 0.000524323C21.0655 -0.00310411 21.0345 0.0132238 20.9998 0.015038C20.9651 0.015038 20.9341 -0.00310411 20.8994 0.000524323L4.46432 1.81474C4.11006 1.85284 3.8124 2.09413 3.69918 2.42976L0.0469492 13.315C-0.0461827 13.5908 0.0012963 13.8956 0.171125 14.1333C0.34278 14.3691 0.618523 14.5106 0.912528 14.5106H17.3476C17.7548 14.5106 18.1127 14.2421 18.2259 13.8521L20.9998 4.20587L23.7737 13.8521C23.8869 14.2421 24.2448 14.5106 24.652 14.5106H41.0871C41.3811 14.5106 41.6568 14.3709 41.8285 14.1333C42.0001 13.8956 42.0458 13.5908 41.9527 13.315Z" fill="#999999"/>
</svg>
