<svg width="38" height="45" viewBox="0 0 38 45" fill="none" xmlns="http://www.w3.org/2000/svg">
<path d="M0.86383 13.05L18.249 23.0873C18.6515 23.3197 19.1478 23.3197 19.551 23.0873L36.9362 13.05C37.3387 12.8176 37.5872 12.3878 37.5872 11.9223C37.5872 11.4575 37.3387 11.0277 36.9362 10.7946L19.551 0.75804C19.1485 0.52564 18.6522 0.52564 18.249 0.75804L0.86383 10.7946C0.46133 11.027 0.21283 11.4568 0.21283 11.9223C0.21283 12.3878 0.46133 12.8176 0.86383 13.05Z" fill="#595959"/>
<path d="M36.9362 21.2723L32.3666 18.634L20.8271 25.2966C20.2328 25.6396 19.5664 25.8111 18.9007 25.8111C18.2343 25.8111 17.5686 25.6396 16.9743 25.2966L5.4341 18.634L0.864501 21.2723C0.462001 21.5047 0.213501 21.9345 0.213501 22.4C0.213501 22.8648 0.462001 23.2946 0.864501 23.5277L18.249 33.5643C18.6515 33.7967 19.1478 33.7967 19.551 33.5643L36.9362 23.527C37.3387 23.2946 37.5872 22.8648 37.5872 22.3993C37.5872 21.9352 37.3387 21.5054 36.9362 21.2723Z" fill="#797979"/>
<path d="M36.9362 31.7499L32.3666 29.1116L20.8271 35.7742C20.2328 36.1172 19.5671 36.2887 18.9007 36.2887C18.2343 36.2887 17.5686 36.1172 16.9743 35.7742L5.43477 29.1116L0.865172 31.7499C0.462672 31.9823 0.214172 32.4121 0.214172 32.8776C0.214172 33.3431 0.462672 33.7722 0.865172 34.0053L18.249 44.0426C18.6515 44.275 19.1478 44.275 19.551 44.0426L36.9362 34.0053C37.3387 33.7729 37.5872 33.3431 37.5872 32.8776C37.5872 32.4121 37.3387 31.983 36.9362 31.7499Z" fill="#A3A3A3"/>
</svg>
