<svg width="33" height="36" viewBox="0 0 33 36" fill="none" xmlns="http://www.w3.org/2000/svg"> <path d="M21.6473 28.4162H2.94885C1.34039 28.4162 0 27.0758 0 25.4674V2.94885C0 1.34039 1.34039 0 2.94885 0H21.6473C23.2557 0 24.5961 1.34039 24.5961 2.94885V25.5344C24.5291 27.1429 23.2557 28.4162 21.6473 28.4162ZM4.08818 24.3951H20.5079V4.02116H4.08818V24.3951Z" fill="#585856"/> <path d="M29.2205 35.9894H10.5221C8.91363 35.9894 7.57324 34.6491 7.57324 33.0406V10.5221C7.57324 8.9136 8.91363 7.57321 10.5221 7.57321H29.2205C30.829 7.57321 32.1694 8.9136 32.1694 10.5221V33.1076C32.1694 34.7161 30.829 35.9894 29.2205 35.9894ZM11.6614 31.9683H28.0812V11.6614H11.6614V31.9683Z" fill="#585856"/> </svg>