<svg width="27" height="26" viewBox="0 0 27 26" fill="none" xmlns="http://www.w3.org/2000/svg">
<path fill-rule="evenodd" clip-rule="evenodd" d="M0 13.3301C-0.00036676 19.0684 3.71808 24.163 9.23096 25.9773C9.9064 26.0989 10.1526 25.6878 10.1526 25.3343C10.1526 25.0176 10.1413 24.1795 10.1348 23.0678C6.3802 23.8724 5.58814 21.2812 5.58814 21.2812C4.97264 19.7409 4.08825 19.3298 4.08825 19.3298C2.8621 18.5045 4.18058 18.5205 4.18058 18.5205C5.53631 18.6149 6.249 19.8945 6.249 19.8945C7.45247 21.9306 9.40751 21.342 10.1769 21.0013C10.3 20.1408 10.6482 19.5538 11.0354 19.2195C8.0372 18.8836 4.88517 17.7399 4.88517 12.6328C4.88517 11.1772 5.41159 9.9872 6.27492 9.0563C6.13562 8.71881 5.67237 7.36244 6.40774 5.52782C6.40774 5.52782 7.54156 5.16954 10.1186 6.89539C11.2203 6.5988 12.357 6.44767 13.499 6.44593C14.6403 6.44744 15.7765 6.59803 16.8778 6.89379C19.4532 5.16954 20.587 5.52782 20.587 5.52782C21.3224 7.36244 20.8592 8.71881 20.7199 9.0563C21.5864 9.9872 22.108 11.1772 22.108 12.6328C22.108 17.7527 18.9511 18.8804 15.9448 19.2099C16.4291 19.6209 16.8616 20.4351 16.8616 21.6779C16.8616 23.4597 16.8454 24.8977 16.8454 25.3343C16.8454 25.691 17.0884 26.1053 17.7719 25.9757C24.3127 23.8204 28.1571 17.1437 26.6881 10.491C25.219 3.83825 18.9088 -0.651812 12.0531 0.0775083C5.19748 0.806828 0.000435577 6.52107 0 13.3301H0Z" fill="white"/>
</svg>
