<svg width="24" height="24" viewBox="0 0 24 24" fill="none" xmlns="http://www.w3.org/2000/svg"> <path d="M11.8942 23.4497C5.54494 23.4497 0.38092 18.2857 0.38092 11.9365C0.38092 5.5873 5.54494 0.423279 11.8942 0.423279C18.2434 0.423279 23.4074 5.5873 23.4074 11.9365C23.4074 18.2857 18.2434 23.4497 11.8942 23.4497Z" fill="white"/> <path d="M12.0211 12.1904C13.564 12.1904 14.8147 10.9397 14.8147 9.39683C14.8147 7.85391 13.564 6.60315 12.0211 6.60315C10.4782 6.60315 9.22748 7.85391 9.22748 9.39683C9.22748 10.9397 10.4782 12.1904 12.0211 12.1904Z" fill="#BCBCBC"/> <path d="M15.0265 17.0158H8.97356C8.16935 17.0158 7.49213 16.3809 7.49213 15.5343C7.49213 14.7301 8.127 14.0529 8.97356 14.0529H15.0265C15.8307 14.0529 16.508 14.6877 16.508 15.5343C16.4657 16.3809 15.8307 17.0158 15.0265 17.0158Z" fill="#BCBCBC"/> </svg>