<svg width="25" height="36" viewBox="0 0 25 36" fill="none" xmlns="http://www.w3.org/2000/svg"> <path d="M12.4871 18C14.7248 18 16.5387 16.186 16.5387 13.9484C16.5387 11.7107 14.7248 9.8967 12.4871 9.8967C10.2494 9.8967 8.43542 11.7107 8.43542 13.9484C8.43542 16.186 10.2494 18 12.4871 18Z" fill="#9B9A9A"/> <path d="M21.5203 36H3.12177C1.39483 36 0 34.6052 0 32.8782V3.12177C0 1.39483 1.39483 0 3.12177 0H21.5203C23.2472 0 24.6421 1.39483 24.6421 3.12177V32.8118C24.6421 34.5387 23.2472 36 21.5203 36ZM4.25092 31.7491H20.3911V4.1845H4.25092V31.7491Z" fill="#585856"/> <path d="M16.8709 25.0406H8.03696C6.84139 25.0406 5.9115 24.1107 5.9115 22.9151C5.9115 21.7196 6.84139 20.7897 8.03696 20.7897H16.8709C18.0665 20.7897 18.9964 21.7196 18.9964 22.9151C18.9964 24.1107 18.0665 25.0406 16.8709 25.0406Z" fill="#9B9A9A"/> </svg>