<svg width="24" height="24" viewBox="0 0 24 24" fill="none" xmlns="http://www.w3.org/2000/svg"> <path d="M12.0635 19.7672C7.8307 19.7672 4.3598 16.2962 4.3598 12.0635C4.3598 7.83064 7.8307 4.35974 12.0635 4.35974C16.2963 4.35974 19.7672 7.83064 19.7672 12.0635C19.7672 16.2962 16.2963 19.7672 12.0635 19.7672ZM12.0635 6.09519C8.7619 6.09519 6.09526 8.76184 6.09526 12.0635C6.09526 15.365 8.7619 18.0317 12.0635 18.0317C15.3651 18.0317 18.0318 15.365 18.0318 12.0635C18.0318 8.76184 15.3651 6.09519 12.0635 6.09519Z" fill="white"/> <path d="M12.0635 23.5344C11.6402 23.5344 11.2169 23.4921 10.7937 23.4497C10.3281 23.4074 9.98938 22.9841 10.0317 22.4762C10.0741 22.0106 10.4973 21.6719 11.0053 21.7143C11.3439 21.7566 11.7249 21.7566 12.1058 21.7566C12.5714 21.7566 12.9947 22.1375 12.9947 22.6455C12.9947 23.1535 12.5714 23.5344 12.0635 23.5344ZM15.0264 23.1111C14.6455 23.1111 14.3068 22.8571 14.1799 22.4762C14.0529 22.0106 14.3068 21.545 14.7725 21.3757C15.1111 21.291 15.4497 21.164 15.7883 20.9947C16.2539 20.8254 16.7619 21.037 16.9312 21.4603C17.1005 21.9259 16.8889 22.4339 16.4656 22.6031C16.0847 22.7725 15.6614 22.8995 15.2381 23.0265C15.1534 23.1111 15.0688 23.1111 15.0264 23.1111ZM7.99999 22.7301C7.87301 22.7301 7.78837 22.7301 7.66138 22.6455C7.28042 22.4762 6.85714 22.3069 6.51852 22.0953C6.09523 21.8413 5.92592 21.3333 6.17989 20.91C6.43386 20.4868 6.9418 20.3174 7.36505 20.5714C7.70374 20.7407 7.99999 20.91 8.33861 21.037C8.80421 21.2063 9.0159 21.7143 8.80421 22.1799C8.67722 22.5185 8.38096 22.7301 7.99999 22.7301ZM18.6667 21.2063C18.4127 21.2063 18.1587 21.0794 17.9894 20.8677C17.6931 20.4868 17.7355 19.9365 18.1164 19.6402C18.4127 19.4286 18.6667 19.1746 18.9206 18.9206C19.2592 18.582 19.8095 18.582 20.1482 18.9206C20.4868 19.2592 20.4868 19.8095 20.1482 20.1482C19.8518 20.4444 19.5132 20.7407 19.1746 20.9947C19.0476 21.164 18.8783 21.2063 18.6667 21.2063ZM4.57142 20.4444C4.35979 20.4444 4.10582 20.3598 3.9365 20.1904C3.64021 19.8942 3.34391 19.5556 3.08995 19.217C2.79365 18.836 2.83598 18.2857 3.21693 17.9894C3.59788 17.6931 4.14814 17.7355 4.44444 18.1164C4.65608 18.4127 4.91005 18.6667 5.16402 18.9206C5.50265 19.2592 5.50265 19.8095 5.16402 20.1482C5.03703 20.3598 4.78307 20.4444 4.57142 20.4444ZM21.3333 18.0741C21.2063 18.0741 21.037 18.0317 20.91 17.9471C20.4868 17.6931 20.3174 17.1851 20.5714 16.7619C20.7407 16.4656 20.91 16.127 21.037 15.7883C21.2063 15.3227 21.7143 15.1111 22.1799 15.3227C22.6455 15.4921 22.8571 16 22.6455 16.4656C22.4762 16.8465 22.3069 17.2699 22.0953 17.6085C21.9683 17.9047 21.6719 18.0741 21.3333 18.0741ZM2.28571 17.0159C1.94709 17.0159 1.60846 16.8043 1.48148 16.4656C1.31217 16.0847 1.14286 15.6614 1.0582 15.2381C0.931218 14.7725 1.18518 14.3068 1.65079 14.1376C2.1164 14.0106 2.58201 14.2646 2.75132 14.7302C2.83598 15.0688 2.96296 15.4074 3.13227 15.746C3.30158 16.2117 3.08995 16.7195 2.66666 16.8889C2.49735 16.9735 2.37037 17.0159 2.28571 17.0159ZM22.6031 14.1376C22.5609 14.1376 22.5185 14.1376 22.5185 14.1376C22.0529 14.0952 21.7143 13.672 21.7566 13.164C21.7989 12.8254 21.7989 12.4444 21.7989 12.0635C21.7989 11.5979 22.1799 11.1746 22.6879 11.1746C23.1535 11.1746 23.5767 11.5555 23.5767 12.0212H22.6879H23.5767C23.5767 12.4868 23.5344 12.91 23.4921 13.3334C23.4074 13.799 23.0265 14.1376 22.6031 14.1376ZM1.48148 12.9524C1.01587 12.9524 0.59259 12.5714 0.59259 12.1058C0.59259 11.6825 0.634918 11.2593 0.677246 10.8359C0.719573 10.3703 1.14286 10.0317 1.65079 10.0741C2.1164 10.1164 2.49735 10.5397 2.4127 11.0476C2.37037 11.3863 2.37037 11.7672 2.37037 12.1058C2.32804 12.5291 1.94709 12.9524 1.48148 12.9524ZM22.2223 9.9471C21.8413 9.9471 21.5027 9.69312 21.3757 9.31216C21.291 8.97355 21.164 8.63493 20.9947 8.29632C20.8254 7.83065 21.037 7.32277 21.4603 7.15343C21.9259 6.98412 22.4339 7.19578 22.6031 7.61903C22.7725 7.99999 22.8995 8.42331 23.0265 8.84656C23.1535 9.31216 22.8995 9.77776 22.4339 9.9471C22.3915 9.9471 22.3069 9.9471 22.2223 9.9471ZM2.24338 8.88891C2.1164 8.88891 2.03174 8.88891 1.90476 8.8042C1.43915 8.63493 1.22751 8.12698 1.43915 7.66138C1.60846 7.28042 1.77778 6.85714 1.98941 6.51852C2.24338 6.09523 2.75132 5.92592 3.1746 6.17989C3.59788 6.43386 3.76719 6.9418 3.51322 7.36505C3.34391 7.70373 3.1746 7.99999 3.04762 8.3386C2.92063 8.67722 2.58201 8.88891 2.24338 8.88891ZM20.3174 6.30688C20.0635 6.30688 19.8095 6.17989 19.6402 5.96825C19.4286 5.67196 19.1746 5.41799 18.9206 5.16402C18.582 4.82539 18.582 4.27513 18.9206 3.9365C19.2592 3.59788 19.8095 3.59788 20.1482 3.9365C20.4444 4.2328 20.7407 4.57142 20.9947 4.91005C21.291 5.291 21.2487 5.84126 20.8677 6.13757C20.6984 6.22222 20.5291 6.30688 20.3174 6.30688ZM4.5291 5.46031C4.31746 5.46031 4.06349 5.37566 3.89418 5.20634C3.55555 4.86773 3.55555 4.31745 3.89418 3.97884C4.19047 3.68253 4.5291 3.38624 4.86773 3.13227C5.24868 2.83598 5.79894 2.8783 6.09523 3.25926C6.39154 3.64021 6.3492 4.19047 5.96825 4.48677C5.67196 4.69841 5.41799 4.95237 5.16402 5.20634C4.99471 5.37566 4.78307 5.46031 4.5291 5.46031ZM17.1429 3.64021C17.0159 3.64021 16.8465 3.59788 16.7195 3.51322C16.3809 3.34391 16.0847 3.1746 15.746 3.04761C15.2804 2.8783 15.0688 2.37037 15.2804 1.90476C15.4497 1.43915 15.9577 1.22751 16.4233 1.43915C16.8043 1.60846 17.2275 1.77778 17.5661 1.98941C17.9894 2.20106 18.1587 2.75132 17.9048 3.1746C17.7778 3.4709 17.4815 3.64021 17.1429 3.64021ZM7.99999 3.13227C7.66138 3.13227 7.32277 2.92063 7.19578 2.58201C7.02646 2.1164 7.23806 1.60846 7.66138 1.43915C8.04235 1.26984 8.46559 1.14286 8.88891 1.01587C9.35451 0.888886 9.82011 1.14286 9.98938 1.60846C10.1587 2.07407 9.86246 2.53968 9.39679 2.70899C9.05818 2.79365 8.71957 2.92063 8.38096 3.08995C8.21162 3.13227 8.08463 3.13227 7.99999 3.13227ZM13.2064 2.41269C13.164 2.41269 13.164 2.41269 13.1217 2.41269C12.7831 2.37037 12.4021 2.37037 12.0635 2.37037C11.5979 2.37037 11.1746 1.98941 11.1746 1.48148C11.1746 1.01587 11.5555 0.59259 12.0212 0.59259C12.0212 0.59259 12.0635 0.59259 12.1058 0.59259C12.4868 0.59259 12.91 0.634918 13.3334 0.677246C13.799 0.719573 14.1799 1.14286 14.0952 1.65079C14.0529 2.07407 13.672 2.41269 13.2064 2.41269Z" fill="white"/> </svg>