<svg xmlns="http://www.w3.org/2000/svg" width="194" height="65" viewBox="0 0 194 65"><g><g clip-path="url(#clip-EFCF30DE-A45B-4374-B388-A27CD0D97D52)"><path fill="#002e43" d="M194 25.415c-.244 2.242-1.169 4.436-2.63 6.045a7.898 7.898 0 0 0-2.533-.39c-1.314 0-2.532.292-3.311.731l-2.922 16.673a24.148 24.148 0 0 1-3.702.292c-1.217 0-2.386-.097-3.555-.292l3.75-21.499c1.607-1.024 5.065-2.486 9.156-2.486 2.533 0 4.48.292 5.747.926zm-21.662 20.572c-2.143 1.804-5.65 3.315-9.984 3.315-6.77 0-10.958-3.363-10.958-10.286 0-8.385 5.503-14.332 13.052-14.332 6.04 0 9.449 2.973 9.449 7.263 0 5.655-5.212 7.557-10.18 7.557-1.655 0-3.36-.195-5.016-.634 0 3.559 1.559 4.875 4.92 4.875 2.434 0 4.236-.975 6.038-2.34 1.802 1.024 2.63 2.779 2.679 4.582zm-13.198-11.26c1.607.39 3.02.487 4.09.535 2.29 0 3.605-1.023 3.605-2.778 0-1.317-1.023-2.39-2.874-2.39-2.532 0-4.09 1.805-4.821 4.632zm-22.06 9.505c0-.877.146-2.193.292-2.876l4.383-24.813c1.315-.244 2.582-.293 3.75-.293 1.218 0 2.436.049 3.507.293l-4.286 24.18c-.049.243-.097.438-.097.73 0 .683.438 1.073 1.12 1.073.487 0 .73-.097 1.217-.536 1.559 1.316 2.143 3.12 2.095 5.362-1.267.975-3.36 1.804-5.942 1.804-4.091 0-6.04-1.901-6.04-4.924zm-14.791 0c0-.877.146-2.193.292-2.876l4.383-24.813c1.315-.244 2.581-.293 3.75-.293 1.218 0 2.435.049 3.507.293l-4.286 24.18c-.049.243-.098.438-.098.73 0 .683.439 1.073 1.12 1.073.488 0 .731-.097 1.218-.536 1.559 1.316 2.143 3.12 2.094 5.362-1.266.975-3.36 1.804-5.941 1.804-4.091 0-6.04-1.901-6.04-4.924zm-3.886 1.755c-2.143 1.804-5.65 3.315-9.984 3.315-6.77 0-10.958-3.363-10.958-10.286 0-8.385 5.503-14.332 13.052-14.332 6.04 0 9.449 2.973 9.449 7.263 0 5.655-5.212 7.557-10.18 7.557-1.655 0-3.36-.195-5.016-.634 0 3.559 1.559 4.875 4.92 4.875 2.434 0 4.236-.975 6.038-2.34 1.802 1.024 2.63 2.779 2.68 4.582zm-13.198-11.26c1.607.39 3.02.487 4.09.535 2.29 0 3.605-1.023 3.605-2.778 0-1.317-1.023-2.39-2.874-2.39-2.532 0-4.09 1.805-4.821 4.632zm-8.708-9.02v1.024c0 1.853-.487 3.364-1.072 4.924h-7.11l-1.364 7.849c-.097.487-.195.877-.195 1.413 0 1.512.926 2.097 2.338 2.097 1.217 0 2.192-.585 2.922-1.17 1.461.926 2.581 2.973 2.581 4.875-1.85 1.413-4.724 2.486-7.938 2.486-4.189 0-7.354-1.706-7.354-6.338 0-.682.048-1.413.194-2.193l1.608-9.019h-3.994c0-.829.097-1.804.243-2.73.147-1.17.439-2.243.78-3.218h3.993l1.072-6.093a25.266 25.266 0 0 1 3.75-.293c1.218 0 2.386.098 3.507.293l-1.072 6.093zM21.057 4.825a15.909 15.909 0 0 1 22.823 0l16.33 16.67c6.303 6.432 6.303 16.862 0 23.295L43.88 60.174a15.907 15.907 0 0 1-22.823 0L4.727 44.79c-6.303-6.433-6.303-16.863 0-23.296zm.467 17.549c-1.053 0-1.953.375-2.698 1.125-.744.75-1.116 1.657-1.116 2.718 0 1.06.372 1.967 1.116 2.717.745.75 1.645 1.125 2.698 1.125H42.9c1.054 0 1.953-.375 2.698-1.125.745-.75 1.116-1.657 1.115-2.717.001-1.061-.371-1.968-1.115-2.718l-8.945-9.014c-.746-.75-1.645-1.126-2.698-1.126s-1.953.376-2.698 1.126c-.744.75-1.116 1.657-1.116 2.717 0 1.062.372 1.969 1.116 2.719l2.436 2.453zm6.768 28.14c.746.751 1.645 1.127 2.7 1.127 1.054 0 1.954-.376 2.698-1.126.746-.75 1.118-1.656 1.118-2.718 0-1.061-.372-1.967-1.118-2.717l-2.435-2.454H43.41a3.667 3.667 0 0 0 2.699-1.125c.745-.75 1.117-1.656 1.117-2.718 0-1.06-.372-1.967-1.117-2.717-.746-.75-1.646-1.126-2.7-1.125H22.04c-1.054 0-1.955.375-2.7 1.125-.745.75-1.117 1.656-1.116 2.717-.001 1.062.371 1.968 1.116 2.718z"/></g></g></svg>