<svg xmlns="http://www.w3.org/2000/svg" width="272" height="54" viewBox="0 0 272 54"><g><g clip-path="url(#clip-87991F24-DEB9-4D7C-9ED1-8783CF3CEC27)"><path fill="#053724" d="M43.63 26.993a13.235 13.235 0 0 1 7.323 1.804c6.402 3.738 8.587 12.002 4.881 18.46-3.706 6.456-11.9 8.661-18.3 4.923a13.396 13.396 0 0 1-5.199-5.506l8.589 2.302c9.135 2.45 15.618-8.848 8.964-15.617zM7.746 33.36c-6.65 6.776-.159 18.068 8.974 15.612l8.588-2.308a13.4 13.4 0 0 1-5.195 5.51c-6.4 3.742-14.594 1.543-18.304-4.912C-1.9 40.808.28 32.542 6.677 28.8A13.236 13.236 0 0 1 14 26.99zM37.75 12.154c-2.475-9.201-15.415-9.201-17.89 0l-2.327 8.651a13.53 13.53 0 0 1-2.12-7.297C15.413 6.048 21.408 0 28.805 0c7.396 0 13.392 6.048 13.392 13.508a13.53 13.53 0 0 1-2.12 7.297zm223.472 5.636c6.437 0 10.777 4.279 10.777 10.574 0 1.082-.146 2.214-.244 2.853h-15.702c.195 3 2.584 4.87 5.9 4.87 2.634 0 5.17-1.181 6.34-3.001l3.413 3.64c-1.999 2.754-5.705 4.525-10.094 4.525-7.168 0-11.752-4.722-11.752-11.805 0-6.984 4.584-11.656 11.362-11.656zm4.584 9.148c-.098-2.41-1.95-4.033-4.78-4.033-2.779 0-4.68 1.623-4.924 4.033zM239.222 9.084h6.193V40.61h-6.193zm-4.441 20.46c0 7.034-4.389 11.707-10.875 11.707-2.828 0-5.314-1.033-6.778-2.558v1.918h-6.193V9.084h6.193v11.214c1.415-1.525 3.95-2.508 6.73-2.508 6.534 0 10.923 4.672 10.923 11.755zm-6.389 0c0-3.688-2.34-6.098-5.9-6.098-2.34 0-4.437 1.131-5.364 2.901v6.345c.878 1.722 2.975 2.902 5.365 2.902 3.559 0 5.9-2.46 5.9-6.05zm-22.808-2.262v13.33h-6.193V28.265c0-3.197-1.365-4.771-3.95-4.771-2.146 0-3.803.935-4.68 2.508.048.394.048.837.048 1.28V40.61h-6.242V28.266c0-3.197-1.366-4.771-3.95-4.771-2.096 0-3.755.935-4.632 2.41V40.61h-6.193V18.527h6.193v1.525c1.511-1.426 3.754-2.262 6.29-2.262 2.974 0 5.315 1.18 6.827 3.295 1.658-1.968 4.632-3.295 7.753-3.295 5.462 0 8.729 3.64 8.729 9.492zm-50.982-9.492c6.437 0 10.776 4.279 10.776 10.574 0 1.082-.146 2.214-.244 2.853h-15.701c.195 3 2.584 4.87 5.9 4.87 2.633 0 5.17-1.181 6.34-3.001l3.413 3.64c-2 2.754-5.705 4.525-10.094 4.525-7.169 0-11.752-4.722-11.752-11.805 0-6.984 4.583-11.656 11.362-11.656zm4.583 9.148c-.097-2.41-1.95-4.033-4.778-4.033-2.78 0-4.682 1.623-4.926 4.033zm-37.612 11.706l1.707-4.476c1.95 1.426 4.68 2.214 7.168 2.214 2.096 0 3.316-.59 3.316-1.919 0-1.524-1.268-1.77-2.292-2.016l-3.316-.886c-3.218-.885-6.144-2.36-6.144-6.64 0-4.23 3.608-7.131 9.021-7.131 2.974 0 6.242.836 8.29 2.115l-1.707 4.475c-1.56-1.032-3.999-1.77-6.242-1.77-2.194 0-3.072.787-3.072 1.918 0 1.328 1.17 1.574 2.292 1.869l3.804.984c4.193 1.082 5.802 3.394 5.802 6.541 0 4.624-3.803 7.329-9.606 7.329-3.56 0-6.973-.984-9.02-2.607zm-21.762 0l1.706-4.476c1.95 1.426 4.682 2.214 7.168 2.214 2.097 0 3.316-.59 3.316-1.919 0-1.524-1.268-1.77-2.292-2.016l-3.316-.886c-3.218-.885-6.144-2.36-6.144-6.64 0-4.23 3.61-7.131 9.021-7.131 2.975 0 6.242.836 8.29 2.115l-1.707 4.475c-1.56-1.032-3.998-1.77-6.241-1.77-2.195 0-3.072.787-3.072 1.918 0 1.328 1.17 1.574 2.292 1.869l3.803.984c4.194 1.082 5.803 3.394 5.803 6.541 0 4.624-3.804 7.329-9.606 7.329-3.56 0-6.974-.984-9.021-2.607zm-3.918-20.117v22.084H89.7v-1.918c-1.463 1.525-3.998 2.558-6.826 2.558-6.437 0-10.826-4.673-10.826-11.706 0-7.083 4.389-11.755 10.874-11.755 2.78 0 5.315.983 6.778 2.508v-1.77zM89.7 32.594v-6.148c-.878-1.82-2.974-3-5.364-3-3.56 0-5.949 2.41-5.949 6.099 0 3.59 2.39 6.05 5.95 6.05 2.389 0 4.534-1.23 5.363-3.001z"/></g></g></svg>