<svg width="119" height="42" viewBox="0 0 119 42" fill="none" xmlns="http://www.w3.org/2000/svg">
<path d="M6.8892 2.45454V33H0.535511V2.45454H6.8892ZM10.6327 33V10.0909H16.9864V33H10.6327ZM13.8245 7.13778C12.8898 7.13778 12.0844 6.82457 11.4083 6.19815C10.7321 5.56179 10.3941 4.80114 10.3941 3.91619C10.3941 3.03125 10.7321 2.27557 11.4083 1.64915C12.0844 1.02273 12.8898 0.709515 13.8245 0.709515C14.7691 0.709515 15.5794 1.02273 16.2556 1.64915C16.9317 2.27557 17.2698 3.03125 17.2698 3.91619C17.2698 4.80114 16.9317 5.56179 16.2556 6.19815C15.5794 6.82457 14.7691 7.13778 13.8245 7.13778ZM20.8492 33V2.45454H27.2029V13.9389H27.3968C27.6852 13.3125 28.0928 12.6811 28.6198 12.0447C29.1468 11.4084 29.8428 10.8764 30.7079 10.4489C31.573 10.0114 32.6419 9.79261 33.9146 9.79261C35.595 9.79261 37.1362 10.2301 38.5382 11.1051C39.9402 11.9702 41.0637 13.2777 41.9089 15.0277C42.764 16.7678 43.1916 18.9503 43.1916 21.5753C43.1916 24.1307 42.7789 26.2884 41.9536 28.0483C41.1284 29.7983 40.0147 31.1257 38.6127 32.0305C37.2107 32.9254 35.6397 33.3729 33.8997 33.3729C32.6667 33.3729 31.6177 33.169 30.7526 32.7614C29.8975 32.3537 29.1965 31.8416 28.6497 31.2251C28.1127 30.5987 27.6951 29.9673 27.3968 29.331H27.1134V33H20.8492ZM27.0687 21.5455C27.0687 23.5838 27.4863 25.2244 28.3215 26.4673C29.1667 27.7003 30.3549 28.3168 31.8862 28.3168C33.4473 28.3168 34.6404 27.6903 35.4657 26.4375C36.291 25.1747 36.7036 23.544 36.7036 21.5455C36.7036 19.5568 36.291 17.946 35.4657 16.7131C34.6504 15.4702 33.4572 14.8487 31.8862 14.8487C30.345 14.8487 29.1568 15.4553 28.3215 16.6683C27.4863 17.8714 27.0687 19.4972 27.0687 21.5455ZM46.0849 41.5909V10.0909H52.3491V13.9389H52.6325C52.9209 13.3125 53.3286 12.6811 53.8555 12.0447C54.3825 11.4084 55.0786 10.8764 55.9436 10.4489C56.8087 10.0114 57.8776 9.79261 59.1503 9.79261C60.8307 9.79261 62.3719 10.2301 63.7739 11.1051C65.1759 11.9702 66.2994 13.2777 67.1446 15.0277C67.9997 16.7678 68.4273 18.9503 68.4273 21.5753C68.4273 24.1307 68.0146 26.2884 67.1893 28.0483C66.3641 29.7983 65.2504 31.1257 63.8484 32.0305C62.4464 32.9254 60.8754 33.3729 59.1354 33.3729C57.9024 33.3729 56.8534 33.169 55.9884 32.7614C55.1332 32.3537 54.4322 31.8416 53.8854 31.2251C53.3484 30.5987 52.9308 29.9673 52.6325 29.331H52.4386V41.5909H46.0849ZM52.3044 21.5455C52.3044 23.5838 52.722 25.2244 53.5572 26.4673C54.4024 27.7003 55.5906 28.3168 57.1219 28.3168C58.683 28.3168 59.8761 27.6903 60.7014 26.4375C61.5267 25.1747 61.9393 23.544 61.9393 21.5455C61.9393 19.5568 61.5267 17.946 60.7014 16.7131C59.8861 15.4702 58.6929 14.8487 57.1219 14.8487C55.5807 14.8487 54.3925 15.4553 53.5572 16.6683C52.722 17.8714 52.3044 19.4972 52.3044 21.5455ZM71.2573 33V28.3466L82.1301 18.2791C83.5222 16.9467 84.5811 15.7884 85.307 14.804C86.0328 13.8196 86.3957 12.7209 86.3957 11.5078C86.3957 10.1655 85.9483 9.10653 85.0534 8.33096C84.1685 7.54545 83.0548 7.1527 81.7125 7.1527C80.3205 7.1527 79.1969 7.57528 78.3418 8.42045C77.4966 9.25568 77.079 10.4041 77.0889 11.8658H70.959C70.959 9.86719 71.4114 8.1321 72.3162 6.66051C73.221 5.18892 74.4838 4.05043 76.1046 3.24503C77.7352 2.43963 79.6195 2.03693 81.7573 2.03693C83.9448 2.03693 85.8489 2.42471 87.4696 3.20028C89.1003 3.96591 90.3681 5.02983 91.2729 6.39204C92.1777 7.74432 92.6301 9.3054 92.6301 11.0753C92.6301 12.2287 92.4014 13.3672 91.944 14.4908C91.4867 15.6143 90.6813 16.8622 89.5279 18.2344C88.3844 19.5966 86.7636 21.2322 84.6656 23.1413L80.2061 27.5114V27.7202H93.0328V33H71.2573ZM96.4258 41.5909V10.0909H102.69V13.9389H102.973C103.262 13.3125 103.669 12.6811 104.196 12.0447C104.723 11.4084 105.419 10.8764 106.285 10.4489C107.15 10.0114 108.218 9.79261 109.491 9.79261C111.172 9.79261 112.713 10.2301 114.115 11.1051C115.517 11.9702 116.64 13.2777 117.485 15.0277C118.341 16.7678 118.768 18.9503 118.768 21.5753C118.768 24.1307 118.356 26.2884 117.53 28.0483C116.705 29.7983 115.591 31.1257 114.189 32.0305C112.787 32.9254 111.216 33.3729 109.476 33.3729C108.243 33.3729 107.194 33.169 106.329 32.7614C105.474 32.3537 104.773 31.8416 104.226 31.2251C103.689 30.5987 103.272 29.9673 102.973 29.331H102.78V41.5909H96.4258ZM102.645 21.5455C102.645 23.5838 103.063 25.2244 103.898 26.4673C104.743 27.7003 105.932 28.3168 107.463 28.3168C109.024 28.3168 110.217 27.6903 111.042 26.4375C111.868 25.1747 112.28 23.544 112.28 21.5455C112.28 19.5568 111.868 17.946 111.042 16.7131C110.227 15.4702 109.034 14.8487 107.463 14.8487C105.922 14.8487 104.733 15.4553 103.898 16.6683C103.063 17.8714 102.645 19.4972 102.645 21.5455Z" fill="#064041"/>
</svg>
