<svg xmlns="http://www.w3.org/2000/svg" width="264" height="64" viewBox="0 0 264 64"><g><g clip-path="url(#clip-BADD3B34-EBEA-4E68-B307-CEBBA12D3D0E)"><g><path fill="#78be97" d="M43.535 31.68c2.318 8.563.116 18.095-6.607 24.818-6.723 6.723-16.255 8.925-24.818 6.607a37.759 37.759 0 0 0 20.795-10.63 37.759 37.759 0 0 0 10.63-20.795z"/></g><g><path fill="#fab266" d="M35.809 19.64c2.636 9.739.131 20.579-7.515 28.224C20.65 55.51 9.81 58.014.07 55.38a42.942 42.942 0 0 0 23.649-12.09 42.941 42.941 0 0 0 12.09-23.649z"/></g><g><path fill="#f1645d" d="M10.594 44.352c-2.636-9.738-.132-20.578 7.514-28.224 7.646-7.646 18.486-10.15 28.224-7.514a42.941 42.941 0 0 0-23.649 12.09 42.941 42.941 0 0 0-12.09 23.648z"/></g><g><path fill="#398689" d="M9.469 7.499C16.192.776 25.724-1.427 34.287.89a37.759 37.759 0 0 0-20.795 10.631 37.759 37.759 0 0 0-10.63 20.795C.542 23.754 2.745 14.222 9.468 7.499z"/></g><g><path fill="#fff" d="M77.879 25.714a1.94 1.94 0 0 1-.504.567c-.168.126-.39.189-.662.189-.241 0-.504-.073-.787-.22-.274-.158-.588-.331-.946-.52a7.087 7.087 0 0 0-1.196-.504 4.67 4.67 0 0 0-1.544-.236c-.997 0-1.743.215-2.236.645-.483.42-.725.993-.725 1.717 0 .462.147.845.441 1.15.294.304.677.567 1.15.787.483.22 1.029.426 1.638.615.62.178 1.25.383 1.89.614.64.22 1.265.483 1.874.787.62.305 1.166.693 1.638 1.166.483.472.872 1.05 1.166 1.732.294.672.44 1.486.44 2.442a7.97 7.97 0 0 1-.55 2.976 6.997 6.997 0 0 1-1.607 2.426c-.693.682-1.554 1.223-2.583 1.622-1.019.389-2.179.583-3.481.583-.714 0-1.444-.074-2.19-.22a13.523 13.523 0 0 1-2.141-.615 12.987 12.987 0 0 1-1.953-.96 8.298 8.298 0 0 1-1.591-1.23l1.575-2.488c.116-.189.278-.341.488-.456.21-.116.436-.174.678-.174.315 0 .63.1.945.3.325.199.687.42 1.086.661.41.242.877.462 1.402.662.525.199 1.145.299 1.858.299.967 0 1.717-.21 2.253-.63.535-.43.803-1.108.803-2.032 0-.535-.147-.971-.441-1.307-.294-.336-.683-.614-1.165-.835a10.382 10.382 0 0 0-1.622-.583 59.354 59.354 0 0 1-1.875-.551c-.64-.21-1.265-.462-1.874-.756a6.26 6.26 0 0 1-1.638-1.181c-.473-.494-.856-1.103-1.15-1.827-.294-.735-.441-1.638-.441-2.71a6.505 6.505 0 0 1 2.048-4.71c.672-.639 1.496-1.148 2.472-1.526.977-.389 2.095-.583 3.355-.583.703 0 1.386.058 2.047.173a9.937 9.937 0 0 1 1.906.489c.6.21 1.155.467 1.67.771.525.294.992.63 1.402 1.008z"/></g><g><path fill="#fff" d="M98.29 39.793c.714 0 1.349-.116 1.905-.347a3.937 3.937 0 0 0 1.433-1.024c.39-.44.683-.976.882-1.606.21-.64.315-1.365.315-2.174V21.05h5.324v13.592c0 1.407-.231 2.699-.693 3.875a8.597 8.597 0 0 1-1.953 3.04c-.85.85-1.885 1.512-3.103 1.984-1.218.473-2.588.709-4.11.709-1.534 0-2.909-.236-4.127-.709-1.218-.472-2.252-1.134-3.103-1.984a8.599 8.599 0 0 1-1.953-3.04c-.451-1.176-.677-2.468-.677-3.875V21.05h5.323v13.577c0 .808.1 1.533.3 2.173.21.63.509 1.17.897 1.622.389.441.862.783 1.418 1.024.567.231 1.208.347 1.921.347z"/></g><g><path fill="#fff" d="M123.5 25.035h3.126c.6 0 1.116.047 1.547.142.443.094.806.252 1.09.472.284.22.495.515.631.882.138.357.206.809.206 1.355 0 .556-.09 1.018-.268 1.386a1.96 1.96 0 0 1-.758.866c-.326.21-.727.357-1.2.44a9.17 9.17 0 0 1-1.595.127H123.5zm3.72 9.23c.673 0 1.23.062 1.671.188.441.126.794.305 1.056.536.273.23.463.514.568.85.115.336.173.714.173 1.134 0 .368-.047.73-.142 1.087a2.322 2.322 0 0 1-.52.96c-.252.284-.604.515-1.056.694-.442.178-1.014.268-1.718.268H123.5v-5.718zm.126 9.733c1.376 0 2.599-.173 3.67-.52 1.071-.357 1.969-.845 2.693-1.465a6.267 6.267 0 0 0 1.67-2.205c.378-.84.567-1.748.567-2.724 0-1.292-.363-2.347-1.087-3.166-.725-.83-1.843-1.428-3.355-1.796.693-.252 1.286-.546 1.78-.882.494-.346.898-.73 1.213-1.15a4.4 4.4 0 0 0 .693-1.338c.147-.483.22-.982.22-1.496 0-.945-.163-1.801-.488-2.568-.315-.766-.824-1.417-1.528-1.953-.704-.535-1.612-.95-2.724-1.244-1.114-.294-2.463-.441-4.048-.441h-8.442v22.948z"/></g><g><path fill="#fff" d="M158.218 25.714a1.94 1.94 0 0 1-.504.567c-.168.126-.388.189-.661.189-.242 0-.504-.073-.788-.22a30 30 0 0 0-.945-.52 7.087 7.087 0 0 0-1.197-.504 4.674 4.674 0 0 0-1.543-.236c-.998 0-1.743.215-2.237.645-.483.42-.725.993-.725 1.717 0 .462.148.845.442 1.15.294.304.677.567 1.15.787.482.22 1.028.426 1.637.615.62.178 1.25.383 1.89.614.64.22 1.265.483 1.875.787.62.305 1.165.693 1.638 1.166.483.472.87 1.05 1.165 1.732.294.672.441 1.486.441 2.442 0 1.06-.184 2.052-.551 2.976a6.997 6.997 0 0 1-1.607 2.426c-.692.682-1.554 1.223-2.583 1.622-1.018.389-2.178.583-3.48.583-.714 0-1.444-.074-2.19-.22a13.513 13.513 0 0 1-2.142-.615 12.985 12.985 0 0 1-1.953-.96 8.293 8.293 0 0 1-1.59-1.23l1.574-2.488c.116-.189.279-.341.49-.456a1.38 1.38 0 0 1 .676-.174c.315 0 .63.1.945.3.325.199.688.42 1.087.661.41.242.877.462 1.402.662.524.199 1.144.299 1.858.299.966 0 1.717-.21 2.252-.63.536-.43.804-1.108.804-2.032 0-.535-.147-.971-.442-1.307-.293-.336-.682-.614-1.165-.835a10.341 10.341 0 0 0-1.622-.583 58.733 58.733 0 0 1-1.874-.551c-.641-.21-1.266-.462-1.875-.756a6.27 6.27 0 0 1-1.638-1.181c-.472-.494-.855-1.103-1.15-1.827-.293-.735-.44-1.638-.44-2.71 0-.86.173-1.7.52-2.52a6.502 6.502 0 0 1 1.527-2.188c.672-.641 1.497-1.15 2.473-1.528.976-.389 2.095-.583 3.355-.583.703 0 1.385.058 2.047.173a9.937 9.937 0 0 1 1.906.489 9.34 9.34 0 0 1 1.67.771c.524.294.992.63 1.4 1.008z"/></g><g><path fill="#fff" d="M174.4 25.035h2.775c.673 0 1.251.084 1.734.252.494.168.9.41 1.214.724.326.305.568.672.725 1.103.158.43.237.908.237 1.433 0 1.187-.305 2.11-.915 2.772-.61.662-1.608.992-2.995.992h-2.774zm2.776 11.293c1.586 0 2.955-.19 4.11-.567 1.166-.389 2.127-.924 2.883-1.607a6.327 6.327 0 0 0 1.685-2.457c.368-.955.552-2.005.552-3.15 0-1.06-.179-2.047-.536-2.961a6.134 6.134 0 0 0-1.67-2.378c-.745-.672-1.7-1.197-2.866-1.575-1.155-.389-2.541-.583-4.158-.583h-8.096v22.948h5.324v-7.67z"/></g><g><path fill="#fff" d="M201.793 28.972c.158-.399.326-.871.504-1.417.179-.546.353-1.14.521-1.78.179.63.357 1.218.536 1.764.19.536.352 1.003.49 1.402l2.112 6.284h-6.276zm3.75-7.922h-5.45l-8.883 22.948h4.158c.441 0 .814-.116 1.119-.347.304-.241.509-.509.613-.803l1.356-4h8.724l1.356 4c.115.336.32.614.613.835.305.21.688.315 1.15.315h4.127z"/></g><g><path fill="#fff" d="M237.332 38.062c.126 0 .252.026.378.079.126.042.247.12.362.236l2.11 2.22a8.813 8.813 0 0 1-3.48 2.741c-1.386.61-3.029.914-4.93.914-1.743 0-3.307-.294-4.693-.882-1.375-.599-2.547-1.418-3.512-2.457-.955-1.05-1.69-2.29-2.205-3.717-.514-1.439-.772-2.998-.772-4.678 0-1.711.294-3.281.882-4.71.588-1.438 1.407-2.677 2.457-3.716 1.06-1.04 2.326-1.848 3.795-2.426 1.47-.577 3.093-.866 4.868-.866.86 0 1.67.079 2.425.236.767.147 1.48.357 2.142.63.661.263 1.27.583 1.827.961.557.368 1.05.777 1.48 1.229l-1.795 2.41a2.5 2.5 0 0 1-.41.409c-.157.115-.377.173-.66.173-.19 0-.369-.042-.537-.126a7.209 7.209 0 0 1-.535-.3c-.189-.125-.399-.256-.63-.393a3.799 3.799 0 0 0-.803-.394 5.86 5.86 0 0 0-1.087-.315 7.296 7.296 0 0 0-1.449-.126c-.966 0-1.848.174-2.646.52a5.752 5.752 0 0 0-2.063 1.465c-.567.63-1.014 1.396-1.339 2.3-.315.902-.472 1.916-.472 3.039 0 1.176.157 2.22.472 3.134.325.914.761 1.686 1.308 2.316a5.66 5.66 0 0 0 1.936 1.417 5.768 5.768 0 0 0 2.363.488c.483 0 .924-.02 1.323-.063.4-.052.766-.136 1.102-.252.347-.115.672-.262.977-.44.315-.19.63-.42.945-.694.126-.105.262-.189.41-.252.147-.073.299-.11.456-.11z"/></g><g><path fill="#fff" d="M263.974 21.05v4.095h-9.419V30.5h7.214v3.938h-7.214v5.465h9.419v4.095H249.2V21.05z"/></g></g></g></svg>