<svg xmlns="http://www.w3.org/2000/svg" width="161" height="62" viewBox="0 0 161 62"><g><g clip-path="url(#clip-C439426D-0A5D-4D36-8624-F748CD631806)"><path fill="#050c2a" d="M78.113 36.147c0 .758.213 1.303.64 1.634.427.331.974.496 1.643.496.551 0 1.003-.102 1.352-.307.358-.213.537-.559.537-1.036 0-.282-.077-.51-.232-.686-.145-.184-.374-.345-.683-.48a8.879 8.879 0 0 0-1.192-.44 76.685 76.685 0 0 1-1.745-.553 35.538 35.538 0 0 1-1.73-.599 5.959 5.959 0 0 1-1.41-.788 3.381 3.381 0 0 1-.96-1.14c-.222-.447-.333-1.001-.333-1.663 0-.759.15-1.415.45-1.971a3.8 3.8 0 0 1 1.264-1.372c.544-.36 1.193-.626 1.948-.802.82-.192 1.66-.285 2.501-.277 1.114 0 2.073.126 2.878.38.805.252 1.463.597 1.977 1.036.514.437.892.953 1.134 1.546.252.594.378 1.232.378 1.913h-4.492c0-.594-.155-1.057-.466-1.387-.3-.332-.76-.497-1.38-.497-.474 0-.882.108-1.22.321-.34.205-.51.516-.51.935 0 .282.077.511.233.686.165.166.402.316.712.453.31.136.693.277 1.149.423.455.136.978.301 1.57.496.64.175 1.235.37 1.787.583a6.123 6.123 0 0 1 1.454.789c.426.302.76.686 1.003 1.153.252.458.378 1.041.378 1.752 0 .837-.174 1.552-.524 2.145a4.225 4.225 0 0 1-1.41 1.43c-.58.37-1.259.633-2.034.79-.775.165-1.59.247-2.443.247-2.122 0-3.77-.443-4.943-1.328-1.162-.895-1.744-2.189-1.744-3.882zM87.882 29.958v-3.401h2.253V22.28h4.536v4.277h3.27v3.401h-3.27v5.152c0 .535.048.963.145 1.284.097.312.232.56.407.745.184.175.403.292.654.35.262.049.552.073.872.073.194 0 .441-.005.742-.015.3-.018.563-.048.784-.088v3.504c-.338.059-.765.112-1.279.16-.594.053-1.19.078-1.787.074-.534 0-1.095-.04-1.687-.117a3.88 3.88 0 0 1-1.643-.613c-.503-.332-.92-.837-1.25-1.518-.33-.69-.494-1.635-.494-2.832v-6.159zm12.21.788c.322-.88.811-1.688 1.44-2.38a6.986 6.986 0 0 1 2.166-1.59 6.182 6.182 0 0 1 2.675-.584c1.075 0 2.007.229 2.79.686.795.457 1.391 1.036 1.79 1.737v-2.06h4.549v14.408h-4.55v-2.03c-.36.663-.936 1.227-1.731 1.695-.794.467-1.743.7-2.848.7-.95 0-1.842-.194-2.675-.584a6.983 6.983 0 0 1-2.166-1.591 7.395 7.395 0 0 1-1.44-2.394 8.664 8.664 0 0 1-.508-3.007c0-1.08.17-2.081.508-3.006zm4.26 4.437c.174.448.408.837.698 1.168.3.32.66.583 1.076.788.417.195.882.292 1.395.292.514 0 .979-.097 1.396-.292a3.43 3.43 0 0 0 1.075-.788c.3-.331.533-.72.698-1.168.174-.448.262-.925.262-1.43 0-.497-.088-.964-.262-1.401a3.726 3.726 0 0 0-.698-1.168 3.102 3.102 0 0 0-1.061-.803c-.443-.2-.925-.3-1.41-.292-.514 0-.978.097-1.395.292-.41.19-.777.463-1.076.803-.291.34-.524.73-.698 1.168a3.927 3.927 0 0 0-.247 1.4c0 .497.082.974.247 1.43zm13.592-8.626h2.253V22.28h4.536v4.277h3.27v3.401h-3.27v5.152c0 .535.048.963.144 1.284.097.312.233.56.408.745.184.175.402.292.654.35.261.049.553.073.872.073.194 0 .441-.005.741-.014.301-.02.563-.05.785-.09v3.505c-.338.059-.765.112-1.279.16-.594.053-1.191.078-1.788.074-.533 0-1.095-.04-1.686-.117a3.883 3.883 0 0 1-1.643-.613c-.504-.332-.92-.837-1.25-1.518-.329-.69-.494-1.635-.494-2.832v-6.159h-2.253zm12.647 0h4.52v7.385c0 1.031.185 1.874.553 2.526.369.642 1.027.963 1.977.963.95 0 1.648-.326 2.093-.978.456-.661.684-1.553.684-2.67v-7.226h4.55v14.406h-4.55v-2.058c-.398.76-1.004 1.353-1.817 1.78-.815.429-1.789.642-2.922.642-.99 0-1.803-.155-2.443-.466a4.651 4.651 0 0 1-1.54-1.182 4.305 4.305 0 0 1-.902-1.927c-.136-.73-.203-1.61-.203-2.642zm21.776 9.59c0 .758.213 1.303.64 1.634.425.331.973.496 1.641.496.553 0 1.004-.102 1.353-.307.359-.213.537-.559.537-1.036 0-.282-.077-.51-.232-.686-.145-.184-.373-.345-.683-.48a8.948 8.948 0 0 0-1.192-.44 76.787 76.787 0 0 1-1.744-.553 35.385 35.385 0 0 1-1.73-.599 5.946 5.946 0 0 1-1.41-.788 3.385 3.385 0 0 1-.96-1.14c-.223-.447-.334-1.001-.334-1.663 0-.759.15-1.415.45-1.971a3.808 3.808 0 0 1 1.265-1.372c.543-.36 1.192-.626 1.948-.802.82-.192 1.66-.285 2.5-.277 1.114 0 2.074.126 2.879.38.804.252 1.463.597 1.977 1.036.514.437.89.953 1.133 1.546.255.605.383 1.256.378 1.913h-4.492c0-.594-.154-1.057-.465-1.387-.3-.332-.76-.497-1.38-.497-.476 0-.883.108-1.222.321-.339.205-.509.516-.509.935 0 .282.078.511.233.686.164.166.403.316.712.453.31.136.693.277 1.148.423.457.136.98.301 1.57.496.64.175 1.236.37 1.789.583a6.123 6.123 0 0 1 1.453.789c.427.302.761.686 1.004 1.153.251.458.378 1.041.378 1.752 0 .837-.176 1.552-.524 2.145a4.223 4.223 0 0 1-1.41 1.43c-.581.37-1.26.633-2.035.79-.776.165-1.59.247-2.442.247-2.123 0-3.77-.443-4.943-1.328-1.162-.895-1.744-2.189-1.744-3.882z"/></g><g clip-path="url(#clip-C439426D-0A5D-4D36-8624-F748CD631806)"><path fill="#4360df" d="M30.986 29.64c-1.553-.162-3.107-.324-5.018-.218-.916.051-1.889.182-2.813.398.563-6.836 5.565-12.819 12.367-13.197 4.174-.234 8.345 2.26 8.572 6.307.223 3.978-2.913 6.64-8.089 6.929-1.91.106-3.464-.056-5.019-.217zm-13.334 8.85c-.21-3.646 2.76-6.085 7.663-6.35 1.81-.098 3.283.05 4.755.2 1.473.147 2.945.296 4.754.199.87-.048 1.79-.166 2.666-.365-.533 6.266-5.271 11.75-11.717 12.097-3.954.215-7.906-2.071-8.12-5.781zM30.825 0C13.801 0 0 13.88 0 31c0 17.12 13.8 31 30.825 31s30.827-13.88 30.827-31c0-17.12-13.802-31-30.827-31"/></g></g></svg>