<svg width="68" height="24" viewBox="0 0 68 24" fill="none" xmlns="http://www.w3.org/2000/svg">
<path d="M3.66938 6.64523L0.595035 11.951C-0.198345 13.3394 -0.198345 15.0749 0.595035 16.4633L3.66938 21.769C4.46276 23.1575 5.95035 24.0004 7.5867 24.0004H13.6858C15.3222 24.0004 16.8097 23.1575 17.6031 21.7195L20.6279 16.4137C21.4213 15.0253 21.4213 13.2898 20.6279 11.9014L17.5535 6.59564C16.7602 5.20722 15.2726 4.36426 13.6362 4.36426H7.53711C5.95035 4.36426 4.46276 5.25681 3.66938 6.64523V6.64523Z" fill="#0B476D"/>
<path d="M6.9408 9.62012C6.9408 9.62012 5.55238 11.9507 5.65156 12.7936C5.8499 14.3804 6.9408 18.8928 6.9408 18.8928H7.2879L8.23004 14.8267C8.18045 14.8267 7.2879 13.0416 6.9408 9.62012V9.62012Z" fill="#FAB266"/>
<path d="M14.6281 9.66992C14.6281 9.66992 16.0165 12.0005 15.9174 12.8434C15.719 14.4302 14.6281 18.9426 14.6281 18.9426H14.281L13.3389 14.8765C13.3885 14.8765 14.3306 13.0914 14.6281 9.66992V9.66992Z" fill="#F1645D"/>
<path d="M10.8105 0.0498047C18.5956 9.02492 12.199 17.2562 12.199 17.2562H10.8105V0.0498047Z" fill="#398689"/>
<path d="M10.8099 0C3.02485 8.97511 9.42148 17.2064 9.42148 17.2064H10.8099V0Z" fill="#78BE97"/>
<path d="M25.2393 19.785V11.1074H30.5946V12.3471H26.5285V14.7272H29.1566V15.9669H26.5285V18.5949H30.8921V19.8346H25.2393V19.785Z" fill="#080E1A"/>
<path d="M40.0155 19.7849V15.9667C40.0155 14.975 39.6188 14.4791 38.875 14.4791C38.5279 14.4791 38.2304 14.6279 37.9825 14.8758C37.7346 15.1238 37.6354 15.5204 37.6354 16.0163V19.7353H36.3461V15.9171C36.3461 14.9254 35.9495 14.4295 35.2057 14.4295C34.8586 14.4295 34.561 14.5783 34.3131 14.8262C34.0652 15.0742 33.966 15.4709 33.966 15.9667V19.6857H32.6768V13.4378H33.966V14.0329C34.3131 13.537 34.8586 13.2891 35.5528 13.2891C36.3461 13.2891 36.8916 13.5866 37.2387 14.1816C37.6354 13.5866 38.2304 13.2891 39.123 13.2891C39.8172 13.2891 40.3626 13.4874 40.7593 13.8841C41.156 14.2808 41.4039 14.8758 41.4039 15.6692V19.7353H40.0155V19.7849Z" fill="#080E1A"/>
<path d="M44.4797 18.0001V15.2232C44.6284 15.0249 44.7772 14.8761 45.0251 14.7274C45.2731 14.5786 45.521 14.529 45.8185 14.529C46.2648 14.529 46.6615 14.7274 46.9094 15.0745C47.1573 15.4216 47.3061 15.9174 47.3061 16.6117C47.3061 17.2563 47.1573 17.7521 46.9094 18.1488C46.6615 18.4959 46.3144 18.6943 45.8185 18.6943C45.2235 18.6943 44.7772 18.4463 44.4797 18.0001V18.0001ZM47.9011 19.0414C48.3474 18.4463 48.5953 17.6034 48.5953 16.5621C48.5953 15.5208 48.3474 14.7274 47.8515 14.1323C47.4053 13.5373 46.7606 13.2398 45.9673 13.2398C45.3722 13.2398 44.8764 13.4381 44.4797 13.8844V10.8101L43.1904 11.4051V19.7852H44.4797V19.2893C44.8764 19.7356 45.3722 19.9339 45.9673 19.9339C46.7606 19.9339 47.4053 19.6364 47.9011 19.0414Z" fill="#080E1A"/>
<path d="M51.4205 18.4958C51.1726 18.3471 51.0734 18.0991 51.0734 17.8016C51.0734 17.4545 51.2222 17.2066 51.4701 17.0578C51.718 16.9091 52.0651 16.8099 52.4618 16.8099C52.9577 16.8099 53.404 16.9091 53.8007 17.1074V18.0991C53.404 18.5454 52.9081 18.7934 52.3131 18.7934C51.9164 18.7934 51.6189 18.6942 51.4205 18.4958ZM53.8007 19.8347H54.9411V15.719C54.9411 15.2231 54.8916 14.8265 54.7428 14.4794C54.594 14.1322 54.3957 13.8843 54.1478 13.7356C53.8998 13.5868 53.6519 13.4876 53.404 13.438C53.156 13.3885 52.8585 13.3389 52.561 13.3389C51.6189 13.3389 50.8255 13.5372 50.1809 13.9835L50.5776 15.0248C51.123 14.6281 51.718 14.4298 52.4123 14.4298C52.9081 14.4298 53.2552 14.5289 53.4536 14.7273C53.6519 14.9256 53.7511 15.2727 53.7511 15.719V16.0661C53.3544 15.7686 52.8089 15.6694 52.2139 15.6694C51.5197 15.6694 50.9247 15.8182 50.4784 16.2149C50.0321 16.6116 49.7842 17.1074 49.7842 17.8016C49.7842 18.4958 50.0321 19.0413 50.4288 19.3884C50.8751 19.7355 51.4205 19.9338 52.0651 19.9338C52.7594 19.9338 53.3544 19.6859 53.8007 19.2396V19.8347Z" fill="#080E1A"/>
<path d="M56.876 19.7849V13.4378H58.1652V14.2312C58.4627 13.6362 58.909 13.2891 59.6032 13.2891C59.9999 13.2891 60.347 13.4378 60.6445 13.6858L60.4462 14.8758C60.1487 14.6775 59.8016 14.5783 59.4545 14.5783C59.1074 14.5783 58.8098 14.7271 58.5619 14.975C58.314 15.2229 58.1652 15.6692 58.1652 16.2642V19.8344H56.876V19.7849Z" fill="#080E1A"/>
<path d="M67.1901 19.7844H65.8016L63.9174 16.1646L63.0744 16.958V19.7844H61.7852V11.4539L63.0744 10.8589V15.4208L64.9587 13.4374H66.5454L64.8099 15.2225L67.1901 19.7844Z" fill="#080E1A"/>
<path d="M17.009 22.4627C16.9594 22.4131 16.9098 22.3139 16.8602 22.2643C16.6619 22.1156 16.4635 22.066 16.2156 22.1652C16.1164 21.8677 15.8685 21.5701 15.5214 21.5701C15.2734 21.5701 15.0751 21.6693 14.9263 21.8181C14.6784 21.471 14.2321 21.1734 13.7363 21.1734H13.6371C13.5379 20.7272 13.2404 20.3801 12.8933 20.1321C12.1991 19.3883 12.1991 17.2065 12.1991 17.2065H9.32309C9.32309 17.2065 9.2735 19.3883 8.5793 20.1321C8.28178 20.3305 8.08343 20.628 7.98426 20.9255C7.78592 20.8263 7.58757 20.7768 7.33964 20.7272C6.64543 20.6776 6.00081 21.1239 5.75288 21.7685C5.65371 21.7189 5.55453 21.7189 5.45536 21.7189C5.15784 21.7189 4.86033 21.8677 4.71157 22.1156C4.66198 22.066 4.56281 22.066 4.46364 22.066C4.26529 22.066 4.06695 22.1652 3.96777 22.3139C4.26529 22.661 4.56281 22.909 4.90991 23.1569C5.10826 23.3057 5.3066 23.4048 5.50495 23.504C5.70329 23.6032 5.90164 23.6528 6.0504 23.7519C6.09998 23.7519 6.09998 23.7519 6.14957 23.8015C6.29833 23.8511 6.49667 23.9007 6.69502 23.9007H6.79419C6.99254 23.9503 7.24047 23.9503 7.43881 23.9503H13.5379C13.7363 23.9503 13.9346 23.9503 14.1825 23.9007H14.2321C14.8272 23.8015 15.4222 23.6032 15.9181 23.2561C16.4139 23.0577 16.7114 22.8098 17.009 22.4627V22.4627Z" fill="#9BDCD9"/>
<path d="M7.58817 23.9997H13.6873C14.1831 23.9997 14.679 23.9005 15.1253 23.7518C14.9269 23.3551 14.0344 22.76 13.6873 22.6113C12.5964 22.2146 13.0427 20.9749 11.9518 20.9749C11.2576 20.9749 10.96 18.9419 10.96 18.9419H10.6129C10.6129 18.9419 10.365 20.9253 9.6708 20.8758C8.28238 20.8262 9.17493 22.2642 7.53859 22.7105C6.49728 23.008 6.15017 23.4047 6.10059 23.7022C6.54686 23.8509 7.04273 23.9997 7.58817 23.9997V23.9997Z" fill="#D7F1F0"/>
<path d="M10.8088 9.0249C10.8088 9.0249 9.07331 11.0084 9.27165 11.9505C9.56917 13.5373 10.6601 18.8926 10.6601 18.8926H10.8088V9.0249Z" fill="#FAB266"/>
<path d="M10.8105 9.07422C10.8105 9.07422 12.5461 11.0577 12.3477 11.9998C12.0502 13.5866 10.9593 18.9419 10.9593 18.9419H10.8105V9.07422Z" fill="#F1645D"/>
</svg>
