<svg width="64" height="10" viewBox="0 0 64 10" fill="none" xmlns="http://www.w3.org/2000/svg">
<g clip-path="url(#clip0)">
<path d="M62.7595 4.69944C62.6337 3.845 61.8801 3.46528 61.0163 3.43361C60.1214 3.40194 59.4462 3.81333 59.4462 4.39861C59.4462 4.87361 59.8072 5.1425 60.4669 5.33222C60.8124 5.44306 61.2363 5.55389 61.8486 5.71194C63.1834 6.06 63.9999 6.58222 63.9999 7.75306C63.9999 9.20861 62.8066 10 61.1892 10C59.5875 10 58.3313 9.35139 58.0329 7.84806L59.242 7.6425C59.4617 8.54417 60.3098 8.92417 61.2363 8.92417C62.0841 8.92417 62.775 8.54417 62.775 7.81639C62.775 7.15194 62.2569 6.94611 61.5347 6.74056C61.0207 6.59601 60.5077 6.44832 59.9956 6.2975C59.0065 6.01278 58.2529 5.49056 58.2529 4.44611C58.2529 3.06972 59.5717 2.37333 60.985 2.37333C62.5866 2.37333 63.8115 3.18028 63.9686 4.47778L62.7595 4.69944ZM56.5726 2.57917V9.77861H55.5048V8.845C55.4199 8.96333 55.3253 9.07445 55.2222 9.17722C54.7512 9.68361 54.06 9.92083 53.4161 9.9525C52.6783 10 51.9244 9.87333 51.2966 9.33556C50.3541 8.57583 50.2443 7.31 50.2599 6.06V2.57917H51.4534V6.04417C51.4534 7.05694 51.5789 7.95889 52.207 8.46528C52.5525 8.75 53.0077 8.87639 53.5261 8.845C53.9658 8.82917 54.3583 8.68667 54.6725 8.41778C54.9864 8.14861 55.2064 7.73722 55.3006 7.26278C55.3632 6.97778 55.379 6.61389 55.379 6.26583V2.57917H56.5726ZM48.9566 6.17083C48.9566 8.33861 47.7475 9.98417 45.7533 9.98417C44.7797 9.98417 44.0258 9.60445 43.5077 8.97139V9.77861H42.4399V0.174167H43.6335V3.22778C44.1516 2.67417 44.8581 2.37333 45.7375 2.37333C47.7317 2.37333 48.9569 4.00306 48.9569 6.17083H48.9566ZM47.7004 6.17083C47.7004 4.65194 47.0252 3.46528 45.5649 3.46528C44.1674 3.46528 43.5077 4.58861 43.5077 6.17083C43.5077 7.75306 44.1516 8.8925 45.5962 8.8925C47.0094 8.8925 47.7004 7.70583 47.7004 6.17083V6.17083ZM40.7283 5.34806L40.7128 9.77861H39.535L39.5505 5.41139C39.5505 4.68361 39.5034 4.25639 39.0166 3.82917C38.7498 3.57583 38.373 3.43361 38.0117 3.43361C37.5408 3.43361 37.1011 3.63917 36.8027 3.98722C36.5043 4.36722 36.4414 4.74694 36.4414 5.19V5.34833L36.4259 9.77861H35.2481L35.2639 5.41139C35.2639 4.68361 35.2168 4.25639 34.73 3.82917C34.4629 3.57583 34.0861 3.43361 33.7249 3.43361C33.2539 3.43361 32.8142 3.63917 32.5158 3.98722C32.2174 4.36722 32.1545 4.74694 32.1545 5.19V9.77861H30.9612V2.57917H32.029V3.35444C32.5 2.73722 33.2536 2.38917 34.0232 2.38917C34.5729 2.38917 35.2168 2.5475 35.6562 2.94306C35.8555 3.12657 36.025 3.34005 36.1588 3.57583L36.2059 3.48111C36.6769 2.78472 37.4621 2.38944 38.2943 2.38944C38.844 2.38944 39.4879 2.5475 39.9276 2.94306C40.697 3.6075 40.7283 4.33556 40.7283 5.34806V5.34806ZM28.9828 0V1.23417H27.805V0H28.9828ZM27.805 2.57917H28.9825V9.77861H27.805V2.57917ZM25.9518 6.28167V9.77861H24.7582V6.32917C24.7582 5.30056 24.6485 4.41444 24.0204 3.90833C23.6749 3.62333 23.2197 3.49694 22.7013 3.51278C22.2774 3.54417 21.8846 3.67111 21.5707 3.94C21.241 4.22472 21.021 4.63611 20.9426 5.095C20.8484 5.52222 20.8484 6.07583 20.8484 6.61389V9.77861H19.6709V2.57917H20.7229V3.52861C20.8016 3.40194 20.9113 3.30694 21.0213 3.18028C21.4923 2.67417 22.1677 2.43667 22.8271 2.40528C23.5494 2.3575 24.3188 2.48417 24.9472 3.02194C25.8578 3.78167 25.9678 5.0475 25.952 6.28167H25.9518Z" fill="#ff9c00"/>
<path d="M12.283 4.51561L11.6425 4.45672C11.6524 4.38755 11.6524 4.31867 11.6524 4.24005C11.6524 2.9595 10.5913 1.91505 9.28997 1.91505V1.27505C10.9518 1.27505 12.303 2.60478 12.303 4.24005C12.303 4.32867 12.293 4.427 12.283 4.51561ZM15.0649 7.26061H14.4249C14.4249 6.78755 14.031 6.40311 13.5586 6.40311V5.76228C14.3856 5.76228 15.0649 6.43255 15.0649 7.26061V7.26061ZM2.76197 9.00283C1.78784 9.00283 1.00433 8.21505 1.00433 7.25783H1.65707C1.65707 7.86617 2.1494 8.35478 2.76197 8.35478V9.00283ZM13.4214 4.77811H13.381C13.391 4.64783 13.4012 4.50755 13.4012 4.37728C13.4012 2.112 11.5449 0.277832 9.25202 0.277832C7.55782 0.277832 6.0969 1.29005 5.45773 2.73339C5.09942 2.43314 4.64665 2.26978 4.17967 2.27228C3.08391 2.27228 2.20149 3.1445 2.20149 4.22672C2.20149 4.287 2.20149 4.347 2.21146 4.40728C0.943377 4.69783 0 5.82061 0 7.16367C0 8.72728 1.28831 10.0001 2.87086 10.0001H13.4214C13.5026 10.0001 13.5838 10.0001 13.6547 9.99005C15.0142 9.8695 16.0693 8.74728 16.0693 7.38394C16.0693 5.95061 14.8824 4.77811 13.4214 4.77811V4.77811Z" fill="#ff9c00"/>
</g>
<defs>
<clipPath id="clip0">
<rect width="64" height="10" fill="white"/>
</clipPath>
</defs>
</svg>
