<svg width="262" height="100" viewBox="0 0 262 100" fill="none" xmlns="http://www.w3.org/2000/svg"> <path fill-rule="evenodd" clip-rule="evenodd" d="M49.9016 0C22.3416 0 0 22.386 0 50C0 77.6142 22.3416 100 49.9016 100C77.4616 100 99.8033 77.6142 99.8033 50C99.8033 22.386 77.4616 0 49.9016 0Z" fill="#4360DF"/> <path fill-rule="evenodd" clip-rule="evenodd" d="M51.5771 47.8085C54.0829 48.0698 56.5888 48.3311 59.6693 48.1591C68.0162 47.6929 73.0722 43.4005 72.7134 36.984C72.3478 30.456 65.6212 26.434 58.8909 26.81C47.9227 27.4222 39.8572 37.0709 38.9489 48.0987C40.4384 47.7491 42.0063 47.5405 43.4847 47.4578C46.5657 47.286 49.0714 47.5471 51.5771 47.8085ZM30.0758 62.08C30.422 68.0643 36.7946 71.7511 43.1708 71.4063C53.5615 70.8449 61.203 62.0005 62.0634 51.8914C60.6522 52.212 59.1671 52.4036 57.7662 52.4791C54.8475 52.6369 52.4734 52.3974 50.0994 52.1578C47.7255 51.9183 45.3515 51.6787 42.4328 51.8365C34.5258 52.2638 29.7355 56.1985 30.0758 62.08Z" fill="white"/> <path d="M119.223 58.3025H126.436C126.436 59.5269 126.781 60.4056 127.47 60.9394C128.159 61.4729 129.044 61.7396 130.125 61.7396C131.018 61.7396 131.746 61.5749 132.31 61.2454C132.89 60.9 133.179 60.3429 133.179 59.5738C133.179 59.1187 133.054 58.7498 132.803 58.4674C132.569 58.1691 132.2 57.9102 131.699 57.6905C131.198 57.4549 130.556 57.2196 129.772 56.984C128.989 56.7487 128.05 56.4505 126.953 56.0896C125.966 55.7758 125.034 55.454 124.157 55.1242C123.295 54.7791 122.536 54.3554 121.878 53.8531C121.22 53.3509 120.703 52.7387 120.327 52.0169C119.967 51.2949 119.787 50.4002 119.787 49.3331C119.787 48.1087 120.029 47.0496 120.515 46.1549C121.001 45.2602 121.682 44.5225 122.559 43.9418C123.436 43.3611 124.486 42.9296 125.708 42.6469C126.929 42.3487 128.277 42.1996 129.749 42.1996C131.55 42.1996 133.101 42.4038 134.401 42.8118C135.701 43.2198 136.766 43.7769 137.597 44.4831C138.427 45.1896 139.038 46.0214 139.429 46.9787C139.837 47.936 140.04 48.964 140.04 50.0629H132.78C132.78 49.1054 132.529 48.3598 132.028 47.8262C131.543 47.2927 130.799 47.026 129.796 47.026C129.028 47.026 128.371 47.1987 127.822 47.5438C127.274 47.8734 127 48.3756 127 49.0505C127 49.5056 127.125 49.8745 127.376 50.1569C127.642 50.4238 128.026 50.6669 128.527 50.8869C129.028 51.1065 129.647 51.334 130.383 51.5696C131.12 51.7894 131.966 52.056 132.921 52.3698C133.955 52.6525 134.918 52.9662 135.811 53.3116C136.704 53.6569 137.487 54.0807 138.161 54.5829C138.85 55.0696 139.39 55.6894 139.782 56.4427C140.189 57.1805 140.393 58.122 140.393 59.2678C140.393 60.6176 140.111 61.7711 139.547 62.7285C138.983 63.6702 138.223 64.4391 137.268 65.0356C136.328 65.632 135.231 66.0558 133.978 66.3069C132.725 66.5736 131.409 66.7071 130.031 66.7071C126.601 66.7071 123.938 65.9931 122.042 64.5647C120.163 63.1209 119.223 61.0334 119.223 58.3025Z" fill="black"/> <path d="M142.225 48.3206V42.8353H145.867V35.9375H153.198V42.8353H158.485V48.3206H153.198V56.6311C153.198 57.4942 153.276 58.1848 153.433 58.7026C153.59 59.2051 153.809 59.6051 154.091 59.9033C154.388 60.1859 154.741 60.3742 155.148 60.4684C155.571 60.5468 156.041 60.5859 156.558 60.5859C156.871 60.5859 157.271 60.5782 157.756 60.5624C158.242 60.5313 158.665 60.4839 159.025 60.4213V66.0713C158.477 66.1655 157.788 66.2519 156.957 66.3304C156.143 66.4088 155.18 66.4479 154.068 66.4479C153.206 66.4479 152.297 66.3853 151.342 66.2597C150.386 66.1342 149.501 65.8046 148.687 65.2711C147.872 64.7373 147.199 63.9213 146.666 62.8226C146.134 61.7082 145.867 60.1859 145.867 58.2553V48.3206H142.225Z" fill="black"/> <path fill-rule="evenodd" clip-rule="evenodd" d="M161.962 49.592C161.413 51.0829 161.14 52.6995 161.14 54.4415C161.14 56.1838 161.413 57.8004 161.962 59.2913C162.526 60.7822 163.301 62.0693 164.288 63.1522C165.29 64.2351 166.457 65.0904 167.789 65.7182C169.136 66.346 170.577 66.66 172.112 66.66C173.898 66.66 175.433 66.2833 176.717 65.53C178.001 64.7767 178.933 63.8662 179.514 62.7991V66.0713H186.867V42.8353H179.514V46.1549C178.87 45.0249 177.908 44.0909 176.623 43.3531C175.354 42.6156 173.851 42.2469 172.112 42.2469C170.561 42.2469 169.12 42.5607 167.789 43.1884C166.457 43.8162 165.29 44.6716 164.288 45.7547C163.301 46.8218 162.526 48.1009 161.962 49.592ZM168.846 56.7487C168.58 56.0111 168.447 55.242 168.447 54.4415C168.447 53.6413 168.58 52.8878 168.846 52.1816C169.128 51.4753 169.504 50.8475 169.974 50.2982C170.459 49.7489 171.039 49.3173 171.713 49.0033C172.386 48.6896 173.138 48.5324 173.968 48.5324C174.814 48.5324 175.574 48.6896 176.247 49.0033C176.921 49.3173 177.493 49.7489 177.962 50.2982C178.448 50.8475 178.824 51.4753 179.09 52.1816C179.371 52.8878 179.514 53.6413 179.514 54.4415C179.514 55.2578 179.371 56.0269 179.09 56.7487C178.824 57.4707 178.448 58.0987 177.962 58.6322C177.493 59.15 176.913 59.5738 176.224 59.9033C175.55 60.2173 174.798 60.3742 173.968 60.3742C173.138 60.3742 172.386 60.2173 171.713 59.9033C171.039 59.5738 170.459 59.15 169.974 58.6322C169.504 58.0987 169.128 57.4707 168.846 56.7487Z" fill="black"/> <path d="M190.815 48.3206V42.8353H194.456V35.9375H201.788V42.8353H207.074V48.3206H201.788V56.6311C201.788 57.4942 201.866 58.1848 202.021 58.7026C202.178 59.2051 202.397 59.6051 202.68 59.9033C202.978 60.1859 203.329 60.3742 203.738 60.4684C204.16 60.5468 204.63 60.5859 205.147 60.5859C205.461 60.5859 205.86 60.5782 206.345 60.5624C206.831 60.5313 207.254 60.4839 207.614 60.4213V66.0713C207.066 66.1655 206.377 66.2519 205.546 66.3304C204.732 66.4088 203.768 66.4479 202.656 66.4479C201.795 66.4479 200.886 66.3853 199.931 66.2597C198.975 66.1342 198.09 65.8046 197.275 65.2711C196.461 64.7373 195.787 63.9213 195.256 62.8226C194.723 61.7082 194.456 60.1859 194.456 58.2553V48.3206H190.815Z" fill="black"/> <path d="M211.257 56.6311V42.8353H218.564V54.7478C218.564 56.4113 218.861 57.7689 219.456 58.8204C220.052 59.8562 221.116 60.3742 222.653 60.3742C224.187 60.3742 225.315 59.8484 226.034 58.7969C226.771 57.7295 227.14 56.2935 227.14 54.4887V42.8353H234.493V66.0713H227.14V62.752C226.496 63.9762 225.517 64.9335 224.202 65.624C222.886 66.3147 221.312 66.66 219.48 66.66C217.881 66.66 216.566 66.4089 215.532 65.9067C214.515 65.4044 213.684 64.7687 213.042 63.9996C212.305 63.1051 211.82 62.0693 211.585 60.8922C211.365 59.7149 211.257 58.2947 211.257 56.6311Z" fill="black"/> <path d="M239.24 58.3025H246.453C246.453 59.5269 246.797 60.4056 247.488 60.9394C248.174 61.4729 249.06 61.7396 250.141 61.7396C251.033 61.7396 251.762 61.5749 252.328 61.2454C252.907 60.9 253.196 60.3429 253.196 59.5738C253.196 59.1187 253.072 58.7498 252.818 58.4674C252.585 58.1691 252.217 57.9102 251.715 57.6905C251.215 57.4549 250.572 57.2196 249.79 56.984C249.006 56.7487 248.065 56.4505 246.97 56.0896C245.982 55.7758 245.05 55.454 244.173 55.1242C243.312 54.7791 242.552 54.3554 241.895 53.8531C241.236 53.3509 240.721 52.7387 240.343 52.0169C239.984 51.2949 239.804 50.4002 239.804 49.3331C239.804 48.1087 240.046 47.0496 240.532 46.1549C241.018 45.2602 241.698 44.5225 242.574 43.9418C243.454 43.3611 244.502 42.9296 245.725 42.6469C246.946 42.3487 248.291 42.1996 249.766 42.1996C251.566 42.1996 253.116 42.4038 254.417 42.8118C255.718 43.2198 256.784 43.7769 257.614 44.4831C258.444 45.1896 259.053 46.0214 259.446 46.9787C259.854 47.936 260.056 48.964 260.056 50.0629H252.796C252.796 49.1054 252.548 48.3598 252.044 47.8262C251.56 47.2927 250.814 47.026 249.812 47.026C249.044 47.026 248.387 47.1987 247.839 47.5438C247.29 47.8734 247.017 48.3756 247.017 49.0505C247.017 49.5056 247.141 49.8745 247.392 50.1569C247.659 50.4238 248.043 50.6669 248.545 50.8869C249.044 51.1065 249.664 51.334 250.398 51.5696C251.138 51.7894 251.981 52.056 252.936 52.3698C253.971 52.6525 254.934 52.9662 255.827 53.3116C256.722 53.6569 257.503 54.0807 258.176 54.5829C258.866 55.0696 259.406 55.6894 259.799 56.4427C260.205 57.1805 260.409 58.122 260.409 59.2678C260.409 60.6176 260.127 61.7711 259.563 62.7285C258.999 63.6702 258.238 64.4391 257.283 65.0356C256.344 65.632 255.247 66.0558 253.995 66.3069C252.741 66.5736 251.426 66.7071 250.048 66.7071C246.617 66.7071 243.955 65.9931 242.059 64.5647C240.179 63.1209 239.24 61.0334 239.24 58.3025Z" fill="black"/> </svg>