<svg width="151" height="150" viewBox="0 0 151 150" fill="none" xmlns="http://www.w3.org/2000/svg"> <path d="M129.365 26.4991C128.44 27.2775 128.322 28.6635 129.099 29.5888C137.162 39.1711 142.531 50.7579 144.627 63.0977C144.654 63.2015 145.588 67.0297 145.577 72.4515C145.576 73.0415 145.583 73.633 145.59 74.2253C145.604 75.4136 145.617 76.6451 145.567 77.8703C144.847 95.6366 137.522 112.35 124.942 124.93C123.037 126.836 121 128.652 118.887 130.329C118.733 130.475 113.934 134.859 103.411 139.666C99.0365 141.665 94.0969 143.214 88.7258 144.272C88.3451 144.384 85.5976 145.153 80.7872 145.377C80.338 145.398 79.8873 145.43 79.4373 145.463C78.9197 145.5 78.4012 145.537 77.8813 145.558C60.2335 146.271 43.071 140.421 29.6013 129.089C29.2021 128.753 28.7091 128.573 28.1937 128.573C28.1299 128.573 28.066 128.576 28.0014 128.582C27.4176 128.632 26.8892 128.906 26.5108 129.355C26.1339 129.803 25.9547 130.371 26.0039 130.955C26.0547 131.539 26.3293 132.067 26.7777 132.444C40.2335 143.766 57.3506 150 74.9761 150H74.9869C76.0122 150 77.0475 149.98 78.0613 149.939C96.9282 149.176 114.679 141.395 128.043 128.032C141.406 114.668 149.187 96.9165 149.951 78.0473C150.709 59.2903 144.496 41.0787 132.455 26.7652C131.677 25.8407 130.291 25.7207 129.365 26.4991Z" fill="black"/> <path d="M149.95 78.046C149.186 96.9145 141.406 114.666 128.043 128.03C114.679 141.393 96.9276 149.174 78.0607 149.937C77.0469 149.978 76.0108 149.998 74.9855 149.998H74.9755C57.35 149.998 40.2329 143.764 26.7771 132.442C26.3287 132.066 26.0541 131.536 26.0033 130.953C25.9541 130.369 26.1333 129.802 26.5109 129.353C26.8886 128.905 27.417 128.63 28.0008 128.58C28.0654 128.574 28.1293 128.571 28.1931 128.571C28.7085 128.571 29.2023 128.751 29.6007 129.087C43.0704 140.419 60.2329 146.269 77.8822 145.556C78.4029 145.535 78.9206 145.498 79.4375 145.461C79.8874 145.428 80.3374 145.395 80.7866 145.375C85.597 145.153 88.3452 144.384 88.726 144.27C94.0971 143.212 99.0374 141.662 103.411 139.664C113.933 134.857 118.732 130.474 118.887 130.327C121 128.65 123.038 126.834 124.942 124.929C137.523 112.349 144.848 95.6346 145.568 77.8676C145.617 76.6431 145.604 75.4124 145.59 74.2233C145.583 73.631 145.576 73.0395 145.577 72.4496C145.588 67.0277 144.655 63.1995 144.627 63.0957C142.531 50.7559 137.161 39.1684 129.099 29.5868C128.32 28.6615 128.44 27.2755 129.364 26.4971C130.29 25.7187 131.677 25.8379 132.454 26.7609C144.495 41.0767 150.709 59.2891 149.95 78.046Z" fill="black"/> <path d="M102.364 141.933C102.628 141.758 105.428 135.257 105.471 134.944L107.639 118.902C107.651 118.809 107.676 118.718 107.712 118.63L110.556 111.718L114.853 101.324C115.041 100.869 114.904 100.346 114.519 100.04L105.771 93.1178C105.535 92.9332 105.388 92.6609 105.358 92.364L104.558 84.3639C104.494 83.7216 104.992 83.1617 105.638 83.154L112.012 83.0678C112.251 83.064 112.483 83.1386 112.676 83.2793L118.808 87.7559C119.023 87.9128 119.287 87.9867 119.553 87.9636L127.21 87.3021C127.598 87.269 127.938 87.0337 128.107 86.6829L133.106 76.293C133.236 76.023 133.25 75.7138 133.147 75.4331L130.648 68.6936C130.568 68.4759 130.421 68.2898 130.228 68.1606L126.746 65.8338C126.053 65.3708 126.107 64.3339 126.844 63.9447L133.484 60.4435C133.651 60.3558 133.837 60.312 134.025 60.3173L137.483 60.4058C137.766 60.4127 138.035 60.5289 138.236 60.7296L141.14 63.6486C141.907 64.4201 145.905 62.3003 145.698 61.2327" stroke="black" stroke-width="5" stroke-miterlimit="10"/> <path d="M123.236 17.5571C109.709 6.17566 92.6924 0 75.0262 0C74.0032 0 72.9809 0.0207676 71.9533 0.0623027C53.0825 0.826088 35.3309 8.60623 21.9696 21.9698C8.6084 35.331 0.827488 53.0819 0.0613958 71.9519C-0.697005 90.7112 5.51557 108.924 17.5569 123.234C18.3053 124.124 19.7529 124.252 20.6467 123.501C21.0951 123.125 21.3697 122.596 21.4205 122.01C21.4697 121.426 21.2905 120.859 20.9136 120.411C9.57756 106.94 3.72879 89.7936 4.44489 72.1304C5.16406 54.3649 12.4904 37.6516 25.0717 25.0695C37.6515 12.489 54.3647 5.16497 72.131 4.44503C76.1053 4.28196 80.1327 4.45964 84.1031 4.97114L93.2093 6.75792C103.308 9.44771 112.445 14.2058 120.413 20.9137C120.861 21.2906 121.426 21.4667 122.013 21.4206C122.597 21.3706 123.125 21.0952 123.504 20.6468C124.281 19.7215 124.161 18.3355 123.236 17.5571Z" fill="black"/> <path d="M86.6683 3.82642C86.7099 3.91718 86.7622 4.00256 86.8252 4.0787L90.248 8.20837C90.4657 8.47066 90.5496 8.81909 90.4749 9.15137L88.7351 16.9146C88.6866 17.1261 88.5774 17.3192 88.4205 17.4692L86.5806 19.2283C86.093 19.6936 85.3077 19.6167 84.92 19.0667L79.0412 10.7274C78.832 10.4282 78.4844 10.2528 78.119 10.2613L70.6504 10.419C70.2427 10.4274 69.872 10.6613 69.6897 11.0258L66.2138 17.9491C66.1538 18.0691 66.1161 18.1983 66.1031 18.3314L65.24 26.78C65.1808 27.3499 65.57 27.8699 66.1346 27.9745L73.1394 29.2728C73.6871 29.3744 74.2247 29.0506 74.3909 28.5183L75.7807 24.0633C76.0492 23.2033 77.1799 23.0118 77.7167 23.7356L80.4396 27.4122C80.6188 27.653 80.6911 27.9568 80.6396 28.2529L79.7712 33.3225C79.6958 33.7632 79.3605 34.114 78.9243 34.2109L67.966 36.6346C67.506 36.7369 67.0322 36.5346 66.7868 36.1315L66.2915 35.3177C66.1407 35.0685 65.8961 34.8893 65.6131 34.8201L63.8371 34.3847C63.1433 34.2155 62.4741 34.7401 62.4741 35.4547V38.5729C62.4741 39.0144 62.2103 39.4128 61.8042 39.5859L56.7646 41.7311L52.2765 41.9964C51.4735 42.3018 48.2691 41.7103 49.5575 43.714L53.7487 45.5531C54.9386 46.876 54.9809 46.9145 55.0201 46.956L56.9607 49.022C57.6468 49.7527 57.0799 50.9449 56.08 50.8742L51.0081 49.3082C50.8666 49.2989 50.7251 49.3158 50.5905 49.3597L44.7632 51.2511C44.4686 51.3465 44.2279 51.5618 44.0994 51.8441L41.3404 57.9329C41.2197 58.199 41.2097 58.5028 41.3135 58.7766L42.8834 62.9232C43.0095 63.2547 43.2872 63.5055 43.6302 63.597L50.079 64.4531C50.4535 64.5531 50.8535 64.4485 51.1312 64.177L57.7153 61.4472C57.8145 61.3503 57.9306 61.2734 58.0583 61.2203L61.438 59.8012C61.6903 59.6958 61.8942 59.4996 62.0095 59.2527L63.8948 55.2208C64.0755 54.8339 64.4647 54.5862 64.8916 54.5862H66.8322C67.1637 54.5862 67.4768 54.7354 67.6852 54.9916L71.1188 59.202C71.3419 59.4758 71.4203 59.8389 71.3303 60.1804L69.8774 65.653C69.7074 66.2922 70.1358 66.936 70.7904 67.0267L73.4155 67.3882C73.9686 67.4644 74.4916 67.1144 74.6324 66.5737L75.5992 62.8409C75.71 62.4125 76.0676 62.0917 76.5053 62.0279L78.2298 61.7756C79.0836 61.651 79.4681 60.6388 78.9136 59.9781L75.2392 55.6007C74.7962 55.0731 74.94 54.2731 75.54 53.9347L77.3114 52.9317C77.6875 52.7187 78.1552 52.7456 78.5044 53.0009L83.0225 56.303C83.3263 56.5253 83.7232 56.5768 84.0747 56.4376L89.5343 54.2878C90.1142 54.0593 90.7672 54.3578 90.9757 54.9454L92.374 58.9028C92.5294 59.3435 92.9455 59.6373 93.4132 59.6373H101.503C101.975 59.6373 102.395 59.9388 102.546 60.3873L103.817 64.1654C103.937 64.5231 103.866 64.9169 103.63 65.21L102.005 67.216C101.845 67.4136 101.62 67.5505 101.371 67.6013L88.1205 70.3326C87.9136 70.3757 87.7236 70.4757 87.5736 70.6234L81.9264 76.1375C81.6457 76.4129 81.238 76.516 80.8588 76.4098L67.8845 72.7594C67.8121 72.7394 67.7437 72.7117 67.6775 72.6778L58.3768 67.8705C58.0568 67.7051 57.6768 67.7067 57.3576 67.8751L45.6585 74.0416C45.5185 74.1154 45.3963 74.2185 45.3001 74.3431L37.3246 84.6869C37.2769 84.7484 37.2361 84.8138 37.2031 84.883L32.425 94.8568C32.3534 95.0045 32.3165 95.1676 32.3165 95.3322V103.042C32.3165 103.307 32.4127 103.564 32.5865 103.764L43.5495 116.367C43.7118 116.553 43.9318 116.679 44.1748 116.726L61.2942 119.981L72.1226 121.734C72.4049 121.781 72.6587 121.934 72.8302 122.165L78.5482 129.859C78.6505 129.997 78.719 130.155 78.749 130.323C78.902 131.182 79.4804 134.184 80.8273 138.763L83.3294 141.932C83.4678 142.401 89.0658 145.923 89.555 145.923" stroke="black" stroke-width="5" stroke-miterlimit="10"/> <path d="M90.1811 91.8156C86.393 88.8213 80.958 89.142 77.5383 92.5625C74.1186 95.9815 73.7978 101.416 76.7922 105.205C76.8907 105.33 77.0345 105.395 77.1829 105.395C77.2906 105.395 77.3991 105.36 77.4898 105.288C77.7052 105.117 77.7414 104.805 77.5714 104.588C74.8901 101.196 75.1785 96.3283 78.2413 93.2655C81.3026 90.2027 86.1715 89.915 89.5635 92.5956C89.7796 92.7656 90.0927 92.7294 90.2619 92.514C90.4334 92.2987 90.3965 91.9848 90.1811 91.8156Z" fill="black"/> <path d="M90.1811 91.8156C86.393 88.8213 80.958 89.142 77.5383 92.5625C74.1186 95.9815 73.7978 101.416 76.7922 105.205C76.8907 105.33 77.0345 105.395 77.1829 105.395C77.2906 105.395 77.3991 105.36 77.4898 105.288C77.7052 105.117 77.7414 104.805 77.5714 104.588C74.8901 101.196 75.1785 96.3283 78.2413 93.2655C81.3026 90.2027 86.1715 89.915 89.5635 92.5956C89.7796 92.7656 90.0927 92.7294 90.2619 92.514C90.4334 92.2987 90.3965 91.9848 90.1811 91.8156Z" stroke="black" stroke-width="0.75" stroke-miterlimit="10"/> <path d="M84.2793 86.5801C77.2653 86.5801 71.5573 92.2881 71.5573 99.3021C71.5573 102.283 72.2141 105.252 73.5109 108.128C74.5447 110.42 75.9831 112.655 77.7875 114.774C80.8557 118.376 83.8801 120.367 84.007 120.449C84.0901 120.503 84.1839 120.53 84.2793 120.53C84.3747 120.53 84.4685 120.503 84.5516 120.449C84.6785 120.367 87.7029 118.376 90.7711 114.774C92.5756 112.655 94.0147 110.42 95.0484 108.128C96.3453 105.253 97.0021 102.283 97.0021 99.3021C97.0014 92.2881 91.2941 86.5801 84.2793 86.5801ZM94.1477 107.704C93.1563 109.906 91.771 112.061 90.0319 114.106C87.5744 116.997 85.0877 118.857 84.2793 119.428C83.4732 118.86 81.0003 117.011 78.5459 114.128C76.8007 112.08 75.4131 109.924 74.4178 107.718C73.1794 104.972 72.5518 102.141 72.5518 99.3021C72.5518 92.8365 77.8129 87.5754 84.2793 87.5754C90.7457 87.5754 96.0068 92.8365 96.0068 99.3021C96.0068 102.137 95.3823 104.962 94.1477 107.704Z" fill="#4360DF"/> <path d="M84.2793 86.5801C77.2653 86.5801 71.5573 92.2881 71.5573 99.3021C71.5573 102.283 72.2141 105.252 73.5109 108.128C74.5447 110.42 75.9831 112.655 77.7875 114.774C80.8557 118.376 83.8801 120.367 84.007 120.449C84.0901 120.503 84.1839 120.53 84.2793 120.53C84.3747 120.53 84.4685 120.503 84.5516 120.449C84.6785 120.367 87.7029 118.376 90.7711 114.774C92.5756 112.655 94.0147 110.42 95.0484 108.128C96.3453 105.253 97.0021 102.283 97.0021 99.3021C97.0014 92.2881 91.2941 86.5801 84.2793 86.5801ZM94.1477 107.704C93.1563 109.906 91.771 112.061 90.0319 114.106C87.5744 116.997 85.0877 118.857 84.2793 119.428C83.4732 118.86 81.0003 117.011 78.5459 114.128C76.8007 112.08 75.4131 109.924 74.4178 107.718C73.1794 104.972 72.5518 102.141 72.5518 99.3021C72.5518 92.8365 77.8129 87.5754 84.2793 87.5754C90.7457 87.5754 96.0068 92.8365 96.0068 99.3021C96.0068 102.137 95.3823 104.962 94.1477 107.704Z" stroke="#4360DF" stroke-width="0.75" stroke-miterlimit="10"/> <path d="M86.6813 96.7633C86.609 96.7148 84.8828 95.5924 82.055 96.1578C81.8234 96.204 81.6557 96.4086 81.6557 96.6456V97.1771C81.6557 97.451 81.8788 97.6741 82.1526 97.6741C82.4273 97.6741 82.6504 97.451 82.6504 97.1771V97.0648C83.715 96.9117 84.5574 97.0371 85.099 97.1794C85.7513 97.351 86.119 97.5833 86.1313 97.5918C86.2159 97.6471 86.3113 97.6741 86.4052 97.6741C86.566 97.6741 86.7237 97.5956 86.819 97.4517C86.9721 97.2248 86.9114 96.9156 86.6813 96.7633Z" fill="black"/> <path d="M86.6813 96.7633C86.609 96.7148 84.8828 95.5924 82.055 96.1578C81.8234 96.204 81.6557 96.4086 81.6557 96.6456V97.1771C81.6557 97.451 81.8788 97.6741 82.1526 97.6741C82.4273 97.6741 82.6504 97.451 82.6504 97.1771V97.0648C83.715 96.9117 84.5574 97.0371 85.099 97.1794C85.7513 97.351 86.119 97.5833 86.1313 97.5918C86.2159 97.6471 86.3113 97.6741 86.4052 97.6741C86.566 97.6741 86.7237 97.5956 86.819 97.4517C86.9721 97.2248 86.9114 96.9156 86.6813 96.7633Z" stroke="black" stroke-width="0.75" stroke-miterlimit="10"/> <path d="M91.7672 93.4007C91.5964 93.1861 91.2842 93.1491 91.0696 93.3199C90.8534 93.4899 90.818 93.8029 90.9873 94.0183C93.6686 97.4111 93.3809 102.278 90.3181 105.341C90.2573 105.402 90.195 105.461 90.1327 105.52C90.0266 105.457 89.9166 105.404 89.7981 105.36L87.2706 104.412C87.0514 104.329 86.9037 104.117 86.9037 103.882V102.608C87.0122 102.521 87.116 102.429 87.2168 102.331C88.0429 101.53 88.4975 100.455 88.4975 99.304V98.3587L88.6405 98.0734C88.8959 97.5649 89.0297 96.9942 89.0297 96.425V93.4576C89.0297 93.1837 88.8067 92.9607 88.5328 92.9607H82.9933C81.0834 92.9607 79.5305 94.5144 79.5305 96.4258C79.5305 96.9942 79.6651 97.5649 79.9197 98.0749L80.0612 98.3595V99.1487C80.0612 100.516 80.6873 101.754 81.6557 102.561V103.884C81.6557 104.119 81.5088 104.331 81.2888 104.414L79.3482 105.14C78.8498 105.327 78.4421 105.715 78.229 106.203C78.1391 106.41 78.1998 106.652 78.3775 106.792C80.1143 108.165 82.1972 108.841 84.2739 108.84C86.7253 108.84 89.1682 107.897 91.0203 106.046C94.4401 102.625 94.76 97.1896 91.7672 93.4007ZM81.0557 99.1471V98.2395C81.0557 98.1626 81.0396 98.0872 81.0042 98.0172L80.8096 97.6272C80.6242 97.2565 80.5258 96.8404 80.5258 96.422C80.5258 95.0605 81.6318 93.9537 82.994 93.9537H88.0352V96.4243C88.0352 96.8404 87.9367 97.2565 87.7506 97.6272L87.556 98.0172C87.5214 98.0872 87.5037 98.1626 87.5037 98.2395V99.3033C87.5037 100.183 87.1568 101.004 86.5253 101.617C85.8946 102.229 85.0623 102.552 84.1816 102.525C82.4572 102.473 81.0557 100.957 81.0557 99.1471ZM83.7824 107.829C82.231 107.741 80.6965 107.23 79.3597 106.283C79.4566 106.191 79.5712 106.117 79.6982 106.07L81.638 105.344C81.7757 105.292 81.9011 105.221 82.0141 105.137L83.7817 106.462V107.829H83.7824ZM82.5856 104.321C82.6279 104.18 82.651 104.032 82.651 103.881V103.176C83.1156 103.382 83.6209 103.503 84.1501 103.518C84.1939 103.52 84.2378 103.521 84.2809 103.521C84.8493 103.521 85.3992 103.408 85.9084 103.195V103.881C85.9084 104.032 85.9307 104.181 85.973 104.321L84.2801 105.591L82.5856 104.321ZM84.777 107.829V106.462L86.5438 105.137C86.6576 105.22 86.7845 105.291 86.9207 105.344L89.2782 106.227C87.936 107.198 86.3692 107.736 84.777 107.829Z" fill="black"/> <path d="M91.7672 93.4007C91.5964 93.1861 91.2842 93.1491 91.0696 93.3199C90.8534 93.4899 90.818 93.8029 90.9873 94.0183C93.6686 97.4111 93.3809 102.278 90.3181 105.341C90.2573 105.402 90.195 105.461 90.1327 105.52C90.0266 105.457 89.9166 105.404 89.7981 105.36L87.2706 104.412C87.0514 104.329 86.9037 104.117 86.9037 103.882V102.608C87.0122 102.521 87.116 102.429 87.2168 102.331C88.0429 101.53 88.4975 100.455 88.4975 99.304V98.3587L88.6405 98.0734C88.8959 97.5649 89.0297 96.9942 89.0297 96.425V93.4576C89.0297 93.1837 88.8067 92.9607 88.5328 92.9607H82.9933C81.0834 92.9607 79.5305 94.5144 79.5305 96.4258C79.5305 96.9942 79.6651 97.5649 79.9197 98.0749L80.0612 98.3595V99.1487C80.0612 100.516 80.6873 101.754 81.6557 102.561V103.884C81.6557 104.119 81.5088 104.331 81.2888 104.414L79.3482 105.14C78.8498 105.327 78.4421 105.715 78.229 106.203C78.1391 106.41 78.1998 106.652 78.3775 106.792C80.1143 108.165 82.1972 108.841 84.2739 108.84C86.7253 108.84 89.1682 107.897 91.0203 106.046C94.4401 102.625 94.76 97.1896 91.7672 93.4007ZM81.0557 99.1471V98.2395C81.0557 98.1626 81.0396 98.0872 81.0042 98.0172L80.8096 97.6272C80.6242 97.2565 80.5258 96.8404 80.5258 96.422C80.5258 95.0605 81.6318 93.9537 82.994 93.9537H88.0352V96.4243C88.0352 96.8404 87.9367 97.2565 87.7506 97.6272L87.556 98.0172C87.5214 98.0872 87.5037 98.1626 87.5037 98.2395V99.3033C87.5037 100.183 87.1568 101.004 86.5253 101.617C85.8946 102.229 85.0623 102.552 84.1816 102.525C82.4572 102.473 81.0557 100.957 81.0557 99.1471ZM83.7824 107.829C82.231 107.741 80.6965 107.23 79.3597 106.283C79.4566 106.191 79.5712 106.117 79.6982 106.07L81.638 105.344C81.7757 105.292 81.9011 105.221 82.0141 105.137L83.7817 106.462V107.829H83.7824ZM82.5856 104.321C82.6279 104.18 82.651 104.032 82.651 103.881V103.176C83.1156 103.382 83.6209 103.503 84.1501 103.518C84.1939 103.52 84.2378 103.521 84.2809 103.521C84.8493 103.521 85.3992 103.408 85.9084 103.195V103.881C85.9084 104.032 85.9307 104.181 85.973 104.321L84.2801 105.591L82.5856 104.321ZM84.777 107.829V106.462L86.5438 105.137C86.6576 105.22 86.7845 105.291 86.9207 105.344L89.2782 106.227C87.936 107.198 86.3692 107.736 84.777 107.829Z" stroke="black" stroke-width="0.75" stroke-miterlimit="10"/> <path d="M110.603 25.2141C104.97 25.2141 100.388 29.7968 100.388 35.4287C100.388 37.8216 100.916 40.206 101.957 42.5143C102.786 44.3541 103.942 46.1486 105.391 47.85C107.854 50.7413 110.282 52.3396 110.384 52.4065C110.45 52.4496 110.527 52.4712 110.603 52.4712C110.678 52.4712 110.754 52.4496 110.82 52.4065C110.923 52.3396 113.351 50.7413 115.814 47.85C117.263 46.1486 118.418 44.3541 119.248 42.5143C120.289 40.206 120.817 37.8216 120.817 35.4287C120.817 29.7968 116.234 25.2141 110.603 25.2141ZM118.526 42.1735C117.73 43.9426 116.619 45.6717 115.221 47.3146C113.249 49.6345 111.252 51.129 110.603 51.5874C109.955 51.1305 107.97 49.6468 105.999 47.3323C104.599 45.6886 103.483 43.9572 102.685 42.1858C101.69 39.9814 101.186 37.7077 101.186 35.4287C101.186 30.2368 105.41 26.0133 110.603 26.0133C115.794 26.0133 120.018 30.2368 120.018 35.4287C120.018 37.7039 119.516 39.9729 118.526 42.1735Z" fill="#4360DF"/> <path d="M110.603 25.2141C104.97 25.2141 100.388 29.7968 100.388 35.4287C100.388 37.8216 100.916 40.206 101.957 42.5143C102.786 44.3541 103.942 46.1486 105.391 47.85C107.854 50.7413 110.282 52.3396 110.384 52.4065C110.45 52.4496 110.527 52.4712 110.603 52.4712C110.678 52.4712 110.754 52.4496 110.82 52.4065C110.923 52.3396 113.351 50.7413 115.814 47.85C117.263 46.1486 118.418 44.3541 119.248 42.5143C120.289 40.206 120.817 37.8216 120.817 35.4287C120.817 29.7968 116.234 25.2141 110.603 25.2141ZM118.526 42.1735C117.73 43.9426 116.619 45.6717 115.221 47.3146C113.249 49.6345 111.252 51.129 110.603 51.5874C109.955 51.1305 107.97 49.6468 105.999 47.3323C104.599 45.6886 103.483 43.9572 102.685 42.1858C101.69 39.9814 101.186 37.7077 101.186 35.4287C101.186 30.2368 105.41 26.0133 110.603 26.0133C115.794 26.0133 120.018 30.2368 120.018 35.4287C120.018 37.7039 119.516 39.9729 118.526 42.1735Z" stroke="#4360DF" stroke-width="0.5" stroke-miterlimit="10"/> <path d="M110.602 27.5454C106.222 27.5454 102.659 31.1097 102.659 35.4894C102.659 39.869 106.222 43.4326 110.602 43.4326C114.982 43.4326 118.547 39.869 118.547 35.4894C118.547 31.109 114.982 27.5454 110.602 27.5454ZM106.934 41.0928C106.983 40.9689 107.061 40.859 107.187 40.8036L108.307 40.309C108.793 41.1089 109.653 41.5966 110.602 41.5966C111.553 41.5966 112.412 41.1089 112.898 40.3098L114.018 40.8036C114.143 40.8597 114.221 40.9689 114.27 41.092C113.215 41.785 111.955 42.1919 110.6 42.1919C109.249 42.1919 107.988 41.7858 106.934 41.0928ZM110.603 31.732C112.112 31.732 113.34 32.9596 113.34 34.4687C113.34 34.5864 113.332 34.7025 113.319 34.8171C113.264 34.741 113.201 34.6702 113.13 34.6079C112.645 34.1864 111.55 33.4503 109.664 33.2619C109.425 33.235 109.177 33.4226 109.15 33.6811C109.137 33.8057 109.174 33.9241 109.247 34.0157C109.134 33.9849 109.019 33.9964 108.913 34.0487C108.801 34.1049 108.717 34.2018 108.677 34.3202C108.573 34.6356 108.333 34.8264 108.148 34.9317C108.069 34.9771 108 35.0325 107.938 35.0948C107.89 34.891 107.866 34.6818 107.866 34.4687C107.866 32.9604 109.093 31.732 110.603 31.732ZM109.712 30.9028C109.883 30.6621 110.217 30.4983 110.603 30.4983C110.987 30.4983 111.322 30.6613 111.493 30.9028C110.914 30.7575 110.293 30.7575 109.712 30.9028ZM108.618 35.7448C108.943 35.5578 109.371 35.2102 109.569 34.6164C109.607 34.4972 109.598 34.3702 109.542 34.2579C109.527 34.231 109.512 34.2049 109.493 34.181C109.518 34.188 109.543 34.1926 109.57 34.1956C111.194 34.3579 112.112 34.9671 112.513 35.3156C112.568 35.364 112.6 35.4371 112.6 35.5155V35.9478C112.6 37.0493 111.704 37.9453 110.602 37.9453H110.601C110.069 37.9453 109.568 37.7377 109.19 37.36C108.812 36.9823 108.605 36.4808 108.605 35.9478L108.618 35.7448ZM109.265 39.886C109.614 39.7321 109.84 39.3868 109.84 39.006V38.7837C110.336 38.916 110.871 38.9168 111.367 38.783V39.006C111.367 39.3868 111.592 39.7321 111.941 39.886L112.028 39.9252C111.703 40.3828 111.177 40.6582 110.602 40.6582C110.028 40.6582 109.503 40.3828 109.176 39.9252L109.265 39.886ZM115.038 40.5013C114.887 40.2613 114.668 40.0652 114.397 39.9452L112.306 39.006V38.3376C112.815 37.973 113.199 37.4538 113.393 36.86C113.965 36.1939 114.279 35.3471 114.279 34.4687C114.279 33.2026 113.62 32.0227 112.549 31.352C112.552 31.322 112.552 31.292 112.552 31.262C112.552 30.3236 111.678 29.5599 110.603 29.5599C109.528 29.5599 108.653 30.3236 108.653 31.262C108.653 31.292 108.655 31.322 108.657 31.352C107.586 32.0235 106.927 33.2034 106.927 34.4687C106.927 35.3471 107.241 36.1939 107.813 36.8608C108.007 37.4538 108.389 37.9723 108.899 38.3368L108.886 39.0276L106.809 39.9452C106.538 40.0652 106.319 40.2621 106.168 40.5021C104.78 39.2729 103.9 37.4838 103.9 35.4886C103.9 31.792 106.906 28.7845 110.602 28.7845C114.298 28.7845 117.305 31.792 117.305 35.4886C117.305 37.4831 116.425 39.2729 115.038 40.5013Z" fill="black"/> </svg>