<svg xmlns="http://www.w3.org/2000/svg" width="426" height="460" viewBox="0 0 426 460"><defs><linearGradient id="bx1mb" x1="422.03" x2="146.21" y1="-8.94" y2="362.29" gradientUnits="userSpaceOnUse"><stop offset="0" stop-color="#fff"/><stop offset="1" stop-color="#fff" stop-opacity="0"/></linearGradient><linearGradient id="bx1mc" x1="422.04" x2="146.2" y1="-8.95" y2="362.29" gradientUnits="userSpaceOnUse"><stop offset="0" stop-color="#fff"/><stop offset="1" stop-color="#fff" stop-opacity="0"/></linearGradient><linearGradient id="bx1md" x1="422.07" x2="146.19" y1="-8.92" y2="362.25" gradientUnits="userSpaceOnUse"><stop offset="0" stop-color="#fff"/><stop offset="1" stop-color="#fff" stop-opacity="0"/></linearGradient><linearGradient id="bx1me" x1="422.03" x2="146.21" y1="-8.93" y2="362.3" gradientUnits="userSpaceOnUse"><stop offset="0" stop-color="#fff"/><stop offset="1" stop-color="#fff" stop-opacity="0"/></linearGradient><linearGradient id="bx1mf" x1="422.04" x2="146.2" y1="-8.94" y2="362.3" gradientUnits="userSpaceOnUse"><stop offset="0" stop-color="#fff"/><stop offset="1" stop-color="#fff" stop-opacity="0"/></linearGradient><linearGradient id="bx1mg" x1="422.07" x2="146.19" y1="-8.93" y2="362.24" gradientUnits="userSpaceOnUse"><stop offset="0" stop-color="#fff"/><stop offset="1" stop-color="#fff" stop-opacity="0"/></linearGradient><linearGradient id="bx1mh" x1="422.03" x2="146.21" y1="-8.96" y2="362.28" gradientUnits="userSpaceOnUse"><stop offset="0" stop-color="#fff"/><stop offset="1" stop-color="#fff" stop-opacity="0"/></linearGradient><linearGradient id="bx1mi" x1="422.04" x2="146.2" y1="-8.92" y2="362.25" gradientUnits="userSpaceOnUse"><stop offset="0" stop-color="#fff"/><stop offset="1" stop-color="#fff" stop-opacity="0"/></linearGradient><linearGradient id="bx1mj" x1="422.07" x2="146.19" y1="-8.96" y2="362.28" gradientUnits="userSpaceOnUse"><stop offset="0" stop-color="#fff"/><stop offset="1" stop-color="#fff" stop-opacity="0"/></linearGradient><linearGradient id="bx1mk" x1="422.03" x2="146.21" y1="-8.96" y2="362.27" gradientUnits="userSpaceOnUse"><stop offset="0" stop-color="#fff"/><stop offset="1" stop-color="#fff" stop-opacity="0"/></linearGradient><linearGradient id="bx1ml" x1="422.04" x2="146.2" y1="-8.98" y2="362.26" gradientUnits="userSpaceOnUse"><stop offset="0" stop-color="#fff"/><stop offset="1" stop-color="#fff" stop-opacity="0"/></linearGradient><linearGradient id="bx1mm" x1="422.07" x2="146.19" y1="-8.91" y2="362.26" gradientUnits="userSpaceOnUse"><stop offset="0" stop-color="#fff"/><stop offset="1" stop-color="#fff" stop-opacity="0"/></linearGradient><linearGradient id="bx1mn" x1="422.04" x2="146.22" y1="-8.94" y2="362.29" gradientUnits="userSpaceOnUse"><stop offset="0" stop-color="#fff"/><stop offset="1" stop-color="#fff" stop-opacity="0"/></linearGradient><linearGradient id="bx1mo" x1="422.04" x2="146.2" y1="-8.95" y2="362.29" gradientUnits="userSpaceOnUse"><stop offset="0" stop-color="#fff"/><stop offset="1" stop-color="#fff" stop-opacity="0"/></linearGradient><linearGradient id="bx1mp" x1="422.04" x2="146.21" y1="-8.92" y2="362.25" gradientUnits="userSpaceOnUse"><stop offset="0" stop-color="#fff"/><stop offset="1" stop-color="#fff" stop-opacity="0"/></linearGradient><linearGradient id="bx1mq" x1="422.04" x2="146.22" y1="-8.93" y2="362.3" gradientUnits="userSpaceOnUse"><stop offset="0" stop-color="#fff"/><stop offset="1" stop-color="#fff" stop-opacity="0"/></linearGradient><linearGradient id="bx1mr" x1="422.04" x2="146.2" y1="-8.94" y2="362.3" gradientUnits="userSpaceOnUse"><stop offset="0" stop-color="#fff"/><stop offset="1" stop-color="#fff" stop-opacity="0"/></linearGradient><linearGradient id="bx1ms" x1="422.04" x2="146.21" y1="-8.93" y2="362.24" gradientUnits="userSpaceOnUse"><stop offset="0" stop-color="#fff"/><stop offset="1" stop-color="#fff" stop-opacity="0"/></linearGradient><linearGradient id="bx1mt" x1="422.04" x2="146.22" y1="-8.96" y2="362.28" gradientUnits="userSpaceOnUse"><stop offset="0" stop-color="#fff"/><stop offset="1" stop-color="#fff" stop-opacity="0"/></linearGradient><linearGradient id="bx1mu" x1="422.04" x2="146.2" y1="-8.92" y2="362.25" gradientUnits="userSpaceOnUse"><stop offset="0" stop-color="#fff"/><stop offset="1" stop-color="#fff" stop-opacity="0"/></linearGradient><linearGradient id="bx1mv" x1="422.04" x2="146.21" y1="-8.96" y2="362.28" gradientUnits="userSpaceOnUse"><stop offset="0" stop-color="#fff"/><stop offset="1" stop-color="#fff" stop-opacity="0"/></linearGradient><linearGradient id="bx1mw" x1="422.04" x2="146.22" y1="-8.96" y2="362.27" gradientUnits="userSpaceOnUse"><stop offset="0" stop-color="#fff"/><stop offset="1" stop-color="#fff" stop-opacity="0"/></linearGradient><linearGradient id="bx1mx" x1="422.04" x2="146.2" y1="-8.98" y2="362.26" gradientUnits="userSpaceOnUse"><stop offset="0" stop-color="#fff"/><stop offset="1" stop-color="#fff" stop-opacity="0"/></linearGradient><linearGradient id="bx1my" x1="422.04" x2="146.21" y1="-8.91" y2="362.26" gradientUnits="userSpaceOnUse"><stop offset="0" stop-color="#fff"/><stop offset="1" stop-color="#fff" stop-opacity="0"/></linearGradient><linearGradient id="bx1mz" x1="422.03" x2="146.21" y1="-8.94" y2="362.3" gradientUnits="userSpaceOnUse"><stop offset="0" stop-color="#fff"/><stop offset="1" stop-color="#fff" stop-opacity="0"/></linearGradient><linearGradient id="bx1mA" x1="422.03" x2="146.2" y1="-8.95" y2="362.29" gradientUnits="userSpaceOnUse"><stop offset="0" stop-color="#fff"/><stop offset="1" stop-color="#fff" stop-opacity="0"/></linearGradient><linearGradient id="bx1mB" x1="422.04" x2="146.21" y1="-8.93" y2="362.24" gradientUnits="userSpaceOnUse"><stop offset="0" stop-color="#fff"/><stop offset="1" stop-color="#fff" stop-opacity="0"/></linearGradient><linearGradient id="bx1mC" x1="422.03" x2="146.21" y1="-8.91" y2="362.23" gradientUnits="userSpaceOnUse"><stop offset="0" stop-color="#fff"/><stop offset="1" stop-color="#fff" stop-opacity="0"/></linearGradient><linearGradient id="bx1mD" x1="422.03" x2="146.2" y1="-8.92" y2="362.25" gradientUnits="userSpaceOnUse"><stop offset="0" stop-color="#fff"/><stop offset="1" stop-color="#fff" stop-opacity="0"/></linearGradient><linearGradient id="bx1mE" x1="422.04" x2="146.21" y1="-8.96" y2="362.28" gradientUnits="userSpaceOnUse"><stop offset="0" stop-color="#fff"/><stop offset="1" stop-color="#fff" stop-opacity="0"/></linearGradient><linearGradient id="bx1mF" x1="422.03" x2="146.21" y1="-8.96" y2="362.27" gradientUnits="userSpaceOnUse"><stop offset="0" stop-color="#fff"/><stop offset="1" stop-color="#fff" stop-opacity="0"/></linearGradient><linearGradient id="bx1mG" x1="422.03" x2="146.2" y1="-8.97" y2="362.27" gradientUnits="userSpaceOnUse"><stop offset="0" stop-color="#fff"/><stop offset="1" stop-color="#fff" stop-opacity="0"/></linearGradient><linearGradient id="bx1mH" x1="422.04" x2="146.21" y1="-8.91" y2="362.26" gradientUnits="userSpaceOnUse"><stop offset="0" stop-color="#fff"/><stop offset="1" stop-color="#fff" stop-opacity="0"/></linearGradient><clipPath id="bx1ma"><path d="M0 0h426v460H0z"/></clipPath></defs><g><g><g><path fill="#20ce8a" d="M0 0h426v460H0z"/></g><g clip-path="url(#bx1ma)"><g><path fill="url(#bx1mb)" d="M206.583 101.426a26.458 26.458 0 0 0 4.211-14.365c0-14.686-11.907-26.591-26.592-26.591-14.685 0-26.592 11.905-26.592 26.591a26.458 26.458 0 0 0 4.211 14.365l4.621-17.03c4.912-18.113 30.608-18.113 35.52 0z"/></g><g><path fill="url(#bx1mc)" d="M154.796 113.598a26.469 26.469 0 0 0-14.538 3.563c-12.704 7.366-17.033 23.638-9.667 36.344 7.37 12.706 23.638 17.034 36.346 9.668a26.466 26.466 0 0 0 10.313-10.847l-17.05 4.544c-18.134 4.834-31.023-17.396-17.82-30.732z"/></g><g><path fill="url(#bx1md)" d="M213.629 113.61c4.921-.231 9.961.901 14.54 3.552 12.711 7.358 17.05 23.626 9.693 36.337-7.36 12.711-23.628 17.05-36.339 9.693a26.486 26.486 0 0 1-10.323-10.84l17.056 4.533c18.138 4.821 31.011-17.417 17.798-30.745z"/></g><g><path fill="url(#bx1me)" d="M206.583-13.044a26.458 26.458 0 0 0 4.211-14.364c0-14.686-11.907-26.592-26.592-26.592-14.685 0-26.592 11.906-26.592 26.592a26.458 26.458 0 0 0 4.211 14.364l4.621-17.03c4.912-18.113 30.608-18.113 35.52 0z"/></g><g><path fill="url(#bx1mf)" d="M154.796-.872a26.47 26.47 0 0 0-14.538 3.563c-12.704 7.366-17.033 23.638-9.667 36.344 7.37 12.706 23.638 17.034 36.346 9.668a26.466 26.466 0 0 0 10.313-10.847L160.2 42.4c-18.134 4.833-31.023-17.396-17.82-30.733z"/></g><g><path fill="url(#bx1mg)" d="M213.629-.86c4.921-.231 9.961.901 14.54 3.552 12.711 7.358 17.05 23.626 9.693 36.337-7.36 12.711-23.628 17.051-36.339 9.693a26.484 26.484 0 0 1-10.323-10.84l17.056 4.533c18.138 4.821 31.011-17.417 17.798-30.745z"/></g><g><path fill="url(#bx1mh)" d="M206.583 215.866a26.457 26.457 0 0 0 4.211-14.364c0-14.686-11.907-26.592-26.592-26.592-14.685 0-26.592 11.906-26.592 26.592a26.457 26.457 0 0 0 4.211 14.364l4.621-17.03c4.912-18.113 30.608-18.113 35.52 0z"/></g><g><path fill="url(#bx1mi)" d="M154.796 228.048a26.47 26.47 0 0 0-14.538 3.563c-12.704 7.366-17.033 23.638-9.667 36.344 7.37 12.706 23.638 17.034 36.346 9.668a26.466 26.466 0 0 0 10.313-10.847l-17.05 4.545c-18.134 4.833-31.023-17.397-17.82-30.733z"/></g><g><path fill="url(#bx1mj)" d="M213.629 228.05a26.46 26.46 0 0 1 14.54 3.552c12.711 7.358 17.05 23.626 9.693 36.337-7.36 12.711-23.628 17.05-36.339 9.693a26.484 26.484 0 0 1-10.323-10.84l17.056 4.533c18.138 4.821 31.011-17.417 17.798-30.745z"/></g><g><path fill="url(#bx1mk)" d="M206.583 330.316a26.458 26.458 0 0 0 4.211-14.364c0-14.686-11.907-26.592-26.592-26.592-14.685 0-26.592 11.906-26.592 26.592a26.458 26.458 0 0 0 4.211 14.364l4.621-17.03c4.912-18.113 30.608-18.113 35.52 0z"/></g><g><path fill="url(#bx1ml)" d="M154.796 342.488a26.455 26.455 0 0 0-14.538 3.565c-12.704 7.367-17.033 23.635-9.667 36.343 7.37 12.707 23.638 17.033 36.346 9.667a26.465 26.465 0 0 0 10.313-10.845l-17.05 4.544c-18.134 4.832-31.023-17.395-17.82-30.733z"/></g><g><path fill="url(#bx1mm)" d="M213.629 342.5c4.921-.231 9.961.898 14.54 3.551 12.711 7.357 17.05 23.626 9.693 36.336-7.36 12.71-23.628 17.053-36.339 9.693a26.476 26.476 0 0 1-10.323-10.838l17.056 4.53c18.138 4.823 31.011-17.417 17.798-30.742z"/></g><g><path fill="url(#bx1mn)" d="M394.893 101.426a26.458 26.458 0 0 0 4.211-14.365c0-14.686-11.904-26.591-26.592-26.591-14.685 0-26.592 11.905-26.592 26.591a26.458 26.458 0 0 0 4.211 14.365l4.621-17.03c4.912-18.113 30.608-18.113 35.523 0z"/></g><g><path fill="url(#bx1mo)" d="M343.108 113.598a26.473 26.473 0 0 0-14.54 3.563c-12.705 7.366-17.034 23.638-9.665 36.344 7.367 12.706 23.639 17.034 36.343 9.668a26.466 26.466 0 0 0 10.313-10.847l-17.05 4.544c-18.134 4.834-31.023-17.396-17.817-30.732z"/></g><g><path fill="url(#bx1mp)" d="M401.946 113.61c4.921-.231 9.961.901 14.54 3.552 12.71 7.358 17.05 23.626 9.693 36.337-7.36 12.711-23.629 17.05-36.336 9.693a26.445 26.445 0 0 1-10.323-10.84l17.053 4.533c18.137 4.821 31.011-17.417 17.798-30.745z"/></g><g><path fill="url(#bx1mq)" d="M394.893-13.044a26.458 26.458 0 0 0 4.211-14.364C399.104-42.094 387.2-54 372.512-54c-14.685 0-26.592 11.906-26.592 26.592a26.458 26.458 0 0 0 4.211 14.364l4.621-17.03c4.912-18.113 30.608-18.113 35.523 0z"/></g><g><path fill="url(#bx1mr)" d="M343.108-.872a26.474 26.474 0 0 0-14.54 3.563c-12.705 7.366-17.034 23.638-9.665 36.344 7.367 12.706 23.639 17.034 36.343 9.668a26.466 26.466 0 0 0 10.313-10.847L348.51 42.4c-18.134 4.833-31.023-17.396-17.817-30.733z"/></g><g><path fill="url(#bx1ms)" d="M401.946-.86c4.921-.231 9.961.901 14.54 3.552 12.71 7.358 17.05 23.626 9.693 36.337-7.36 12.711-23.629 17.051-36.336 9.693a26.443 26.443 0 0 1-10.323-10.84l17.053 4.533c18.137 4.821 31.011-17.417 17.798-30.745z"/></g><g><path fill="url(#bx1mt)" d="M394.893 215.866a26.457 26.457 0 0 0 4.211-14.364c0-14.686-11.904-26.592-26.592-26.592-14.685 0-26.592 11.906-26.592 26.592a26.457 26.457 0 0 0 4.211 14.364l4.621-17.03c4.912-18.113 30.608-18.113 35.523 0z"/></g><g><path fill="url(#bx1mu)" d="M343.108 228.048a26.473 26.473 0 0 0-14.54 3.563c-12.705 7.366-17.034 23.638-9.665 36.344 7.367 12.706 23.639 17.034 36.343 9.668a26.466 26.466 0 0 0 10.313-10.847l-17.05 4.545c-18.134 4.833-31.023-17.397-17.817-30.733z"/></g><g><path fill="url(#bx1mv)" d="M401.946 228.05a26.46 26.46 0 0 1 14.54 3.552c12.71 7.358 17.05 23.626 9.693 36.337-7.36 12.711-23.629 17.05-36.336 9.693a26.443 26.443 0 0 1-10.323-10.84l17.053 4.533c18.137 4.821 31.011-17.417 17.798-30.745z"/></g><g><path fill="url(#bx1mw)" d="M394.893 329.676a26.458 26.458 0 0 0 4.211-14.364c0-14.686-11.904-26.592-26.592-26.592-14.685 0-26.592 11.906-26.592 26.592a26.458 26.458 0 0 0 4.211 14.364l4.621-17.03c4.912-18.113 30.608-18.113 35.523 0z"/></g><g><path fill="url(#bx1mx)" d="M343.108 341.848a26.459 26.459 0 0 0-14.54 3.565c-12.705 7.367-17.034 23.635-9.665 36.343 7.367 12.707 23.639 17.033 36.343 9.667a26.465 26.465 0 0 0 10.313-10.845l-17.05 4.544c-18.134 4.832-31.023-17.395-17.817-30.733z"/></g><g><path fill="url(#bx1my)" d="M401.946 341.86c4.921-.231 9.961.898 14.54 3.551 12.71 7.357 17.05 23.626 9.693 36.336-7.36 12.71-23.629 17.053-36.336 9.693a26.435 26.435 0 0 1-10.323-10.838l17.053 4.53c18.137 4.823 31.011-17.417 17.798-30.742z"/></g><g><path fill="url(#bx1mz)" d="M300.646 47.756a26.482 26.482 0 0 0 4.208-14.364c0-14.687-11.904-26.592-26.592-26.592-14.685 0-26.592 11.905-26.592 26.592a26.457 26.457 0 0 0 4.211 14.364l4.621-17.03c4.915-18.113 30.608-18.113 35.523 0z"/></g><g><path fill="url(#bx1mA)" d="M248.857 59.928a26.473 26.473 0 0 0-14.541 3.563c-12.704 7.367-17.03 23.638-9.664 36.344 7.366 12.706 23.638 17.034 36.342 9.668a26.475 26.475 0 0 0 10.317-10.847l-17.053 4.545c-18.134 4.833-31.024-17.397-17.817-30.733z"/></g><g><path fill="url(#bx1mB)" d="M307.696 59.94a26.46 26.46 0 0 1 14.54 3.552c12.71 7.358 17.05 23.626 9.693 36.337-7.357 12.711-23.625 17.05-36.336 9.693a26.463 26.463 0 0 1-10.323-10.84l17.053 4.533c18.137 4.821 31.011-17.417 17.798-30.745z"/></g><g><path fill="url(#bx1mC)" d="M300.646 162.206a26.482 26.482 0 0 0 4.208-14.365c0-14.686-11.904-26.591-26.592-26.591-14.685 0-26.592 11.905-26.592 26.591a26.458 26.458 0 0 0 4.211 14.365l4.621-17.03c4.915-18.113 30.608-18.113 35.523 0z"/></g><g><path fill="url(#bx1mD)" d="M248.857 174.378a26.476 26.476 0 0 0-14.541 3.563c-12.704 7.367-17.03 23.638-9.664 36.344 7.366 12.706 23.638 17.034 36.342 9.668a26.474 26.474 0 0 0 10.317-10.847l-17.053 4.545c-18.134 4.833-31.024-17.396-17.817-30.733z"/></g><g><path fill="url(#bx1mE)" d="M307.696 174.38c4.921-.231 9.961.901 14.54 3.552 12.71 7.358 17.05 23.626 9.693 36.337-7.357 12.711-23.625 17.05-36.336 9.693a26.465 26.465 0 0 1-10.323-10.84l17.053 4.533c18.137 4.821 31.011-17.417 17.798-30.745z"/></g><g><path fill="url(#bx1mF)" d="M300.646 276.556a26.482 26.482 0 0 0 4.208-14.364c0-14.686-11.904-26.592-26.592-26.592-14.685 0-26.592 11.906-26.592 26.592a26.458 26.458 0 0 0 4.211 14.364l4.621-17.03c4.915-18.113 30.608-18.113 35.523 0z"/></g><g><path fill="url(#bx1mG)" d="M248.857 288.728a26.473 26.473 0 0 0-14.541 3.563c-12.704 7.367-17.03 23.638-9.664 36.344 7.366 12.707 23.638 17.033 36.342 9.668a26.475 26.475 0 0 0 10.317-10.847l-17.053 4.545c-18.134 4.833-31.024-17.397-17.817-30.733z"/></g><g><path fill="url(#bx1mH)" d="M307.696 288.74c4.921-.232 9.961.9 14.54 3.552 12.71 7.358 17.05 23.626 9.693 36.337-7.357 12.71-23.625 17.052-36.336 9.693a26.463 26.463 0 0 1-10.323-10.84l17.053 4.533c18.137 4.821 31.011-17.417 17.798-30.745z"/></g></g><g clip-path="url(#bx1ma)"><path fill="#053724" d="M84.63 390.993a13.235 13.235 0 0 1 7.323 1.804c6.402 3.738 8.587 12.002 4.881 18.46-3.706 6.456-11.9 8.661-18.3 4.923a13.396 13.396 0 0 1-5.199-5.506l8.589 2.302c9.135 2.45 15.618-8.848 8.964-15.617zm-35.884 6.367c-6.65 6.776-.159 18.068 8.974 15.612l8.588-2.308a13.4 13.4 0 0 1-5.195 5.51c-6.4 3.742-14.594 1.543-18.304-4.912-3.71-6.454-1.53-14.72 4.868-18.462A13.236 13.236 0 0 1 55 390.99zm30.005-21.206c-2.475-9.201-15.415-9.201-17.89 0l-2.327 8.651a13.53 13.53 0 0 1-2.12-7.297c0-7.46 5.995-13.508 13.392-13.508 7.396 0 13.392 6.048 13.392 13.508a13.53 13.53 0 0 1-2.12 7.297zm223.472 5.636c6.437 0 10.777 4.279 10.777 10.574 0 1.082-.146 2.214-.244 2.853h-15.702c.195 3 2.584 4.87 5.9 4.87 2.634 0 5.17-1.181 6.34-3.001l3.413 3.64c-1.999 2.754-5.705 4.525-10.094 4.525-7.168 0-11.752-4.722-11.752-11.805 0-6.984 4.584-11.656 11.362-11.656zm4.584 9.148c-.098-2.41-1.95-4.033-4.78-4.033-2.779 0-4.68 1.623-4.924 4.033zm-26.585-17.854h6.193v31.527h-6.193zm-4.441 20.46c0 7.034-4.389 11.707-10.875 11.707-2.828 0-5.314-1.033-6.778-2.558v1.918h-6.193v-31.527h6.193v11.214c1.415-1.525 3.95-2.508 6.73-2.508 6.534 0 10.923 4.672 10.923 11.755zm-6.389 0c0-3.688-2.34-6.098-5.9-6.098-2.34 0-4.437 1.131-5.364 2.901v6.345c.878 1.722 2.975 2.902 5.365 2.902 3.559 0 5.9-2.46 5.9-6.05zm-22.808-2.262v13.33h-6.193v-12.346c0-3.197-1.365-4.771-3.95-4.771-2.146 0-3.803.935-4.68 2.508.048.394.048.837.048 1.28v13.328h-6.242v-12.345c0-3.197-1.366-4.771-3.95-4.771-2.096 0-3.755.935-4.632 2.41v14.706h-6.193v-22.084h6.193v1.525c1.511-1.426 3.754-2.262 6.29-2.262 2.974 0 5.315 1.18 6.827 3.295 1.658-1.968 4.632-3.295 7.753-3.295 5.462 0 8.729 3.64 8.729 9.492zm-50.982-9.492c6.437 0 10.776 4.279 10.776 10.574 0 1.082-.146 2.214-.244 2.853h-15.701c.195 3 2.584 4.87 5.9 4.87 2.633 0 5.17-1.181 6.34-3.001l3.413 3.64c-2 2.754-5.705 4.525-10.094 4.525-7.169 0-11.752-4.722-11.752-11.805 0-6.984 4.583-11.656 11.362-11.656zm4.583 9.148c-.097-2.41-1.95-4.033-4.778-4.033-2.78 0-4.682 1.623-4.926 4.033zm-37.612 11.706l1.707-4.476c1.95 1.426 4.68 2.214 7.168 2.214 2.096 0 3.316-.59 3.316-1.919 0-1.524-1.268-1.77-2.292-2.016l-3.316-.886c-3.218-.885-6.144-2.36-6.144-6.64 0-4.23 3.608-7.131 9.021-7.131 2.974 0 6.242.836 8.29 2.115l-1.707 4.475c-1.56-1.032-3.999-1.77-6.242-1.77-2.194 0-3.072.787-3.072 1.918 0 1.328 1.17 1.574 2.292 1.869l3.804.984c4.193 1.082 5.802 3.394 5.802 6.541 0 4.624-3.803 7.329-9.606 7.329-3.56 0-6.973-.984-9.02-2.607zm-21.762 0l1.706-4.476c1.95 1.426 4.682 2.214 7.168 2.214 2.097 0 3.316-.59 3.316-1.919 0-1.524-1.268-1.77-2.292-2.016l-3.316-.886c-3.218-.885-6.144-2.36-6.144-6.64 0-4.23 3.609-7.131 9.021-7.131 2.975 0 6.242.836 8.29 2.115l-1.707 4.475c-1.56-1.032-3.998-1.77-6.242-1.77-2.194 0-3.071.787-3.071 1.918 0 1.328 1.17 1.574 2.292 1.869l3.803.984c4.194 1.082 5.803 3.394 5.803 6.541 0 4.624-3.804 7.329-9.606 7.329-3.56 0-6.974-.984-9.021-2.607zm-3.918-20.117v22.084H130.7v-1.918c-1.463 1.525-3.998 2.558-6.826 2.558-6.437 0-10.826-4.673-10.826-11.706 0-7.083 4.389-11.755 10.874-11.755 2.78 0 5.315.983 6.778 2.508v-1.77zm-6.193 14.067v-6.148c-.878-1.82-2.974-3-5.364-3-3.56 0-5.949 2.41-5.949 6.099 0 3.59 2.39 6.05 5.95 6.05 2.389 0 4.534-1.23 5.363-3.001z"/></g></g></g></svg>