<svg xmlns="http://www.w3.org/2000/svg" width="426" height="460" viewBox="0 0 426 460"><defs><clipPath id="mcbka"><path d="M0 0h426v460H0z"/></clipPath></defs><g><g><g><path fill="#3fc9cd" d="M0 0h426v460H0z"/></g><g clip-path="url(#mcbka)"><path fill="#fff" fill-opacity=".6" d="M151 32c0-12.684 10.316-23 23-23 8.177 0 15.813 4.428 19.924 11.557A22.944 22.944 0 0 1 197 32c0 12.639-10.287 22.954-22.89 22.994-.104 0-.208 0-.317.006C161.206 54.885 151 44.616 151 32zM324.006-72C336.693-72 347.01-61.684 347-49.253c-.08.58-.15 1.161-.19 1.76-.155 2.346-.69 4.68-1.581 6.957C341.749-31.704 333.42-26 324.006-26c-9.41 0-17.738-5.704-21.217-14.536-.898-2.271-1.432-4.612-1.582-6.952-.046-.603-.115-1.184-.207-1.512 0-12.684 10.318-23 23.006-23zM473 9c12.684 0 23 10.316 23 23 0 12.61-10.206 22.885-22.793 23-.098 0-.19-.006-.282-.006C460.287 54.954 450 44.64 450 32c0-3.996 1.064-7.952 3.076-11.443C457.187 13.427 464.823 9 473 9zm23 195c0 12.684-10.316 23-23 23-8.177 0-15.813-4.428-19.924-11.557A22.944 22.944 0 0 1 450 204c0-12.639 10.287-22.954 22.89-22.994.104 0 .208 0 .317-.006 12.587.115 22.793 10.384 22.793 23zm-149.19 82.507c-.8 12.052-10.813 21.493-22.804 21.493-11.992 0-22.005-9.441-22.805-21.494-.04-.597-.109-1.178-.201-1.506 0-2.892.552-5.75 1.645-8.493 3.514-8.815 11.894-14.507 21.36-14.507 9.467 0 17.847 5.692 21.361 14.507 1.093 2.743 1.645 5.6 1.634 8.24-.08.58-.15 1.161-.19 1.76zM174 227c-12.684 0-23-10.316-23-23 0-12.61 10.206-22.885 22.793-23 .098 0 .19.006.282.006C186.713 181.046 197 191.362 197 204c0 3.996-1.064 7.952-3.076 11.443C189.813 222.572 182.177 227 174 227zm33.296-162L280 106.733c-1.097 3.909-1.727 8.013-1.727 12.267s.63 8.358 1.727 12.267L207.296 173c-5.763-5.844-13.096-10.126-21.296-12.262v-83.47A46.287 46.287 0 0 0 207.296 65zM324 95c12.684 0 23 10.316 23 23s-10.316 23-23 23-23-10.316-23-23 10.316-23 23-23zm-35.717 162l-69.271-39.816c1.107-3.974 1.701-8.08 1.701-12.22 0-4.231-.623-8.314-1.713-12.213L291.646 151A46.151 46.151 0 0 0 313 163.26v77.714c-9.818 2.503-18.487 8.09-24.717 16.026zM334 240.974v-77.715A46.151 46.151 0 0 0 355.354 151L428 192.751c-1.084 3.893-1.707 7.982-1.707 12.214 0 4.14.594 8.245 1.701 12.219L358.723 257c-6.23-7.936-14.9-13.523-24.723-16.026zm127-80.241A46.273 46.273 0 0 0 439.7 173L367 131.267c1.097-3.909 1.726-8.013 1.726-12.267s-.629-8.358-1.726-12.267L439.7 65c5.762 5.844 13.095 10.126 21.294 12.262v83.47zM358.63-21l69.358 39.845c-1.107 3.972-1.701 8.075-1.701 12.214 0 4.23.623 8.31 1.713 12.208L355.354 85A46.156 46.156 0 0 0 334 72.746V-4.94c9.789-2.52 18.435-8.11 24.63-16.06zM313-4.94v77.686A46.156 46.156 0 0 0 291.646 85L219 43.267c1.084-3.892 1.707-7.978 1.707-12.208 0-4.139-.594-8.242-1.701-12.214L288.364-21c6.2 7.95 14.841 13.54 24.636 16.06zM128 204.35c0 25.393 20.637 46.054 46 46.054 12.454 0 24.248-5.14 32.804-13.862l71.311 41.224c-.38 2.366-.615 4.761-.615 7.179 0 .99.098 1.946.253 3.022C279.346 312.101 299.436 331 323.5 331s44.154-18.9 45.77-43.158c.132-.95.23-1.906.23-2.896 0-2.418-.236-4.813-.615-7.184l71.311-41.225c8.556 8.728 20.35 13.868 32.804 13.868 25.363 0 46-20.66 46-46.054 0-21.45-14.749-39.474-34.61-44.568V76.217C504.252 71.123 519 53.098 519 31.65c0-25.393-20.637-46.054-46-46.054-12.454 0-24.248 5.14-32.804 13.862l-71.53-41.345c.219-1.382.512-2.746.61-4.157.126-.955.224-1.91.224-2.901 0-25.393-20.637-46.054-46-46.054s-46 20.661-46 46.054c0 .99.098 1.946.253 3.022.092 1.353.374 2.689.587 4.03L206.803-.544c-8.556-8.72-20.35-13.861-32.804-13.861-25.363 0-46 20.66-46 46.054 0 21.45 14.749 39.474 34.61 44.568v83.571c-19.861 5.09-34.61 23.114-34.61 44.563z"/></g><g clip-path="url(#mcbka)"><g><text dominant-baseline="text-before-edge" style="line-height:42px" fill="#064041" font-family="Inter-Bold" font-size="42" letter-spacing="-1.35" transform="translate(40 287)"><tspan style="line-height:42px">libp2p</tspan></text></g></g></g></g></svg>