<svg width="21" height="17" viewBox="0 0 21 17" fill="none" xmlns="http://www.w3.org/2000/svg">
<path d="M17.9687 7.83503H11.833C11.2492 7.83503 10.7294 7.44577 10.569 6.88757L10.5015 6.65245C10.4998 6.64636 10.4954 6.64113 10.4928 6.63504C10.484 6.60978 10.4709 6.58801 10.4586 6.56537C10.4454 6.54186 10.4349 6.51835 10.4183 6.49832C10.4051 6.48177 10.3885 6.46958 10.3727 6.45565C10.3499 6.43475 10.328 6.41385 10.3008 6.39817C10.285 6.38946 10.2675 6.38424 10.2508 6.37727C10.2202 6.36421 10.1895 6.35202 10.1553 6.34592C10.15 6.34505 10.1457 6.34157 10.1404 6.3407C10.1202 6.33808 10.101 6.34331 10.0808 6.34331C10.0598 6.34331 10.0396 6.33808 10.0186 6.3407C10.0133 6.34157 10.0089 6.34505 10.0028 6.34592C9.97211 6.35115 9.94493 6.36247 9.91688 6.37379C9.89585 6.3825 9.87481 6.38859 9.8564 6.39904C9.83361 6.4121 9.81521 6.43039 9.79504 6.44781C9.77576 6.46435 9.7556 6.47916 9.73982 6.49919C9.72492 6.51747 9.7144 6.53925 9.70301 6.56014C9.68898 6.58453 9.67496 6.60717 9.66619 6.63416C9.66444 6.64026 9.65918 6.64461 9.65743 6.65071L9.58994 6.88583C9.42953 7.44403 8.90974 7.83329 8.32597 7.83329H2.19022C1.9483 7.83329 1.75195 8.02835 1.75195 8.2687V14.3645C1.75195 14.5682 1.89483 14.7459 2.09556 14.7894L9.98438 16.5311C10.0159 16.538 10.0475 16.5415 10.079 16.5415C10.1106 16.5415 10.143 16.538 10.1737 16.5311L18.0625 14.7894C18.2633 14.745 18.4061 14.5682 18.4061 14.3645V8.2687C18.407 8.03009 18.2107 7.83503 17.9687 7.83503Z" fill="#595959"/>
<path fill-rule="evenodd" clip-rule="evenodd" d="M20.1373 6.39122L18.3842 1.16628C18.3299 1.00518 18.187 0.890233 18.0169 0.871075L10.1281 0.000251675C10.1115 -0.00148997 10.0966 0.00634744 10.0799 0.00721826C10.0633 0.00721826 10.0484 -0.00148997 10.0317 0.000251675L2.14288 0.871075C1.97283 0.889362 1.82995 1.00518 1.77561 1.16628L0.0225356 6.39122C-0.0221677 6.52359 0.00062222 6.66989 0.08214 6.78396C0.164534 6.89717 0.296891 6.9651 0.438014 6.9651H8.32683C8.5223 6.9651 8.6941 6.83621 8.74845 6.64899L10.0799 2.01882L11.4114 6.64899C11.4657 6.83621 11.6375 6.9651 11.833 6.9651H19.7218C19.8629 6.9651 19.9953 6.89804 20.0777 6.78396C20.1601 6.66989 20.182 6.52359 20.1373 6.39122Z" fill="#999999"/>
</svg>
