<svg width="20" height="24" viewBox="0 0 20 24" fill="none" xmlns="http://www.w3.org/2000/svg">
<path d="M0.454632 6.86846L9.60474 12.1513C9.81658 12.2736 10.0778 12.2736 10.29 12.1513L19.4401 6.86846C19.6519 6.74615 19.7827 6.51994 19.7827 6.27494C19.7827 6.0303 19.6519 5.80409 19.4401 5.68141L10.29 0.398988C10.0782 0.276672 9.81695 0.276672 9.60474 0.398988L0.454632 5.68141C0.242789 5.80372 0.112 6.02994 0.112 6.27494C0.112 6.51994 0.242789 6.74615 0.454632 6.86846Z" fill="#595959"/>
<path d="M19.4401 11.196L17.0351 9.80737L10.9616 13.314C10.6488 13.4945 10.2981 13.5848 9.94774 13.5848C9.597 13.5848 9.24663 13.4945 8.93384 13.314L2.86005 9.80737L0.455 11.196C0.243158 11.3183 0.112369 11.5445 0.112369 11.7895C0.112369 12.0341 0.243158 12.2603 0.455 12.383L9.60474 17.6654C9.81658 17.7877 10.0778 17.7877 10.29 17.6654L19.4401 12.3826C19.6519 12.2603 19.7827 12.0341 19.7827 11.7891C19.7827 11.5448 19.6519 11.3186 19.4401 11.196Z" fill="#797979"/>
<path d="M19.4401 16.7105L17.0351 15.3219L10.9616 18.8285C10.6488 19.0091 10.2985 19.0993 9.94774 19.0993C9.597 19.0993 9.24663 19.0091 8.93384 18.8285L2.86042 15.3219L0.455368 16.7105C0.243526 16.8328 0.112737 17.059 0.112737 17.304C0.112737 17.549 0.243526 17.7748 0.455368 17.8975L9.60474 23.1803C9.81658 23.3026 10.0778 23.3026 10.29 23.1803L19.4401 17.8975C19.6519 17.7752 19.7827 17.549 19.7827 17.304C19.7827 17.059 19.6519 16.8332 19.4401 16.7105Z" fill="#A3A3A3"/>
</svg>
