<svg width="20" height="17" viewBox="0 0 20 17" fill="none" xmlns="http://www.w3.org/2000/svg">
<path fill-rule="evenodd" clip-rule="evenodd" d="M1.46895 16.1441C1.09409 16.1441 0.716972 16.0085 0.430183 15.7349C-0.143394 15.1878 -0.143394 14.3005 0.430183 13.7555L6.39178 8.07369L0.430183 2.38969C-0.143394 1.84477 -0.143394 0.957384 0.430183 0.410307C1.00376 -0.136769 1.93413 -0.136769 2.50771 0.410307L9.5058 7.08292C9.77904 7.34569 9.93486 7.70107 9.93486 8.07153C9.93486 8.44199 9.77904 8.79953 9.5058 9.06015L2.50771 15.7349C2.22092 16.0085 1.8438 16.1441 1.46895 16.1441Z" fill="#595959"/>
<path fill-rule="evenodd" clip-rule="evenodd" d="M18.4759 16.1441H11.3287C10.5589 16.1441 9.93486 15.5881 9.93486 14.9023C9.93486 14.2164 10.5589 13.6604 11.3287 13.6604H18.4759C19.2457 13.6604 19.8697 14.2164 19.8697 14.9023C19.8697 15.5881 19.2457 16.1441 18.4759 16.1441Z" fill="#999999"/>
</svg>
