<svg width="26" height="23" viewBox="0 0 26 23" fill="none" xmlns="http://www.w3.org/2000/svg">
<path fill-rule="evenodd" clip-rule="evenodd" d="M22.9355 3.63754C24.068 2.88641 24.9004 1.74693 25.2824 0.424615C24.2441 1.09692 23.0967 1.57462 21.8937 1.83292C20.9163 0.676667 19.4968 0.00833227 18.0007 0C15.054 0 12.6655 2.599 12.6655 5.80662C12.6655 6.25069 12.7123 6.69477 12.8059 7.12823C8.372 6.88762 4.4408 4.577 1.8096 1.06331C1.33262 1.95903 1.08462 2.96306 1.08853 3.98254C1.08853 5.99592 2.028 7.774 3.45973 8.81431C2.60732 8.78404 1.7762 8.53453 1.04347 8.08892V8.16146C1.04347 10.9745 2.88427 13.3223 5.3248 13.8548C4.54138 14.0861 3.71481 14.1207 2.91547 13.9557C3.5932 16.2628 5.564 17.94 7.8988 17.9878C5.70926 19.8779 2.84617 20.7494 0 20.3922C2.4038 22.0864 5.25492 22.9958 8.17613 23C17.9868 23 23.3532 14.1538 23.3532 6.47892C23.3532 6.22769 23.348 5.97646 23.3376 5.72877C24.3923 4.89549 25.2938 3.87773 26 2.72285C25.0321 3.19057 23.9978 3.49927 22.9355 3.63754Z" fill="white"/>
</svg>
