<svg width="18" height="17" viewBox="0 0 18 17" fill="none" xmlns="http://www.w3.org/2000/svg"> <path d="M8.74631 16.5C9.19348 16.5 9.64004 16.333 9.98273 16.0005C10.6681 15.3356 10.6681 14.2655 9.98273 13.6006L6.4755 10.1972L15.7506 10.1972C16.7199 10.1972 17.5 9.4395 17.5 8.49915C17.5 7.55881 16.7199 6.8019 15.7506 6.8019L6.4746 6.8019L9.98273 3.3986C10.6681 2.7337 10.6681 1.6636 9.98273 0.998699C9.29734 0.333798 8.19436 0.333798 7.509 0.998698L1.014 7.29965C0.328701 7.96458 0.328701 9.03462 1.014 9.69955L7.509 16.0005C7.8517 16.333 8.29913 16.5 8.74631 16.5Z" fill="black"/> </svg>