<svg width="16" height="17" viewBox="0 0 16 17" fill="none" xmlns="http://www.w3.org/2000/svg">
<path d="M16 8.75369C16 8.30652 15.833 7.85996 15.5005 7.51727C14.8356 6.83187 13.7655 6.83187 13.1006 7.51727L9.69725 11.0245V1.74945C9.69725 0.780154 8.9395 0 7.99915 0C7.05881 0 6.30195 0.780154 6.30195 1.74945V11.0254L2.89859 7.51727C2.23367 6.83187 1.16362 6.83187 0.498695 7.51727C-0.166232 8.20266 -0.166232 9.30564 0.498695 9.99104L6.79965 16.486C7.46458 17.1713 8.53462 17.1713 9.19955 16.486L15.5005 9.99104C15.833 9.64834 16 9.20087 16 8.75369Z" fill="#4360DF"/>
</svg>
