<svg width="426" height="460" viewBox="0 0 426 460" fill="none" xmlns="http://www.w3.org/2000/svg">
<rect width="426" height="460" fill="#18B6FF"/>
<mask id="mask0" mask-type="alpha" maskUnits="userSpaceOnUse" x="0" y="0" width="426" height="460">
<rect width="426" height="460" fill="white"/>
</mask>
<g mask="url(#mask0)">
<path opacity="0.5" fill-rule="evenodd" clip-rule="evenodd" d="M-81.3497 29.1972C-95.9426 44.0784 -119.602 44.0784 -134.195 29.1972L-172.007 -9.36171C-186.6 -24.2431 -186.6 -48.3705 -172.007 -63.2514L-134.195 -98.8389C-119.602 -113.72 -95.9426 -113.72 -81.3497 -98.8389L-43.5379 -63.2514C-28.945 -48.3705 -28.945 -24.2431 -43.5379 -9.36171L-81.3497 29.1972ZM333.769 29.1972C319.177 44.0784 295.516 44.0784 280.924 29.1972L243.112 -9.36171C228.52 -24.2431 228.52 -48.3705 243.112 -63.2514L280.924 -98.8389C295.516 -113.72 319.177 -113.72 333.769 -98.8389L371.581 -63.2514C386.173 -48.3705 386.173 -24.2431 371.581 -9.36171L333.769 29.1972ZM-241.244 138.697C-226.651 153.578 -202.991 153.578 -188.398 138.697L-150.586 100.138C-135.993 85.257 -135.993 61.1295 -150.586 46.2486L-188.398 10.661C-202.991 -4.22033 -226.651 -4.22033 -241.244 10.661L-279.055 46.2486C-293.648 61.1295 -293.648 85.257 -279.055 100.138L-241.244 138.697ZM-134.195 250.649C-119.602 265.53 -95.9425 265.53 -81.3496 250.649L-43.5379 212.09C-28.945 197.208 -28.945 173.081 -43.5379 158.2L-81.3496 122.612C-95.9425 107.731 -119.602 107.731 -134.195 122.612L-172.007 158.2C-186.6 173.081 -186.6 197.208 -172.007 212.09L-134.195 250.649ZM128.661 250.649C114.069 265.53 90.4088 265.53 75.8159 250.649L38.0045 212.09C23.4116 197.208 23.4116 173.081 38.0045 158.2L75.8159 122.612C90.4088 107.731 114.069 107.731 128.661 122.612L166.473 158.2C181.066 173.081 181.066 197.208 166.473 212.09L128.661 250.649ZM-27.9637 138.697C-13.3708 153.578 10.289 153.578 24.8819 138.697L62.6936 100.138C77.2865 85.257 77.2865 61.1295 62.6936 46.2486L24.8819 10.661C10.289 -4.22031 -13.3708 -4.22031 -27.9637 10.661L-65.7753 46.2486C-80.3681 61.1295 -80.3681 85.257 -65.7753 100.138L-27.9637 138.697ZM75.8159 29.1972C90.4088 44.0784 114.069 44.0784 128.661 29.1972L166.473 -9.36171C181.066 -24.2431 181.066 -48.3705 166.473 -63.2514L128.661 -98.8389C114.069 -113.72 90.4088 -113.72 75.8159 -98.8389L38.0045 -63.2514C23.4116 -48.3705 23.4116 -24.2431 38.0045 -9.36171L75.8159 29.1972ZM-241.244 360.966C-226.651 375.846 -202.991 375.846 -188.398 360.966L-150.586 322.407C-135.993 307.524 -135.993 283.398 -150.586 268.517L-188.398 232.93C-202.991 218.048 -226.651 218.048 -241.244 232.93L-279.055 268.517C-293.648 283.398 -293.648 307.524 -279.055 322.407L-241.244 360.966ZM24.8819 365.868C10.289 380.751 -13.3708 380.751 -27.9637 365.868L-65.7753 327.309C-80.3681 312.429 -80.3681 288.301 -65.7753 273.42L-27.9637 237.833C-13.3708 222.951 10.289 222.951 24.8819 237.833L62.6936 273.42C77.2865 288.301 77.2865 312.429 62.6936 327.309L24.8819 365.868ZM177.962 365.868C192.555 380.751 216.214 380.751 230.807 365.868L268.618 327.309C283.213 312.429 283.213 288.301 268.618 273.42L230.807 237.833C216.214 222.951 192.555 222.951 177.962 237.833L140.15 273.42C125.557 288.301 125.557 312.429 140.15 327.309L177.962 365.868ZM435.916 365.868C421.321 380.751 397.663 380.751 383.071 365.868L345.259 327.309C330.664 312.429 330.664 288.301 345.259 273.42L383.071 237.833C397.663 222.951 421.321 222.951 435.916 237.833L473.728 273.42C488.32 288.301 488.32 312.429 473.728 327.309L435.916 365.868ZM177.962 138.697C192.555 153.578 216.214 153.578 230.807 138.697L268.618 100.138C283.213 85.257 283.213 61.1295 268.618 46.2486L230.807 10.661C216.214 -4.22031 192.555 -4.22031 177.962 10.661L140.15 46.2486C125.557 61.1295 125.557 85.257 140.15 100.138L177.962 138.697ZM333.769 250.649C319.177 265.53 295.516 265.53 280.924 250.649L243.112 212.09C228.52 197.208 228.52 173.081 243.112 158.2L280.924 122.612C295.516 107.731 319.177 107.731 333.769 122.612L371.581 158.2C386.173 173.081 386.173 197.208 371.581 212.09L333.769 250.649ZM484.399 250.649C498.991 265.53 522.652 265.53 537.244 250.649L575.056 212.09C589.648 197.208 589.648 173.081 575.056 158.2L537.244 122.612C522.652 107.731 498.991 107.731 484.399 122.612L446.587 158.2C431.995 173.081 431.995 197.208 446.587 212.09L484.399 250.649ZM435.916 138.697C421.321 153.578 397.663 153.578 383.071 138.697L345.259 100.138C330.664 85.257 330.664 61.1295 345.259 46.2486L383.071 10.661C397.663 -4.22031 421.321 -4.22031 435.916 10.661L473.728 46.2486C488.32 61.1295 488.32 85.257 473.728 100.138L435.916 138.697Z" fill="url(#paint0_linear)"/>
<path fill-rule="evenodd" clip-rule="evenodd" d="M349.024 185.814C349.024 208.379 330.73 226.672 308.164 226.672C285.598 226.672 267.307 208.379 267.307 185.814C267.307 163.248 285.598 144.955 308.164 144.955C330.73 144.955 349.024 163.248 349.024 185.814ZM290.512 192.368C292.594 190.283 295.42 189.11 298.369 189.108C299.827 189.108 301.273 189.397 302.62 189.956C303.97 190.515 305.194 191.334 306.226 192.367C307.258 193.4 308.077 194.626 308.635 195.975C309.193 197.323 309.478 198.769 309.478 200.229C309.478 201.689 309.193 203.135 308.635 204.484C308.077 205.833 307.258 207.059 306.226 208.092C305.194 209.124 303.967 209.943 302.62 210.503C301.27 211.062 299.824 211.35 298.366 211.35C295.417 211.347 292.594 210.174 290.509 208.089C288.427 206.003 287.257 203.176 287.26 200.229C287.257 197.281 288.427 194.454 290.512 192.368ZM292.891 205.714C294.343 207.168 296.314 207.985 298.369 207.987C300.421 207.983 302.392 207.165 303.844 205.711C305.296 204.258 306.112 202.288 306.115 200.234C306.115 199.216 305.917 198.208 305.527 197.267C305.137 196.326 304.567 195.471 303.847 194.751C303.13 194.031 302.275 193.46 301.333 193.07C300.394 192.68 299.386 192.479 298.369 192.479C297.349 192.479 296.341 192.68 295.402 193.071C294.463 193.461 293.608 194.032 292.888 194.752C292.171 195.472 291.601 196.327 291.211 197.268C290.821 198.208 290.623 199.216 290.623 200.234C290.623 202.289 291.439 204.26 292.891 205.714ZM317.848 166.233C319.195 165.673 320.641 165.385 322.099 165.384C323.56 165.385 325.006 165.673 326.353 166.232C327.703 166.791 328.927 167.61 329.959 168.643C330.991 169.676 331.81 170.902 332.368 172.251C332.926 173.6 333.214 175.046 333.211 176.505C333.214 177.966 332.926 179.411 332.368 180.76C331.81 182.109 330.991 183.336 329.959 184.368C328.927 185.401 327.703 186.22 326.353 186.779C325.003 187.338 323.56 187.626 322.099 187.627C319.15 187.625 316.324 186.452 314.242 184.366C312.16 182.281 310.99 179.453 310.99 176.505C310.99 175.046 311.278 173.6 311.836 172.251C312.394 170.902 313.21 169.677 314.242 168.644C315.274 167.611 316.498 166.792 317.848 166.233ZM319.135 183.672C320.077 184.062 321.085 184.263 322.102 184.263C324.154 184.259 326.125 183.44 327.577 181.987C329.026 180.534 329.845 178.565 329.848 176.511C329.848 175.493 329.647 174.485 329.26 173.544C328.87 172.604 328.3 171.749 327.58 171.029C326.86 170.309 326.008 169.737 325.066 169.347C324.127 168.957 323.119 168.756 322.102 168.755C321.082 168.756 320.074 168.957 319.135 169.347C318.196 169.737 317.341 170.308 316.621 171.028C315.901 171.748 315.331 172.603 314.941 173.544C314.554 174.485 314.353 175.493 314.353 176.511C314.353 177.528 314.554 178.536 314.944 179.477C315.331 180.417 315.901 181.272 316.621 181.992C317.341 182.712 318.196 183.283 319.135 183.672ZM291.331 167.903C293.317 166.278 295.804 165.388 298.369 165.384H309.475V168.748H306.328C308.116 170.589 309.217 172.992 309.436 175.55C309.658 178.108 308.989 180.664 307.54 182.785C306.094 184.905 303.961 186.459 301.498 187.183C299.038 187.907 296.401 187.757 294.037 186.759C291.676 185.757 289.732 183.97 288.535 181.7C287.341 179.43 286.966 176.817 287.476 174.303C287.986 171.789 289.348 169.528 291.331 167.903ZM305.527 179.472C305.917 178.531 306.115 177.523 306.115 176.505H306.118C306.115 174.451 305.299 172.481 303.844 171.027C302.392 169.574 300.424 168.756 298.369 168.753C296.314 168.754 294.343 169.572 292.891 171.025C291.439 172.479 290.623 174.45 290.623 176.505C290.623 178.561 291.439 180.532 292.891 181.986C294.343 183.44 296.314 184.257 298.369 184.258C299.386 184.258 300.394 184.057 301.333 183.667C302.275 183.278 303.127 182.706 303.847 181.986C304.567 181.267 305.137 180.412 305.527 179.472Z" fill="#18B6FF"/>
<path fill-rule="evenodd" clip-rule="evenodd" d="M-0.578514 51.1105L-16.822 67.3702L-26.2732 57.9088L-0.578514 32.1868L25.1252 57.9172L15.6734 67.3786L-0.578514 51.1105ZM-32.9473 64.588L-42.3994 74.0494L-32.9479 83.5105L-23.4961 74.0488L-32.9473 64.588ZM-16.822 80.7313L-0.578514 96.991L15.6731 80.7235L25.1297 90.1798L25.1252 90.1849L-0.578514 115.915L-26.2741 90.1936L-26.2873 90.1801L-16.822 80.7313ZM31.7927 64.5931L22.3409 74.0548L31.7924 83.5156L41.2442 74.0542L31.7927 64.5931Z" fill="#18B6FF"/>
<path d="M9.08269 74.0459H9.08689L-0.504114 64.4453L-7.59221 71.5403H-7.59251L-8.40701 72.356L-10.0864 74.0375L-10.0999 74.0507L-10.0864 74.0645L-0.504114 83.6567L9.08689 74.0561L9.09169 74.0507L9.08269 74.0459Z" fill="#18B6FF"/>
<path fill-rule="evenodd" clip-rule="evenodd" d="M103.185 148.224H100.982C100.543 148.271 100.103 148.303 99.6637 148.335C99.0645 148.378 98.4652 148.422 97.8692 148.504C90.2144 149.411 82.8968 152.872 77.2619 158.174C76.1363 159.225 75.0788 160.347 74.096 161.535L74.1116 161.561L74.1117 161.561L74.1117 161.561C74.1804 161.678 74.2487 161.794 74.3246 161.907C76.9277 165.529 79.5647 169.131 82.316 172.642C84.4292 169.327 87.3317 166.523 90.7424 164.599C90.8506 164.54 90.9583 164.48 91.066 164.42C91.4674 164.196 91.8696 163.972 92.3015 163.814C93.1667 164.635 94.0139 165.475 94.8613 166.316L94.8614 166.316C95.4857 166.936 96.1102 167.555 96.7421 168.167C96.9335 168.348 97.1186 168.535 97.3038 168.722C97.6038 169.026 97.9038 169.329 98.2307 169.603C102.14 166.785 106.04 163.953 109.94 161.122C112.554 159.224 115.167 157.327 117.783 155.434C118.16 155.151 118.544 154.878 118.928 154.604L118.928 154.604C119.526 154.177 120.124 153.751 120.696 153.29C116.609 150.845 112.026 149.265 107.325 148.596C106.054 148.413 104.772 148.329 103.492 148.244L103.492 148.244L103.185 148.224ZM125.828 156.931C123.466 158.612 121.155 160.368 118.848 162.127C118.486 162.409 118.122 162.689 117.758 162.969L117.758 162.969C116.787 163.716 115.816 164.463 114.877 165.249C115.936 165.982 116.984 166.736 117.935 167.611C120.355 169.795 122.306 172.457 123.669 175.433C122.728 176.449 121.769 177.45 120.81 178.45L120.81 178.45L120.81 178.45C119.776 179.528 118.743 180.606 117.732 181.704C118.245 182.414 118.772 183.114 119.299 183.813L119.299 183.813C119.646 184.274 119.994 184.735 120.337 185.199L133.692 203.039C133.731 203.091 133.769 203.143 133.807 203.196L133.807 203.196C133.934 203.373 134.063 203.552 134.229 203.695C135.611 201.245 136.709 198.643 137.501 195.939C139.766 188.264 139.48 179.844 136.664 172.354C134.441 166.39 130.677 161.01 125.828 156.931ZM68.0477 171.782C68.7095 170.127 69.4475 168.492 70.3643 166.963C71.1878 168.012 71.9878 169.079 72.7878 170.147L72.7878 170.147L72.7879 170.147C73.2471 170.76 73.7064 171.373 74.1701 171.983C78.2033 177.324 82.2344 182.665 86.2634 188.008C86.3313 188.098 86.4005 188.187 86.4697 188.277C86.6698 188.535 86.8698 188.794 87.0383 189.075C86.0986 190.066 85.1477 191.047 84.1967 192.028L84.1964 192.029C83.0881 193.172 81.9798 194.315 80.8892 195.475C81.3779 196.643 82.04 197.729 82.7309 198.785C83.7794 200.344 85.0058 201.773 86.3849 203.043C87.3776 203.981 88.4864 204.778 89.6009 205.56C88.9159 206.142 88.2042 206.691 87.4928 207.24C87.1956 207.469 86.8984 207.698 86.6033 207.93C84.8186 209.311 83.0192 210.672 81.2051 212.014C80.894 212.237 80.5876 212.466 80.2811 212.696L80.281 212.696C79.742 213.1 79.2031 213.503 78.6389 213.87C72.9296 209.044 68.7272 202.427 66.7748 195.168C65.9813 192.291 65.5952 189.315 65.4665 186.335V184.476C65.4825 184.234 65.4981 183.992 65.5137 183.75L65.5137 183.749L65.5137 183.749C65.5397 183.347 65.5657 182.944 65.5934 182.542C65.8739 178.851 66.7013 175.224 68.0477 171.782ZM122.195 198.171C121.436 199.284 120.659 200.39 119.748 201.385C117.637 203.732 115.075 205.682 112.218 207.003C111.522 206.358 110.851 205.685 110.179 205.013C109.728 204.561 109.277 204.109 108.819 203.666C108.417 203.278 108.023 202.884 107.629 202.489C107.065 201.925 106.501 201.361 105.918 200.818C100.08 205.23 94.241 209.64 88.3994 214.045C87.7683 214.526 87.1347 215.003 86.5013 215.48C85.5986 216.16 84.6961 216.84 83.801 217.529C88.2491 220.191 93.2849 221.83 98.4227 222.376C98.7947 222.42 99.1683 222.446 99.5419 222.473C99.9616 222.503 100.381 222.533 100.799 222.586H103.463C105.256 222.467 107.052 222.322 108.817 221.98C116.287 220.62 123.286 216.824 128.569 211.325C128.692 211.193 128.816 211.062 128.94 210.931C129.456 210.386 129.974 209.839 130.408 209.227C128.52 206.544 126.568 203.908 124.596 201.288C124.391 201.019 124.187 200.75 123.983 200.481C123.394 199.705 122.805 198.929 122.195 198.171Z" fill="#18B6FF"/>
<path fill-rule="evenodd" clip-rule="evenodd" d="M408.787 32.1868V62.6182L387.04 73.4965L408.787 32.1868ZM410.215 32.1994V62.6182L431.659 73.345L410.215 32.1994ZM410.215 64.3993V90.3061L432.373 75.4837L410.215 64.3993ZM408.787 90.3067V64.3993L386.611 75.4912L408.787 90.3067ZM410.215 116.354V95.5171L432.223 80.8015L410.215 116.354ZM386.776 80.8015L408.787 116.354V95.5171L386.776 80.8015Z" fill="#18B6FF"/>
<path fill-rule="evenodd" clip-rule="evenodd" d="M212.709 73.882C207.665 74.1727 204.504 72.9976 199.459 73.2889C198.208 73.3591 196.966 73.5406 195.746 73.831C196.491 64.5019 203.093 56.341 212.071 55.8223C217.581 55.5043 223.088 58.906 223.387 64.4284C223.681 69.856 219.542 73.4872 212.71 73.8811L212.709 73.882ZM199.164 92.9641C193.886 93.2623 188.611 90.0775 188.325 84.91C188.043 79.8304 192.008 76.432 198.554 76.063C203.385 75.7906 206.414 76.8907 211.246 76.618C212.443 76.5523 213.634 76.3825 214.802 76.1107C214.09 84.8413 207.765 92.4793 199.164 92.9641ZM205.61 32.1874C182.368 32.1868 163.526 51.0277 163.526 74.2705C163.526 97.5136 182.368 116.354 205.61 116.354C228.853 116.354 247.693 97.5127 247.693 74.2705C247.693 51.0286 228.853 32.1868 205.61 32.1868" fill="#18B6FF"/>
<path fill-rule="evenodd" clip-rule="evenodd" d="M449.533 281.779L410.635 259.358H410.368L371.902 281.779V326.76L410.368 349.167L410.68 349.245L449.533 326.76V281.779ZM375.988 284.13L410.509 264.012L414.721 266.351L445.447 284.139V324.396L414.721 342.081L410.506 344.523L375.988 324.408V284.13ZM381.337 307.398L391.555 299.751L400.588 305.526V315.912L407.425 322.503L407.422 325.593L400.834 331.77H395.275L381.34 307.398H381.337ZM413.614 322.494L413.626 325.602L420.205 331.698H425.698L439.561 307.401L429.361 299.676L420.427 305.526V315.912L413.614 322.494ZM403.945 305.526L400.618 296.811H420.385L417.124 305.526L418.09 315.264L410.461 315.282L402.922 315.294L403.945 305.526ZM391.675 294.415L410.461 294.423L429.34 294.435L425.665 278.794H395.167L391.675 294.415Z" fill="#18B6FF"/>
<path fill-rule="evenodd" clip-rule="evenodd" d="M219.037 266.339C219.037 270.645 215.563 274.137 211.278 274.137C206.993 274.137 203.519 270.645 203.519 266.339C203.519 262.032 206.993 258.541 211.278 258.541C215.563 258.541 219.037 262.032 219.037 266.339ZM247.702 296.377C247.702 305.307 240.499 312.549 231.612 312.549C222.725 312.549 215.521 305.307 215.521 296.377C215.521 287.446 222.725 280.206 231.612 280.206C240.499 280.206 247.702 287.446 247.702 296.377ZM211.278 334.251C215.563 334.251 219.037 330.759 219.037 326.454C219.037 322.146 215.563 318.657 211.278 318.657C206.993 318.657 203.519 322.146 203.519 326.454C203.519 330.759 206.993 334.251 211.278 334.251ZM209.176 308.286C208.679 308.286 208.183 308.208 207.724 308.055C207.724 308.055 199.43 305.136 193.849 318.003C193.62 318.732 193.353 319.425 193.009 320.076V320.115C191.098 323.88 187.161 326.454 182.65 326.454C176.191 326.454 170.955 321.192 170.955 314.7C170.955 308.208 176.191 302.946 182.65 302.946C184.867 302.946 186.893 303.561 188.651 304.596C188.651 304.596 199.392 310.935 204.742 301.446C204.819 301.218 204.934 300.987 205.087 300.795V300.756C205.966 299.412 207.456 298.527 209.176 298.527C211.852 298.527 214.03 300.717 214.03 303.405C214.03 306.096 211.852 308.286 209.176 308.286ZM205.851 291.998C205.507 291.653 205.201 291.23 204.972 290.808C204.972 290.808 201.188 282.818 188.231 287.965C187.543 288.311 186.855 288.618 186.167 288.849H186.129C182.077 290.154 177.529 289.194 174.318 285.968C169.732 281.397 169.77 273.945 174.318 269.373C178.867 264.802 186.243 264.802 190.83 269.412C192.359 270.948 193.391 272.831 193.888 274.828C193.888 274.828 197.022 286.966 207.494 284.047C207.724 283.932 207.991 283.855 208.221 283.816H208.259C209.788 283.471 211.469 283.893 212.692 285.123C214.604 287.005 214.604 290.078 212.692 291.998C210.82 293.919 207.762 293.919 205.851 291.998Z" fill="#18B6FF"/>
<path fill-rule="evenodd" clip-rule="evenodd" d="M-0.812519 248.29C3.45528 251.491 9.14688 261.446 9.14688 273.183C9.14688 279.039 4.98018 284.597 0.628681 290.403C-4.53432 297.291 -9.95742 304.527 -8.99142 313.017C-8.47452 319.047 -5.95482 323.574 -4.38342 326.397C-2.71062 329.403 -2.11272 330.477 -6.14712 329.379C-20.0176 325.464 -33.5311 304.482 -18.9505 285.633C-17.5798 283.697 -15.9343 281.889 -14.2051 279.989C-8.30982 273.513 -1.44252 265.968 -1.16922 248.643C-1.16922 247.933 -0.812519 248.29 -0.812519 248.29ZM9.14628 295.589C13.0574 289.901 15.9014 283.852 16.6151 281.008C19.8158 283.499 28.3514 292.035 26.9276 305.547C25.958 318.153 16.1753 324.297 14.132 325.578C13.9271 325.707 13.8002 325.788 13.7675 325.821C9.59958 327.78 9.48948 329.742 9.00648 329.841C8.78898 329.883 8.49588 329.547 7.72248 328.665C3.45468 323.685 -4.01382 314.439 9.14628 295.589Z" fill="#18B6FF"/>
</g>
<defs>
<linearGradient id="paint0_linear" x1="138.829" y1="303.531" x2="401.049" y2="-117.699" gradientUnits="userSpaceOnUse">
<stop stop-color="white" stop-opacity="0.01"/>
<stop offset="1" stop-color="white"/>
</linearGradient>
</defs>
</svg>
