<svg width="32" height="32" viewBox="0 0 32 32" fill="none" xmlns="http://www.w3.org/2000/svg"> <path d="M15.9154 31.3227C7.44979 31.3227 0.564431 24.4374 0.564431 15.9718C0.507994 7.44972 7.39336 0.564362 15.9154 0.564362C24.381 0.564362 31.2664 7.44972 31.2664 15.9153C31.2664 24.3809 24.381 31.3227 15.9154 31.3227ZM15.9154 4.68429C9.70729 4.68429 4.68436 9.70722 4.68436 15.9153C4.68436 22.1234 9.70729 27.1464 15.9154 27.1464C22.1235 27.1464 27.1464 22.1234 27.1464 15.9153C27.1464 9.70722 22.0671 4.68429 15.9154 4.68429Z" fill="#585856"/> <path d="M15.9153 24.2117C14.7866 24.2117 13.8271 23.3087 13.8271 22.1235V8.80425C13.8271 7.6755 14.7301 6.71606 15.9153 6.71606C17.0441 6.71606 18.0035 7.61906 18.0035 8.80425V22.1235C17.9471 23.2522 17.0441 24.2117 15.9153 24.2117Z" fill="#9B9A9A"/> </svg>