<svg width="607" height="608" viewBox="0 0 607 608" fill="none" xmlns="http://www.w3.org/2000/svg"> <path fill-rule="evenodd" clip-rule="evenodd" d="M303.5 1C136.434 1 1 136.66 1 304C1 471.343 136.434 607 303.5 607C470.566 607 606 471.343 606 304C606 136.66 470.566 1 303.5 1ZM313.101 292.145C328.251 293.726 343.401 295.306 362.027 294.266C412.491 291.447 443.061 265.485 440.892 226.68C438.681 187.197 398.012 162.872 357.32 165.147C291.006 168.85 242.242 227.205 236.75 293.901C245.755 291.787 255.234 290.524 264.174 290.025C282.801 288.985 297.951 290.565 313.101 292.145ZM183.103 378.46C185.195 414.653 223.724 436.951 262.276 434.865C325.099 431.47 371.299 377.978 376.5 316.84C367.968 318.778 358.989 319.937 350.52 320.394C332.873 321.347 318.52 319.899 304.166 318.45C289.813 317.002 275.46 315.553 257.814 316.507C210.008 319.091 181.045 342.888 183.103 378.46Z" fill="white"/> <path d="M313.101 292.145L313.153 291.648H313.153L313.101 292.145ZM362.027 294.266L362.055 294.766L362.055 294.766L362.027 294.266ZM440.892 226.68L441.391 226.652V226.652L440.892 226.68ZM357.32 165.147L357.348 165.646L357.32 165.147ZM236.75 293.901L236.251 293.86L236.195 294.545L236.864 294.388L236.75 293.901ZM264.174 290.025L264.201 290.524L264.174 290.025ZM183.103 378.46L183.602 378.431V378.431L183.103 378.46ZM262.276 434.865L262.249 434.366L262.276 434.865ZM376.5 316.84L376.998 316.882L377.056 316.2L376.389 316.352L376.5 316.84ZM350.52 320.394L350.493 319.895H350.493L350.52 320.394ZM304.166 318.45L304.216 317.952L304.216 317.952L304.166 318.45ZM257.814 316.507L257.787 316.008L257.814 316.507ZM303.5 0.5C136.157 0.5 0.5 136.384 0.5 304H1.5C1.5 136.935 136.71 1.5 303.5 1.5V0.5ZM0.5 304C0.5 471.618 136.157 607.5 303.5 607.5V606.5C136.71 606.5 1.5 471.067 1.5 304H0.5ZM303.5 607.5C470.843 607.5 606.5 471.618 606.5 304H605.5C605.5 471.067 470.289 606.5 303.5 606.5V607.5ZM606.5 304C606.5 136.384 470.843 0.5 303.5 0.5V1.5C470.289 1.5 605.5 136.935 605.5 304H606.5ZM313.049 292.643C328.198 294.224 343.384 295.808 362.055 294.766L361.999 293.767C343.417 294.805 328.303 293.229 313.153 291.648L313.049 292.643ZM362.055 294.766C387.36 293.352 407.735 286.133 421.522 274.348C435.322 262.551 442.484 246.207 441.391 226.652L440.393 226.708C441.469 245.958 434.43 261.998 420.872 273.588C407.3 285.189 387.158 292.361 361.999 293.767L362.055 294.766ZM441.391 226.652C440.275 206.73 429.454 190.647 413.82 179.843C398.192 169.043 377.741 163.505 357.292 164.648L357.348 165.646C377.591 164.514 397.82 170.001 413.252 180.666C428.678 191.326 439.297 207.147 440.393 226.708L441.391 226.652ZM357.292 164.648C290.675 168.368 241.759 226.972 236.251 293.86L237.248 293.942C242.724 227.437 291.337 169.332 357.348 165.646L357.292 164.648ZM236.864 294.388C245.838 292.281 255.288 291.022 264.201 290.524L264.146 289.526C255.181 290.026 245.673 291.293 236.635 293.415L236.864 294.388ZM264.201 290.524C282.784 289.487 297.898 291.062 313.049 292.643L313.153 291.648C298.003 290.068 282.817 288.484 264.146 289.526L264.201 290.524ZM182.604 378.489C183.661 396.773 193.924 411.526 208.739 421.433C223.549 431.336 242.928 436.413 262.303 435.365L262.249 434.366C243.072 435.404 223.911 430.374 209.295 420.602C194.685 410.832 184.637 396.341 183.602 378.431L182.604 378.489ZM262.303 435.365C325.417 431.953 371.78 378.225 376.998 316.882L376.002 316.797C370.818 377.732 324.781 430.986 262.249 434.366L262.303 435.365ZM376.389 316.352C367.888 318.284 358.937 319.439 350.493 319.895L350.547 320.893C359.041 320.435 368.048 319.273 376.611 317.327L376.389 316.352ZM350.493 319.895C332.889 320.846 318.57 319.402 304.216 317.952L304.116 318.947C318.469 320.397 332.857 321.849 350.547 320.893L350.493 319.895ZM304.216 317.952C289.864 316.504 275.475 315.052 257.787 316.008L257.841 317.006C275.444 316.055 289.763 317.499 304.116 318.947L304.216 317.952ZM257.787 316.008C233.814 317.304 214.507 323.92 201.441 334.728C188.359 345.548 181.565 360.544 182.604 378.489L183.602 378.431C182.582 360.804 189.241 346.116 202.078 335.498C214.93 324.868 234.008 318.295 257.841 317.006L257.787 316.008Z" fill="#DFDFDF"/> </svg>