<svg width="32" height="32" viewBox="0 0 32 32" fill="none" xmlns="http://www.w3.org/2000/svg"> <path d="M18.455 24.1552C12.642 24.1552 7.90125 19.4145 7.90125 13.6579C7.90125 7.90124 12.642 3.10406 18.455 3.10406C24.2681 3.10406 29.0088 7.84481 29.0088 13.6579C29.0088 19.4709 24.2681 24.1552 18.455 24.1552ZM18.455 7.44974C15.0688 7.44974 12.3034 10.2152 12.3034 13.6014C12.3034 16.9877 15.0688 19.7531 18.455 19.7531C21.8413 19.7531 24.6067 16.9877 24.6067 13.6014C24.6067 10.2152 21.8413 7.44974 18.455 7.44974Z" fill="#9B9A9A"/> <path d="M29.6296 31.3227H3.21693C2.03174 31.3227 1.01587 30.3633 1.01587 29.1217V2.70898C1.01587 1.5238 2.03174 0.564362 3.21693 0.564362C4.40211 0.564362 5.41799 1.5238 5.41799 2.76542V26.9771H29.6296C30.8148 26.9771 31.8307 27.9365 31.8307 29.1781C31.8307 30.4197 30.8148 31.3227 29.6296 31.3227Z" fill="#585856"/> </svg>