<svg width="63" height="24" viewBox="0 0 63 24" fill="none" xmlns="http://www.w3.org/2000/svg">
<g clip-path="url(#clip0)">
<path fill-rule="evenodd" clip-rule="evenodd" d="M11.9873 0C5.36688 0 0 5.37264 0 12C0 18.6274 5.36688 24 11.9873 24C18.6077 24 23.9746 18.6274 23.9746 12C23.9746 5.37264 18.6077 0 11.9873 0Z" fill="#4360DF"/>
<path fill-rule="evenodd" clip-rule="evenodd" d="M12.3898 11.4742C12.9917 11.5369 13.5937 11.5996 14.3337 11.5583C16.3388 11.4464 17.5533 10.4162 17.4671 8.87629C17.3793 7.30957 15.7635 6.34429 14.1467 6.43453C11.5119 6.58147 9.57444 8.89715 9.35626 11.5438C9.71407 11.4599 10.0907 11.4098 10.4459 11.39C11.186 11.3488 11.7879 11.4114 12.3898 11.4742ZM7.22479 14.8993C7.30794 16.3355 8.83876 17.2204 10.3704 17.1376C12.8665 17.0029 14.7021 14.8802 14.9088 12.4541C14.5698 12.531 14.2131 12.577 13.8765 12.5951C13.1754 12.633 12.6051 12.5755 12.0348 12.518C11.4646 12.4605 10.8943 12.403 10.1932 12.4409C8.29375 12.5434 7.14303 13.4878 7.22479 14.8993Z" fill="white"/>
<path d="M28.6396 13.9926H30.3724C30.3724 14.2865 30.4552 14.4974 30.6207 14.6255C30.7863 14.7535 30.9989 14.8175 31.2585 14.8175C31.473 14.8175 31.648 14.778 31.7834 14.6989C31.9226 14.616 31.9922 14.4823 31.9922 14.2977C31.9922 14.1885 31.9622 14.1 31.9019 14.0322C31.8455 13.9606 31.7571 13.8985 31.6367 13.8457C31.5163 13.7892 31.362 13.7327 31.1738 13.6762C30.9857 13.6197 30.76 13.5481 30.4966 13.4615C30.2595 13.3862 30.0356 13.309 29.8249 13.2299C29.6179 13.147 29.4355 13.0453 29.2774 12.9248C29.1194 12.8042 28.9953 12.6573 28.9049 12.4841C28.8184 12.3108 28.7751 12.0961 28.7751 11.84C28.7751 11.5461 28.8334 11.2919 28.9501 11.0772C29.0667 10.8625 29.2304 10.6854 29.4411 10.5461C29.6518 10.4067 29.9039 10.3031 30.1975 10.2353C30.4909 10.1637 30.8145 10.1279 31.1682 10.1279C31.6009 10.1279 31.9735 10.1769 32.2858 10.2749C32.5981 10.3728 32.8539 10.5065 33.0534 10.676C33.2528 10.8455 33.3995 11.0452 33.4936 11.2749C33.5914 11.5047 33.6403 11.7514 33.6403 12.0151H31.8963C31.8963 11.7853 31.8361 11.6064 31.7157 11.4783C31.5991 11.3503 31.4203 11.2863 31.1795 11.2863C30.9951 11.2863 30.8371 11.3277 30.7054 11.4105C30.5737 11.4896 30.5079 11.6102 30.5079 11.7721C30.5079 11.8814 30.538 11.9699 30.5982 12.0377C30.6622 12.1017 30.7543 12.1601 30.8747 12.2129C30.9951 12.2656 31.1438 12.3202 31.3206 12.3767C31.4975 12.4295 31.7007 12.4935 31.9302 12.5688C32.1785 12.6366 32.4099 12.7119 32.6244 12.7948C32.8389 12.8777 33.027 12.9794 33.1888 13.0999C33.3544 13.2167 33.4842 13.3655 33.5783 13.5463C33.6761 13.7233 33.725 13.9493 33.725 14.2243C33.725 14.5482 33.6573 14.8251 33.5218 15.0549C33.3864 15.2809 33.2039 15.4654 32.9744 15.6086C32.7486 15.7517 32.4852 15.8534 32.1842 15.9137C31.8832 15.9777 31.5671 16.0097 31.2359 16.0097C30.4119 16.0097 29.7722 15.8384 29.3169 15.4956C28.8654 15.149 28.6396 14.648 28.6396 13.9926Z" fill="black"/>
<path d="M34.165 11.5969V10.2805H35.0399V8.625H36.8009V10.2805H38.0708V11.5969H36.8009V13.5915C36.8009 13.7986 36.8197 13.9644 36.8573 14.0886C36.895 14.2092 36.9476 14.3052 37.0153 14.3768C37.0868 14.4446 37.1715 14.4898 37.2693 14.5124C37.3709 14.5312 37.4838 14.5406 37.608 14.5406C37.6832 14.5406 37.7792 14.5388 37.8958 14.535C38.0124 14.5275 38.1141 14.5161 38.2006 14.5011V15.8571C38.0689 15.8797 37.9034 15.9005 37.7039 15.9193C37.5082 15.9381 37.2769 15.9475 37.0097 15.9475C36.8027 15.9475 36.5845 15.9325 36.355 15.9023C36.1255 15.8722 35.9128 15.7931 35.7172 15.6651C35.5215 15.5369 35.3598 15.3411 35.2318 15.0774C35.1039 14.81 35.0399 14.4446 35.0399 13.9813V11.5969H34.165Z" fill="black"/>
<path fill-rule="evenodd" clip-rule="evenodd" d="M38.9065 11.902C38.7748 12.2598 38.709 12.6478 38.709 13.0659C38.709 13.484 38.7748 13.872 38.9065 14.2298C39.0419 14.5876 39.2282 14.8965 39.4653 15.1564C39.7061 15.4163 39.9864 15.6216 40.3063 15.7723C40.6298 15.9229 40.976 15.9983 41.3448 15.9983C41.7737 15.9983 42.1425 15.9079 42.451 15.7271C42.7595 15.5463 42.9833 15.3278 43.1228 15.0717V15.857H44.8893V10.2804H43.1228V11.0771C42.9683 10.8059 42.737 10.5817 42.4285 10.4047C42.1237 10.2276 41.7624 10.1392 41.3448 10.1392C40.9722 10.1392 40.626 10.2145 40.3063 10.3651C39.9864 10.5158 39.7061 10.7211 39.4653 10.981C39.2282 11.2371 39.0419 11.5441 38.9065 11.902ZM40.5602 13.6196C40.4963 13.4426 40.4643 13.258 40.4643 13.0659C40.4643 12.8738 40.4963 12.693 40.5602 12.5235C40.628 12.354 40.7183 12.2033 40.8311 12.0715C40.9478 11.9396 41.087 11.8361 41.2488 11.7607C41.4106 11.6854 41.5912 11.6477 41.7907 11.6477C41.9939 11.6477 42.1763 11.6854 42.3382 11.7607C42.5 11.8361 42.6373 11.9396 42.7502 12.0715C42.8668 12.2033 42.9572 12.354 43.021 12.5235C43.0886 12.693 43.1228 12.8738 43.1228 13.0659C43.1228 13.2618 43.0886 13.4464 43.021 13.6196C42.9572 13.7929 42.8668 13.9436 42.7502 14.0716C42.6373 14.1959 42.4981 14.2976 42.3325 14.3767C42.1707 14.4521 41.9901 14.4897 41.7907 14.4897C41.5912 14.4897 41.4106 14.4521 41.2488 14.3767C41.087 14.2976 40.9478 14.1959 40.8311 14.0716C40.7183 13.9436 40.628 13.7929 40.5602 13.6196Z" fill="black"/>
<path d="M45.8379 11.5969V10.2805H46.7126V8.625H48.4738V10.2805H49.7436V11.5969H48.4738V13.5915C48.4738 13.7986 48.4927 13.9644 48.5299 14.0886C48.5676 14.2092 48.6202 14.3052 48.6883 14.3768C48.7598 14.4446 48.8441 14.4898 48.9422 14.5124C49.0437 14.5312 49.1567 14.5406 49.2808 14.5406C49.3562 14.5406 49.4521 14.5388 49.5685 14.535C49.6854 14.5275 49.7868 14.5161 49.8734 14.5011V15.8571C49.7419 15.8797 49.5762 15.9005 49.3767 15.9193C49.1811 15.9381 48.9495 15.9475 48.6823 15.9475C48.4755 15.9475 48.2572 15.9325 48.0277 15.9023C47.7983 15.8722 47.5855 15.7931 47.3898 15.6651C47.1942 15.5369 47.0323 15.3411 46.9048 15.0774C46.7768 14.81 46.7126 14.4446 46.7126 13.9813V11.5969H45.8379Z" fill="black"/>
<path d="M50.748 13.5913V10.2803H52.5034V13.1393C52.5034 13.5385 52.5748 13.8643 52.7178 14.1167C52.8608 14.3653 53.1164 14.4896 53.4856 14.4896C53.8541 14.4896 54.1251 14.3634 54.2979 14.111C54.4749 13.8549 54.5635 13.5102 54.5635 13.0771V10.2803H56.3299V15.8569H54.5635V15.0603C54.4088 15.3541 54.1736 15.5838 53.8579 15.7496C53.5416 15.9153 53.1635 15.9982 52.7234 15.9982C52.3394 15.9982 52.0234 15.9379 51.7751 15.8174C51.5307 15.6969 51.3311 15.5443 51.177 15.3597C50.9998 15.145 50.8834 14.8964 50.8268 14.6139C50.7742 14.3314 50.748 13.9905 50.748 13.5913Z" fill="black"/>
<path d="M57.4697 13.9926H59.2025C59.2025 14.2865 59.2852 14.4974 59.4511 14.6255C59.6159 14.7535 59.8287 14.8175 60.0884 14.8175C60.3028 14.8175 60.4777 14.778 60.6137 14.6989C60.7529 14.616 60.8223 14.4823 60.8223 14.2977C60.8223 14.1885 60.7924 14.1 60.7316 14.0322C60.6756 13.9606 60.5871 13.8985 60.4665 13.8457C60.3465 13.7892 60.1919 13.7327 60.0041 13.6762C59.8159 13.6197 59.5897 13.5481 59.3268 13.4615C59.0895 13.3862 58.8655 13.309 58.6548 13.2299C58.4479 13.147 58.2655 13.0453 58.1076 12.9248C57.9492 12.8042 57.8255 12.6573 57.7348 12.4841C57.6484 12.3108 57.6052 12.0961 57.6052 11.84C57.6052 11.5461 57.6633 11.2919 57.7801 11.0772C57.8969 10.8625 58.0601 10.6854 58.2708 10.5461C58.482 10.4067 58.7337 10.3031 59.0276 10.2353C59.3209 10.1637 59.6441 10.1279 59.9983 10.1279C60.4308 10.1279 60.8031 10.1769 61.1156 10.2749C61.4281 10.3728 61.6841 10.5065 61.8836 10.676C62.0831 10.8455 62.2292 11.0452 62.3236 11.2749C62.4217 11.5047 62.4703 11.7514 62.4703 12.0151H60.7263C60.7263 11.7853 60.6665 11.6064 60.5455 11.4783C60.4292 11.3503 60.25 11.2863 60.0095 11.2863C59.8249 11.2863 59.6671 11.3277 59.5353 11.4105C59.4036 11.4896 59.338 11.6102 59.338 11.7721C59.338 11.8814 59.3679 11.9699 59.4281 12.0377C59.4921 12.1017 59.5844 12.1601 59.7049 12.2129C59.8249 12.2656 59.9737 12.3202 60.1503 12.3767C60.3279 12.4295 60.5305 12.4935 60.7599 12.5688C61.0084 12.6366 61.2399 12.7119 61.4543 12.7948C61.6692 12.8777 61.8569 12.9794 62.0185 13.0999C62.1844 13.2167 62.314 13.3655 62.4084 13.5463C62.506 13.7233 62.5551 13.9493 62.5551 14.2243C62.5551 14.5482 62.4873 14.8251 62.3519 15.0549C62.2164 15.2809 62.0335 15.4654 61.8041 15.6086C61.5785 15.7517 61.3151 15.8534 61.0143 15.9137C60.7129 15.9777 60.3972 16.0097 60.066 16.0097C59.242 16.0097 58.6025 15.8384 58.1471 15.4956C57.6953 15.149 57.4697 14.648 57.4697 13.9926Z" fill="black"/>
</g>
<defs>
<clipPath id="clip0">
<rect width="62.9333" height="24" fill="white"/>
</clipPath>
</defs>
</svg>
