<svg width="211" height="60" viewBox="0 0 211 60" fill="none" xmlns="http://www.w3.org/2000/svg">
<path d="M87.9773 43.3729C86.2372 43.3729 84.6662 42.9254 83.2642 42.0305C81.8622 41.1257 80.7486 39.7983 79.9233 38.0483C79.098 36.2884 78.6854 34.1307 78.6854 31.5753C78.6854 28.9503 79.108 26.7678 79.9531 25.0277C80.8082 23.2777 81.9368 21.9702 83.3388 21.1051C84.7507 20.2301 86.2919 19.7926 87.9624 19.7926C89.245 19.7926 90.3139 20.0114 91.169 20.4489C92.0341 20.8764 92.7301 21.4084 93.2571 22.0447C93.794 22.6811 94.2017 23.3125 94.4801 23.9389H94.674V12.4545H101.013V43H94.7486V39.331H94.4801C94.1918 39.9673 93.7741 40.5987 93.2273 41.2251C92.6804 41.8416 91.9744 42.3537 91.1094 42.7614C90.2543 43.169 89.2102 43.3729 87.9773 43.3729ZM89.9908 38.3168C91.522 38.3168 92.7053 37.7003 93.5405 36.4673C94.3857 35.2244 94.8082 33.5838 94.8082 31.5455C94.8082 29.4972 94.3906 27.8714 93.5554 26.6683C92.7202 25.4553 91.532 24.8487 89.9908 24.8487C88.4197 24.8487 87.2216 25.4702 86.3963 26.7131C85.581 27.946 85.1733 29.5568 85.1733 31.5455C85.1733 33.544 85.5859 35.1747 86.4112 36.4375C87.2365 37.6903 88.4297 38.3168 89.9908 38.3168ZM111.423 43.4325C109.236 43.4325 107.421 42.8608 105.979 41.7173C104.538 40.5739 103.817 38.8686 103.817 36.6016C103.817 34.8913 104.219 33.549 105.025 32.5746C105.83 31.6001 106.884 30.8892 108.187 30.4418C109.499 29.9844 110.911 29.6861 112.422 29.5469C114.411 29.348 115.833 29.1392 116.688 28.9205C117.543 28.7017 117.971 28.2244 117.971 27.4886V27.3991C117.971 26.4545 117.672 25.7237 117.076 25.2067C116.489 24.6896 115.654 24.4311 114.57 24.4311C113.427 24.4311 112.517 24.6797 111.841 25.1768C111.165 25.674 110.717 26.3054 110.498 27.071L104.622 26.5938C105.06 24.5057 106.143 22.8501 107.873 21.6271C109.614 20.4041 111.856 19.7926 114.6 19.7926C116.3 19.7926 117.891 20.0611 119.373 20.598C120.854 21.1349 122.047 21.9751 122.952 23.1186C123.867 24.2521 124.324 25.7287 124.324 27.5483V43H118.299V39.8232H118.12C117.563 40.8871 116.728 41.7571 115.614 42.4332C114.511 43.0994 113.114 43.4325 111.423 43.4325ZM113.243 39.0476C114.635 39.0476 115.778 38.6449 116.673 37.8395C117.568 37.0241 118.016 36.0149 118.016 34.8118V32.3807C117.767 32.5497 117.379 32.6989 116.852 32.8281C116.335 32.9574 115.778 33.0717 115.182 33.1712C114.595 33.2607 114.068 33.3402 113.601 33.4098C112.487 33.5689 111.587 33.8821 110.901 34.3494C110.225 34.8168 109.887 35.4979 109.887 36.3928C109.887 37.2678 110.2 37.929 110.827 38.3764C111.463 38.8239 112.268 39.0476 113.243 39.0476ZM127.908 51.5909V20.0909H134.172V23.9389H134.455C134.744 23.3125 135.151 22.6811 135.678 22.0447C136.205 21.4084 136.901 20.8764 137.766 20.4489C138.631 20.0114 139.7 19.7926 140.973 19.7926C142.653 19.7926 144.195 20.2301 145.597 21.1051C146.999 21.9702 148.122 23.2777 148.967 25.0277C149.822 26.7678 150.25 28.9503 150.25 31.5753C150.25 34.1307 149.837 36.2884 149.012 38.0483C148.187 39.7983 147.073 41.1257 145.671 42.0305C144.269 42.9254 142.698 43.3729 140.958 43.3729C139.725 43.3729 138.676 43.169 137.811 42.7614C136.956 42.3537 136.255 41.8416 135.708 41.2251C135.171 40.5987 134.754 39.9673 134.455 39.331H134.261V51.5909H127.908ZM134.127 31.5455C134.127 33.5838 134.545 35.2244 135.38 36.4673C136.225 37.7003 137.413 38.3168 138.945 38.3168C140.506 38.3168 141.699 37.6903 142.524 36.4375C143.349 35.1747 143.762 33.544 143.762 31.5455C143.762 29.5568 143.349 27.946 142.524 26.7131C141.709 25.4702 140.516 24.8487 138.945 24.8487C137.403 24.8487 136.215 25.4553 135.38 26.6683C134.545 27.8714 134.127 29.4972 134.127 31.5455ZM156.853 43.3878C155.869 43.3878 155.024 43.0398 154.318 42.3438C153.612 41.6477 153.264 40.8026 153.274 39.8082C153.264 38.8338 153.612 37.9986 154.318 37.3026C155.024 36.6065 155.869 36.2585 156.853 36.2585C157.808 36.2585 158.638 36.6065 159.344 37.3026C160.06 37.9986 160.423 38.8338 160.433 39.8082C160.423 40.8026 160.06 41.6477 159.344 42.3438C158.638 43.0398 157.808 43.3878 156.853 43.3878ZM164.303 51.5909V20.0909H170.567V23.9389H170.851C171.139 23.3125 171.547 22.6811 172.074 22.0447C172.601 21.4084 173.297 20.8764 174.162 20.4489C175.027 20.0114 176.096 19.7926 177.369 19.7926C179.049 19.7926 180.59 20.2301 181.992 21.1051C183.394 21.9702 184.518 23.2777 185.363 25.0277C186.218 26.7678 186.646 28.9503 186.646 31.5753C186.646 34.1307 186.233 36.2884 185.408 38.0483C184.582 39.7983 183.469 41.1257 182.067 42.0305C180.665 42.9254 179.094 43.3729 177.354 43.3729C176.121 43.3729 175.072 43.169 174.207 42.7614C173.352 42.3537 172.651 41.8416 172.104 41.2251C171.567 40.5987 171.149 39.9673 170.851 39.331H170.657V51.5909H164.303ZM170.523 31.5455C170.523 33.5838 170.94 35.2244 171.776 36.4673C172.621 37.7003 173.809 38.3168 175.34 38.3168C176.901 38.3168 178.094 37.6903 178.92 36.4375C179.745 35.1747 180.158 33.544 180.158 31.5455C180.158 29.5568 179.745 27.946 178.92 26.7131C178.104 25.4702 176.911 24.8487 175.34 24.8487C173.799 24.8487 172.611 25.4553 171.776 26.6683C170.94 27.8714 170.523 29.4972 170.523 31.5455ZM208.596 26.6236L202.78 26.9815C202.62 26.2457 202.218 25.6143 201.571 25.0874C200.925 24.5604 200.05 24.2969 198.946 24.2969C197.962 24.2969 197.127 24.5057 196.441 24.9233C195.765 25.331 195.432 25.8778 195.441 26.5639C195.432 27.1108 195.645 27.5732 196.083 27.951C196.53 28.3288 197.286 28.6321 198.35 28.8608L202.496 29.696C206.901 30.6009 209.108 32.669 209.118 35.9006C209.118 37.402 208.676 38.7195 207.791 39.853C206.916 40.9865 205.713 41.8714 204.182 42.5078C202.65 43.1342 200.895 43.4474 198.917 43.4474C195.884 43.4474 193.468 42.8161 191.668 41.5533C189.868 40.2805 188.819 38.5504 188.521 36.3629L194.77 36.0348C194.969 36.9695 195.427 37.6754 196.142 38.1527C196.868 38.63 197.798 38.8686 198.932 38.8686C200.045 38.8686 200.94 38.6499 201.616 38.2124C202.302 37.7749 202.65 37.218 202.66 36.5419C202.63 35.4084 201.651 34.6477 199.722 34.2599L195.755 33.4695C191.32 32.5845 189.113 30.402 189.133 26.9219C189.123 24.7145 190.003 22.9744 191.772 21.7017C193.552 20.429 195.909 19.7926 198.842 19.7926C201.735 19.7926 204.012 20.4041 205.673 21.6271C207.343 22.8501 208.318 24.5156 208.596 26.6236Z" fill="#2E063E"/>
<path fill-rule="evenodd" clip-rule="evenodd" d="M2.01219 10.0802C0 14.0293 0 19.199 0 29.5385V30.4615C0 40.801 0 45.9707 2.01219 49.9198C3.78216 53.3936 6.60641 56.2178 10.0802 57.9878C14.0293 60 19.199 60 29.5385 60H30.4615C40.801 60 45.9707 60 49.9198 57.9878C53.3936 56.2178 56.2178 53.3936 57.9878 49.9198C60 45.9707 60 40.801 60 30.4615V29.5385C60 19.199 60 14.0293 57.9878 10.0802C56.2178 6.60641 53.3936 3.78216 49.9198 2.01219C45.9707 0 40.801 0 30.4615 0H29.5385C19.199 0 14.0293 0 10.0802 2.01219C6.60641 3.78216 3.78216 6.60641 2.01219 10.0802ZM29.9418 16.3846H24.8159C23.4672 16.3846 22.7858 16.458 22.4164 16.5294C22.1508 16.5807 22.0321 16.6298 21.817 16.7449C21.5093 16.9094 21.294 17.1247 21.1295 17.4324C21.0144 17.6475 20.9653 17.7662 20.914 18.0318C20.8426 18.4012 20.7692 19.0826 20.7692 20.4312V22.9615H16.3846V20.4312C16.3846 17.4995 16.6899 16.4364 17.2631 15.3646C17.8363 14.2928 18.6774 13.4517 19.7492 12.8785C20.821 12.3053 21.8841 12 24.8159 12H29.9418C33.7372 12 36.7253 12.7123 39.2263 14.0497C41.727 15.3872 43.6898 17.3499 45.0271 19.8507C46.3646 22.3516 47.0769 25.3398 47.0769 29.1351V29.9418C47.0769 33.7372 46.3646 36.7253 45.0271 39.2263C43.6898 41.727 41.727 43.6898 39.2263 45.0271C36.7253 46.3646 33.7372 47.0769 29.9418 47.0769H24.8159C21.8841 47.0769 20.821 46.7718 19.7492 46.1985C18.6774 45.6252 17.8363 44.7842 17.2631 43.7124C16.6899 42.6406 16.3846 41.5775 16.3846 38.6457V36.1154H20.7692V38.6457C20.7692 39.9942 20.8426 40.6758 20.914 41.0452C20.9653 41.3107 21.0144 41.4293 21.1295 41.6446C21.294 41.9522 21.5093 42.1675 21.817 42.3321C22.0321 42.4472 22.1508 42.4963 22.4164 42.5476C22.7858 42.6189 23.4672 42.6923 24.8159 42.6923H29.9418C33.1685 42.6923 35.416 42.0927 37.1585 41.1608C38.8952 40.2319 40.2319 38.8952 41.1608 37.1585C42.0927 35.416 42.6923 33.1685 42.6923 29.9418V29.1351C42.6923 25.9084 42.0927 23.6609 41.1608 21.9185C40.2319 20.1818 38.8952 18.845 37.1585 17.9161C35.416 16.9843 33.1685 16.3846 29.9418 16.3846ZM14.1923 27.3462C12.9815 27.3462 12 28.3277 12 29.5385C12 30.7493 12.9815 31.7308 14.1923 31.7308H27.3462C28.557 31.7308 29.5385 30.7493 29.5385 29.5385C29.5385 28.3277 28.557 27.3462 27.3462 27.3462H14.1923Z" fill="#2E063E"/>
</svg>
