<svg width="58" height="24" viewBox="0 0 58 24" fill="none" xmlns="http://www.w3.org/2000/svg">
<path d="M14.3577 19.0255C15.0332 19.0255 15.5965 18.9135 16.1032 18.745C16.6098 18.5205 16.9476 18.24 17.2291 17.9033C17.5105 17.5665 17.6794 17.1738 17.792 16.8367L15.9906 16.3317C15.878 16.6685 15.7091 16.893 15.4839 17.1171C15.2584 17.342 14.8643 17.4542 14.4143 17.4542C13.7947 17.4542 13.4006 17.286 13.0625 16.9489C12.7811 16.6122 12.5559 16.1072 12.4996 15.5459H17.848V14.7042C17.848 13.8621 17.7354 13.1326 17.3976 12.5717C17.0602 12.0101 16.6658 11.5611 16.1028 11.2806C15.5962 11.0002 14.9766 10.8316 14.301 10.8316C13.5867 10.8293 12.8856 11.0234 12.2741 11.3926C11.704 11.7361 11.2523 12.2453 10.9793 12.8522C10.6975 13.4694 10.5289 14.1992 10.5289 14.9847C10.5289 15.8264 10.6415 16.4999 10.9793 17.1175C11.2926 17.7001 11.76 18.1854 12.3304 18.5205C12.8936 18.8572 13.5692 19.0258 14.3573 19.0258L14.3577 19.0255ZM14.2447 12.5154C14.7514 12.5154 15.1455 12.6836 15.4836 13.0204C15.765 13.3572 15.9339 13.7499 15.9339 14.1989H12.4992C12.6118 13.6376 12.837 13.2449 13.1188 12.9644C13.4003 12.6836 13.7944 12.5154 14.2447 12.5154V12.5154ZM20.6064 19.25C20.4379 19.699 20.2124 20.0357 20.0435 20.148C19.8183 20.3165 19.4805 20.3165 18.9739 20.2043L18.5235 21.7755C18.6924 21.8318 18.805 21.8877 19.0302 21.944C19.255 22 19.4242 22 19.6494 22C20.1561 22 20.6064 21.8881 20.9445 21.7195C21.2823 21.551 21.5638 21.2705 21.789 20.9901C22.0142 20.7093 22.183 20.3725 22.2956 20.0917L25.6734 10.9995H23.5901L21.8453 16.2195H21.7327L19.9872 10.9998H17.9039L20.7753 18.8572L20.6068 19.25H20.6064ZM32.7116 13.5254C32.599 12.7396 32.205 12.0664 31.5291 11.7296C30.9102 11.2243 30.178 10.9998 29.2773 10.9998C28.4891 10.9998 27.8695 11.168 27.3066 11.5051C26.7433 11.8419 26.2933 12.2909 26.0118 12.9081C25.73 13.5254 25.5614 14.2552 25.5614 15.0406C25.5614 15.8264 25.7303 16.5562 26.0118 17.1734C26.3492 17.7907 26.7436 18.2956 27.3066 18.6327C27.8695 18.9692 28.4891 19.1377 29.2773 19.1377C30.178 19.1377 30.9102 18.8572 31.5294 18.4082C32.0924 17.9029 32.4868 17.2857 32.6553 16.5562L30.7972 16.2754C30.7409 16.6122 30.5158 16.893 30.2909 17.1171C30.0654 17.342 29.728 17.4542 29.3336 17.4542C28.714 17.4542 28.2639 17.2294 27.9825 16.7807C27.7007 16.3317 27.5318 15.7141 27.5318 14.9847C27.5318 14.2552 27.7007 13.6939 27.9825 13.2449C28.3202 12.7959 28.7143 12.5714 29.3336 12.5714C29.7839 12.5714 30.1217 12.6836 30.3469 12.9081C30.5721 13.1326 30.7409 13.4131 30.8539 13.8062L32.7119 13.5254H32.7116ZM37.9481 19.0255H39.9184V13.6939C39.9184 13.0764 39.7495 12.5154 39.4681 12.1224C39.1303 11.7296 38.7362 11.4492 38.2859 11.2806C37.7792 11.1121 37.2722 10.9998 36.7655 10.9998C35.9211 10.9998 35.1893 11.1684 34.5697 11.5611C33.9504 11.9538 33.556 12.5154 33.3875 13.2449L35.2456 13.5254C35.3578 13.2449 35.4704 13.0204 35.7522 12.8518C36.0337 12.6836 36.3152 12.5714 36.7093 12.5714C37.0139 12.5695 37.3107 12.6681 37.5537 12.8518C37.7792 13.0764 37.8918 13.3568 37.8918 13.6939V13.8062C37.8918 13.9181 37.7792 14.0307 37.6663 14.0866C37.4974 14.1429 37.3285 14.1989 37.1033 14.1989C36.8781 14.1989 36.653 14.2552 36.4278 14.2552C35.4141 14.3674 34.626 14.5919 34.063 14.9847C33.5001 15.3777 33.2186 15.939 33.2186 16.7244C33.2186 17.2297 33.3312 17.6784 33.556 18.0155C33.8379 18.3519 34.1193 18.6324 34.5134 18.8009C34.9075 18.9695 35.3578 19.0817 35.8085 19.0817C36.3715 19.0817 36.8218 18.9695 37.1596 18.745C37.4974 18.5205 37.7229 18.24 37.8355 18.0155H37.9481V19.0255ZM37.8355 16.2754C37.8355 16.6122 37.7229 16.893 37.3848 17.1734C37.047 17.4542 36.7093 17.5665 36.2589 17.5665C35.9211 17.5665 35.6959 17.5105 35.4704 17.342C35.3019 17.1734 35.1893 16.9489 35.1893 16.6681C35.1893 16.3317 35.3019 16.0512 35.5271 15.8827C35.7522 15.7145 36.1463 15.6019 36.5967 15.5459C36.7093 15.5459 36.8781 15.5459 37.047 15.4896C37.2159 15.4337 37.3848 15.4337 37.5537 15.3777C37.6663 15.3214 37.7792 15.2651 37.8355 15.2092V16.2754ZM45.999 11.1684C45.8864 11.0561 45.7175 10.9998 45.4923 10.9439C45.2672 10.8876 45.0979 10.8876 44.8727 10.8876C44.4725 10.8866 44.0808 11.0038 43.7468 11.2243C43.4091 11.3929 43.1839 11.7296 43.0713 12.1224H42.9587V10.9998H40.988V18.9139H43.015V14.4237C43.015 14.1433 43.1276 13.8625 43.2402 13.582C43.3528 13.3575 43.578 13.133 43.8031 12.9644C44.0283 12.7962 44.3098 12.7403 44.6476 12.7403C44.8165 12.7403 44.9853 12.7403 45.0983 12.7962C45.2109 12.8525 45.3234 12.8525 45.3797 12.9085L45.999 11.1687V11.1684ZM52.9247 18.9135V8.36238H50.954V11.9542H50.8977C50.7851 11.6737 50.5599 11.4492 50.2221 11.225C49.8844 11.0002 49.4337 10.8879 48.927 10.8879C48.3641 10.8879 47.8574 11.0565 47.3504 11.3369C46.9 11.6177 46.506 12.0667 46.2245 12.6836C45.943 13.3012 45.7741 14.031 45.7741 14.9287C45.7741 15.8267 45.8867 16.5565 46.1682 17.1738C46.4172 17.7302 46.8048 18.2133 47.2941 18.5768C47.7448 18.8576 48.2515 19.0261 48.8707 19.0261C49.4337 19.0261 49.8281 18.9135 50.1659 18.689C50.5036 18.4645 50.7288 18.24 50.8414 17.9595H50.954V18.9135H52.9247ZM47.6322 14.9287C47.6322 14.1992 47.8011 13.638 48.1389 13.1889C48.4767 12.7399 48.8707 12.5154 49.49 12.5154C50.1092 12.5154 50.5036 12.7399 50.7851 13.1893C51.0666 13.638 51.1792 14.2552 51.1792 14.9287C51.1823 15.3463 51.1254 15.7621 51.0103 16.1635C50.8977 16.5565 50.6725 16.837 50.4473 17.0612C50.1658 17.286 49.8281 17.3983 49.4337 17.3983C48.8144 17.3983 48.3641 17.1738 48.0826 16.7248C47.8011 16.2757 47.6322 15.6585 47.6322 14.929V14.9287ZM7.48829 4.65835C7.48829 6.17327 6.24945 7.46435 4.67285 7.46435C3.15287 7.46435 1.85808 6.22956 1.85808 4.65835C1.85808 3.1431 3.09658 1.85201 4.67318 1.85201C6.24945 1.85201 7.54458 3.14276 7.48829 4.65835ZM10.8663 18.9139L7.76976 14.3681L10.6975 11.0005H8.33272L5.85539 13.9188H5.74279V9.24895C7.82572 8.75881 9.39457 6.87376 9.34637 4.65835C9.34637 2.07652 7.2631 0 4.67318 0C2.08326 0 0 2.07652 0 4.65835C0 6.91252 1.5884 8.82488 3.71583 9.27322V18.9139H5.74279V16.4443L6.41868 15.6585L8.67049 18.9139H10.8663Z" fill="#09d9b9"/>
</svg>
