<svg width="43" height="16" viewBox="0 0 43 16" fill="none" xmlns="http://www.w3.org/2000/svg">
<path d="M18.7943 4.43359V7.683V11.2212L21.3587 7.683L23.7503 4.43359H25.7246L22.5617 8.98279L19.2548 13.5319H17.1135V4.43359H18.7943Z" fill="#681AB4"/>
<path d="M33.9605 4.43377V13.5321H32.1645V12.1284C31.8883 12.5097 31.4794 12.8678 30.9385 13.2028C30.3974 13.5379 29.77 13.7054 29.0562 13.7054C28.2964 13.7054 27.5999 13.5032 26.9667 13.0989C26.3451 12.6945 25.8501 12.1342 25.4817 11.4179C25.1133 10.7015 24.9291 9.88122 24.9291 8.95695C24.9291 8.03268 25.119 7.21816 25.4989 6.51339C25.8788 5.79711 26.4026 5.24253 27.0703 4.8497C27.7381 4.44532 28.4979 4.24316 29.3498 4.24316C29.9829 4.24316 30.5354 4.38181 31.0075 4.65906C31.4911 4.93635 31.8765 5.25984 32.1645 5.62957V4.43377H33.9605ZM29.4706 12.0591C30.0232 12.0591 30.5069 11.9262 30.9211 11.6605C31.3357 11.3832 31.6579 11.0135 31.8883 10.5513C32.1183 10.0777 32.2335 9.54618 32.2335 8.95695C32.2335 8.37928 32.1183 7.85939 31.8883 7.39725C31.6579 6.93512 31.3357 6.57118 30.9211 6.30544C30.5069 6.02816 30.0232 5.88951 29.4706 5.88951C28.9411 5.88951 28.4691 6.0224 28.0547 6.2881C27.6402 6.55384 27.3179 6.91777 27.0876 7.37991C26.8574 7.84204 26.7422 8.36772 26.7422 8.95695C26.7422 9.54618 26.8574 10.0777 27.0876 10.5513C27.3179 11.0135 27.6402 11.3832 28.0547 11.6605C28.4691 11.9262 28.9411 12.0591 29.4706 12.0591Z" fill="#681AB4"/>
<path d="M36.5761 8.97429C36.5761 9.57507 36.7087 10.1123 36.9732 10.586C37.2495 11.0481 37.6065 11.4179 38.0441 11.6951C38.4929 11.9608 38.9707 12.0937 39.4771 12.0937C40.0527 12.0937 40.5537 11.9435 40.9797 11.6431C41.4056 11.3428 41.7509 11.0308 42.0158 10.7073L43 11.9204C42.7813 12.2324 42.4819 12.527 42.1022 12.8043C41.7221 13.07 41.2904 13.2895 40.8069 13.4628C40.3233 13.6246 39.817 13.7054 39.2872 13.7054C38.4584 13.7054 37.7103 13.4975 37.0425 13.0815C36.3748 12.6656 35.845 12.0995 35.4539 11.3832C35.0738 10.6669 34.8839 9.86391 34.8839 8.97429C34.8839 8.07313 35.0738 7.27016 35.4539 6.56539C35.845 5.84907 36.3748 5.28298 37.0425 4.86704C37.7103 4.45111 38.4584 4.24316 39.2872 4.24316C40.1277 4.24316 40.8759 4.41646 41.5322 4.76305C42.1883 5.0981 42.6775 5.53713 43 6.08015L42.0158 7.29326C41.7509 6.90043 41.3711 6.56539 40.8759 6.2881C40.3923 5.99926 39.9205 5.85486 39.46 5.85486C38.9188 5.85486 38.4296 5.9935 37.9922 6.27079C37.5546 6.5365 37.2093 6.90622 36.9561 7.37991C36.703 7.84204 36.5761 8.37352 36.5761 8.97429Z" fill="#681AB4"/>
<path d="M5.04245 7.49636C5.4925 7.94306 6.28591 8.37082 7.52801 8.70577C7.80833 8.78134 7.97429 9.06986 7.89868 9.35019C7.82311 9.63051 7.53459 9.79647 7.25426 9.72087C5.92834 9.36332 4.93577 8.87182 4.30183 8.24259C3.64538 7.59105 3.38883 6.80305 3.54184 5.9616C3.58405 5.72941 3.65649 5.49817 3.75589 5.26873L6.23828 3.84033C6.03695 4.01186 5.85267 4.18249 5.6858 4.35155C5.02081 5.02524 4.66956 5.63656 4.57624 6.14971C4.48937 6.62738 4.61488 7.07198 5.04245 7.49636Z" fill="#C4C4C4"/>
<path d="M5.04245 7.49636C5.4925 7.94306 6.28591 8.37082 7.52801 8.70577C7.80833 8.78134 7.97429 9.06986 7.89868 9.35019C7.82311 9.63051 7.53459 9.79647 7.25426 9.72087C5.92834 9.36332 4.93577 8.87182 4.30183 8.24259C3.64538 7.59105 3.38883 6.80305 3.54184 5.9616C3.58405 5.72941 3.65649 5.49817 3.75589 5.26873L6.23828 3.84033C6.03695 4.01186 5.85267 4.18249 5.6858 4.35155C5.02081 5.02524 4.66956 5.63656 4.57624 6.14971C4.48937 6.62738 4.61488 7.07198 5.04245 7.49636Z" fill="url(#paint0_linear)"/>
<path d="M9.97636 11.1766C10.1588 10.5693 10.163 9.66791 9.87414 8.41432C9.80895 8.1314 9.98548 7.84921 10.2684 7.78405C10.5513 7.71886 10.8335 7.89535 10.8987 8.17827C11.207 9.51651 11.2403 10.6236 10.9833 11.4791C10.7172 12.3648 10.1425 12.962 9.32808 13.2228C9.17172 13.2729 9.00886 13.3099 8.84031 13.3345L6.29077 11.8815C6.50015 11.9612 6.70294 12.0303 6.89864 12.0885C7.80598 12.3583 8.51068 12.3806 9.00738 12.2216C9.46976 12.0735 9.80303 11.7536 9.97636 11.1766Z" fill="#C4C4C4"/>
<path d="M9.97636 11.1766C10.1588 10.5693 10.163 9.66791 9.87414 8.41432C9.80895 8.1314 9.98548 7.84921 10.2684 7.78405C10.5513 7.71886 10.8335 7.89535 10.8987 8.17827C11.207 9.51651 11.2403 10.6236 10.9833 11.4791C10.7172 12.3648 10.1425 12.962 9.32808 13.2228C9.17172 13.2729 9.00886 13.3099 8.84031 13.3345L6.29077 11.8815C6.50015 11.9612 6.70294 12.0303 6.89864 12.0885C7.80598 12.3583 8.51068 12.3806 9.00738 12.2216C9.46976 12.0735 9.80303 11.7536 9.97636 11.1766Z" fill="url(#paint1_linear)"/>
<path d="M10.5272 4.96704C9.95752 5.12198 9.21648 5.57149 8.31576 6.46937C8.04075 6.74349 7.59558 6.74276 7.32145 6.46775C7.04733 6.19278 7.04806 5.7476 7.32304 5.47348C8.30604 4.49361 9.25408 3.85609 10.1582 3.61019C11.1032 3.35319 11.9751 3.53484 12.6749 4.12841C12.7785 4.21629 12.8816 4.31189 12.9749 4.41459V8.2304C12.9132 7.76795 12.8146 7.34765 12.7115 6.97248C12.4652 6.07679 12.1247 5.50563 11.7653 5.20072C11.4426 4.92701 11.0561 4.82321 10.5272 4.96704Z" fill="#C4C4C4"/>
<path d="M10.5272 4.96704C9.95752 5.12198 9.21648 5.57149 8.31576 6.46937C8.04075 6.74349 7.59558 6.74276 7.32145 6.46775C7.04733 6.19278 7.04806 5.7476 7.32304 5.47348C8.30604 4.49361 9.25408 3.85609 10.1582 3.61019C11.1032 3.35319 11.9751 3.53484 12.6749 4.12841C12.7785 4.21629 12.8816 4.31189 12.9749 4.41459V8.2304C12.9132 7.76795 12.8146 7.34765 12.7115 6.97248C12.4652 6.07679 12.1247 5.50563 11.7653 5.20072C11.4426 4.92701 11.0561 4.82321 10.5272 4.96704Z" fill="url(#paint2_linear)"/>
<path fill-rule="evenodd" clip-rule="evenodd" d="M6.95032 3.4322L9.8137 1.69229C11.2211 0.882701 12.9772 1.90029 12.9746 3.52397L12.9749 8.30105L14.379 10.2093L14.3807 3.52619C14.385 0.820095 11.4583 -0.875895 9.1126 0.473419L7.95136 1.19649L6.95032 3.4322Z" fill="#8524EE"/>
<path fill-rule="evenodd" clip-rule="evenodd" d="M5.27005 11.2985L2.45784 9.66605C1.05299 8.85198 1.05623 6.82239 2.46366 6.01281L6.95042 3.4319L7.95159 1.19678L1.76253 4.79394C-0.583185 6.14325 -0.588584 9.52589 1.75281 10.8827L2.72468 11.4751L5.27005 11.2985Z" fill="#8524EE"/>
<path fill-rule="evenodd" clip-rule="evenodd" d="M12.9749 8.30078L12.9621 12.0204C12.9564 13.6528 11.1896 14.6735 9.7817 13.8577L5.26975 11.2981L2.72461 11.4744L9.04155 15.135C11.388 16.4946 14.3633 14.7406 14.3727 12.02L14.379 10.2089L12.9749 8.30078Z" fill="#8524EE"/>
<defs>
<linearGradient id="paint0_linear" x1="4.51231" y1="4.83315" x2="7.38335" y2="9.82426" gradientUnits="userSpaceOnUse">
<stop stop-color="#681AB4"/>
<stop offset="0.4375" stop-color="#8524EE"/>
<stop offset="1" stop-color="#F7B930"/>
</linearGradient>
<linearGradient id="paint1_linear" x1="7.93279" y1="12.9085" x2="10.9752" y2="8.04456" gradientUnits="userSpaceOnUse">
<stop stop-color="#681AB4"/>
<stop offset="0.402746" stop-color="#8524EE"/>
<stop offset="1" stop-color="#F7B930"/>
</linearGradient>
<linearGradient id="paint2_linear" x1="12.783" y1="5.88156" x2="7.10563" y2="7.53747" gradientUnits="userSpaceOnUse">
<stop stop-color="#681AB4"/>
<stop offset="0.25" stop-color="#8524EE"/>
<stop offset="0.791667" stop-color="#F7B930"/>
</linearGradient>
</defs>
</svg>
