<svg width="150" height="30" viewBox="0 0 150 30" fill="none" xmlns="http://www.w3.org/2000/svg">
<g clip-path="url(#clip0)">
<path fill-rule="evenodd" clip-rule="evenodd" d="M14.7224 0C6.59142 0 0 6.59849 0 14.738C0 22.8776 6.59142 29.476 14.7224 29.476C22.8534 29.476 29.4448 22.8776 29.4448 14.738C29.4448 6.59849 22.8534 0 14.7224 0Z" fill="#4360DF"/>
<path fill-rule="evenodd" clip-rule="evenodd" d="M15.2158 14.0922C15.955 14.1692 16.6943 14.2462 17.6032 14.1955C20.0657 14.0581 21.5574 12.7929 21.4516 10.9015C21.3437 8.97735 19.3592 7.79183 17.3735 7.90266C14.1376 8.08312 11.758 10.9272 11.49 14.1777C11.9295 14.0747 12.392 14.0132 12.8283 13.9888C13.7372 13.9382 14.4764 14.0151 15.2158 14.0922ZM8.87221 18.2988C8.97432 20.0627 10.8544 21.1495 12.7357 21.0478C15.8012 20.8824 18.0556 18.2754 18.3094 15.2956C17.8931 15.3901 17.455 15.4466 17.0417 15.4689C16.1806 15.5154 15.4802 15.4448 14.7798 15.3742C14.0794 15.3036 13.379 15.2329 12.5179 15.2795C10.1851 15.4054 8.77179 16.5652 8.87221 18.2988Z" fill="white"/>
<path d="M39.9634 12.505V13.9936H38.619V17.4548C38.619 17.7278 38.681 17.9123 38.805 18.0085C38.9291 18.1046 39.0904 18.1527 39.2888 18.1527C39.3819 18.1527 39.4749 18.1449 39.568 18.1294C39.661 18.1108 39.7324 18.0968 39.782 18.0875L40.0937 19.5623C39.9944 19.5933 39.8549 19.629 39.675 19.6693C39.4951 19.7127 39.2765 19.739 39.019 19.7483C38.2995 19.7794 37.7211 19.6243 37.2838 19.2831C36.8496 18.9389 36.634 18.4163 36.6371 17.7154V13.9936H35.6602V12.505H36.6371V10.793H38.619V12.505H39.9634ZM43.0258 15.5196V19.6507H41.044V10.123H42.97V13.7657H43.0537C43.2181 13.3439 43.4786 13.0136 43.8353 12.7748C44.195 12.5329 44.6463 12.412 45.1891 12.412C45.9334 12.412 46.532 12.6507 46.9848 13.1284C47.4376 13.606 47.6625 14.2635 47.6594 15.1009V19.6507H45.6775V15.4545C45.6806 15.014 45.569 14.6713 45.3426 14.4263C45.1193 14.1813 44.806 14.0588 44.4029 14.0588C43.9997 14.0588 43.6694 14.1875 43.4119 14.4449C43.1576 14.6992 43.0289 15.0575 43.0258 15.5196ZM52.1116 19.7903C51.3796 19.7903 50.7485 19.6414 50.2181 19.3436C49.6878 19.0428 49.28 18.6179 48.9946 18.0689C48.7093 17.5169 48.5666 16.864 48.5666 16.1104C48.5666 15.3753 48.7093 14.7303 48.9946 14.1751C49.28 13.6199 49.6816 13.1873 50.1995 12.8772C50.7206 12.567 51.3316 12.412 52.0325 12.412C52.6621 12.412 53.2297 12.5453 53.7352 12.812C54.2438 13.0788 54.647 13.4819 54.9447 14.0215C55.2425 14.5581 55.3914 15.2311 55.3914 16.0406V16.5849H50.5252V16.5896C50.5252 17.123 50.671 17.5433 50.9625 17.8503C51.2541 18.1573 51.6479 18.3108 52.1442 18.3108C52.476 18.3108 52.7629 18.2411 53.0048 18.1015C53.2467 17.962 53.4173 17.7557 53.5165 17.4827L55.3495 17.6037C55.2099 18.2675 54.8564 18.7978 54.2888 19.1948C53.7212 19.5917 52.9955 19.7903 52.1116 19.7903ZM50.5252 15.3567H53.5258C53.5227 14.9318 53.3863 14.5814 53.1164 14.3054C52.8466 14.0293 52.4962 13.8913 52.065 13.8913C51.6247 13.8913 51.2634 14.034 50.9811 14.3193C50.6989 14.6046 50.5469 14.9504 50.5252 15.3567ZM64.9343 14.5426L63.12 14.6543C63.0703 14.4248 62.9448 14.2278 62.7431 14.0635C62.5415 13.8991 62.2687 13.8169 61.9244 13.8169C61.6174 13.8169 61.3568 13.882 61.1428 14.0122C60.9319 14.1394 60.828 14.31 60.8311 14.524C60.828 14.6946 60.8947 14.8388 61.0312 14.9566C61.1707 15.0745 61.4064 15.1691 61.7383 15.2404L63.0316 15.501C64.4055 15.7832 65.094 16.4283 65.0972 17.4362C65.0972 17.9046 64.9592 18.3155 64.6831 18.6691C64.4102 19.0226 64.0349 19.2987 63.5573 19.4971C63.0796 19.6925 62.5322 19.7903 61.9151 19.7903C60.9692 19.7903 60.2155 19.5933 59.6541 19.1994C59.0928 18.8024 58.7656 18.2628 58.6725 17.5805L60.6218 17.4781C60.6838 17.7696 60.8265 17.9899 61.0498 18.1387C61.2762 18.2876 61.5661 18.362 61.9197 18.362C62.2671 18.362 62.5462 18.2938 62.7571 18.1573C62.9711 18.0208 63.0796 17.8472 63.0828 17.6363C63.0735 17.2827 62.768 17.0454 62.1663 16.9245L60.9288 16.6779C59.5456 16.4019 58.857 15.7211 58.8633 14.6357C58.8602 13.9471 59.1346 13.4044 59.6867 13.0074C60.2419 12.6104 60.9769 12.412 61.8918 12.412C62.7943 12.412 63.5045 12.6027 64.0225 12.9841C64.5435 13.3656 64.8475 13.8851 64.9343 14.5426ZM69.782 12.505V13.9936H68.4373V17.4548C68.4373 17.7278 68.4995 17.9123 68.6233 18.0085C68.7477 18.1046 68.9089 18.1527 69.1073 18.1527C69.2004 18.1527 69.2934 18.1449 69.3864 18.1294C69.4794 18.1108 69.5508 18.0968 69.6006 18.0875L69.9124 19.5623C69.8128 19.5933 69.6733 19.629 69.4938 19.6693C69.3137 19.7127 69.0949 19.739 68.8375 19.7483C68.1183 19.7794 67.5399 19.6243 67.1023 19.2831C66.668 18.9389 66.4525 18.4163 66.4558 17.7154V13.9936H65.4787V12.505H66.4558V10.793H68.4373V12.505H69.782ZM72.7466 19.7856C72.0641 19.7856 71.4982 19.6072 71.0488 19.2506C70.5988 18.8939 70.3742 18.362 70.3742 17.6549C70.3742 17.1214 70.4999 16.7027 70.7508 16.3988C71.0023 16.0949 71.3311 15.8732 71.7373 15.7336C72.1466 15.5909 72.5868 15.4978 73.0584 15.4545C73.6787 15.3924 74.1222 15.3273 74.3888 15.2591C74.6554 15.1908 74.789 15.0419 74.789 14.8124V14.7845C74.789 14.4899 74.696 14.2619 74.51 14.1007C74.3266 13.9394 74.0665 13.8588 73.7285 13.8588C73.3715 13.8588 73.0879 13.9363 72.877 14.0914C72.6661 14.2464 72.5266 14.4434 72.4584 14.6822L70.625 14.5333C70.7619 13.882 71.0999 13.3656 71.6397 12.9841C72.182 12.6027 72.8816 12.412 73.7377 12.412C74.2683 12.412 74.7641 12.4957 75.2266 12.6632C75.6883 12.8306 76.0604 13.0927 76.3427 13.4494C76.6283 13.8029 76.7711 14.2635 76.7711 14.831V19.6507H74.8912V18.6597H74.8355C74.6619 18.9916 74.4012 19.263 74.0541 19.4739C73.7095 19.6816 73.2739 19.7856 72.7466 19.7856ZM73.3145 18.4179C73.7482 18.4179 74.1052 18.2922 74.3842 18.041C74.6632 17.7867 74.8028 17.4719 74.8028 17.0967V16.3384C74.7255 16.3911 74.6043 16.4376 74.4399 16.4779C74.2787 16.5182 74.1052 16.5539 73.9191 16.5849C73.7357 16.6128 73.572 16.6376 73.4259 16.6593C73.0787 16.709 72.7977 16.8066 72.5835 16.9524C72.3733 17.0982 72.2678 17.3107 72.2678 17.5898C72.2678 17.8627 72.3654 18.0689 72.5606 18.2085C72.7591 18.3481 73.0106 18.4179 73.3145 18.4179ZM81.7453 12.505V13.9936H80.4006V17.4548C80.4006 17.7278 80.4628 17.9123 80.5866 18.0085C80.7111 18.1046 80.8722 18.1527 81.0707 18.1527C81.1637 18.1527 81.2567 18.1449 81.3497 18.1294C81.4427 18.1108 81.5141 18.0968 81.5639 18.0875L81.8757 19.5623C81.7761 19.5933 81.6366 19.629 81.4565 19.6693C81.277 19.7127 81.0582 19.739 80.8008 19.7483C80.0816 19.7794 79.5032 19.6243 79.0656 19.2831C78.6314 18.9389 78.4159 18.4163 78.4191 17.7154V13.9936H77.4418V12.505H78.4191V10.793H80.4006V12.505H81.7453ZM87.2547 16.6082V12.505H89.2362V19.6507H87.334V18.3527H87.2593C87.0982 18.7714 86.8296 19.1079 86.4543 19.3623C86.0822 19.6165 85.6276 19.7437 85.0912 19.7437C84.372 19.7437 83.789 19.5049 83.3423 19.0273C82.8988 18.5466 82.6755 17.8891 82.6722 17.0547V12.505H84.6543V16.7012C84.6569 17.123 84.7702 17.4564 84.9936 17.7014C85.2169 17.9464 85.5163 18.0689 85.8916 18.0689C86.248 18.0689 86.5643 17.9449 86.8407 17.6967C87.1198 17.4487 87.258 17.0858 87.2547 16.6082ZM96.4034 14.5426L94.589 14.6543C94.5392 14.4248 94.4135 14.2278 94.2124 14.0635C94.0106 13.8991 93.7375 13.8169 93.3936 13.8169C93.0864 13.8169 92.8257 13.882 92.6115 14.0122C92.4006 14.1394 92.2971 14.31 92.3004 14.524C92.2971 14.6946 92.3639 14.8388 92.5001 14.9566C92.6397 15.0745 92.8755 15.1691 93.2069 15.2404L94.5006 15.501C95.8742 15.7832 96.5632 16.4283 96.5659 17.4362C96.5659 17.9046 96.4283 18.3155 96.1519 18.6691C95.8794 19.0226 95.5041 19.2987 95.0259 19.4971C94.5484 19.6925 94.0014 19.7903 93.3838 19.7903C92.4379 19.7903 91.6846 19.5933 91.1233 19.1994C90.5619 18.8024 90.2344 18.2628 90.1414 17.5805L92.0907 17.4781C92.153 17.7696 92.2951 17.9899 92.5185 18.1387C92.7451 18.2876 93.0353 18.362 93.3883 18.362C93.7362 18.362 94.0152 18.2938 94.2261 18.1573C94.4403 18.0208 94.5484 17.8472 94.5517 17.6363C94.5425 17.2827 94.2366 17.0454 93.6353 16.9245L92.398 16.6779C91.0145 16.4019 90.3261 15.7211 90.332 14.6357C90.3294 13.9471 90.6038 13.4044 91.1554 13.0074C91.7108 12.6104 92.4458 12.412 93.3608 12.412C94.2635 12.412 94.9735 12.6027 95.4916 12.9841C96.0124 13.3656 96.3163 13.8851 96.4034 14.5426ZM102.1 15.5196V19.6507H100.118V12.505H102.007V13.7657H102.091C102.252 13.3501 102.517 13.0214 102.886 12.7794C103.258 12.5344 103.71 12.412 104.24 12.412C104.984 12.412 105.582 12.6523 106.031 13.133C106.481 13.6106 106.706 14.2666 106.706 15.1009V19.6507H104.724V15.4545C104.727 15.0171 104.615 14.676 104.389 14.4309C104.163 14.1829 103.851 14.0588 103.454 14.0588C103.054 14.0588 102.728 14.1875 102.477 14.4449C102.229 14.6992 102.103 15.0575 102.1 15.5196ZM111.16 19.7903C110.428 19.7903 109.797 19.6414 109.267 19.3436C108.736 19.0428 108.329 18.6179 108.043 18.0689C107.758 17.5169 107.615 16.864 107.615 16.1104C107.615 15.3753 107.758 14.7303 108.043 14.1751C108.329 13.6199 108.73 13.1873 109.248 12.8772C109.769 12.567 110.38 12.412 111.081 12.412C111.711 12.412 112.279 12.5453 112.784 12.812C113.292 13.0788 113.695 13.4819 113.993 14.0215C114.291 14.5581 114.44 15.2311 114.44 16.0406V16.5849H109.574V16.5896C109.574 17.123 109.719 17.5433 110.011 17.8503C110.303 18.1573 110.697 18.3108 111.192 18.3108C111.525 18.3108 111.811 18.2411 112.053 18.1015C112.296 17.962 112.466 17.7557 112.565 17.4827L114.398 17.6037C114.259 18.2675 113.905 18.7978 113.338 19.1948C112.77 19.5917 112.044 19.7903 111.16 19.7903ZM109.574 15.3567H112.575C112.571 14.9318 112.435 14.5814 112.165 14.3054C111.895 14.0293 111.545 13.8913 111.114 13.8913C110.673 13.8913 110.312 14.034 110.03 14.3193C109.748 14.6046 109.596 14.9504 109.574 15.3567ZM119.17 12.505V13.9936H117.826V17.4548C117.826 17.7278 117.887 17.9123 118.012 18.0085C118.136 18.1046 118.297 18.1527 118.495 18.1527C118.588 18.1527 118.682 18.1449 118.775 18.1294C118.868 18.1108 118.939 18.0968 118.989 18.0875L119.3 19.5623C119.201 19.5933 119.062 19.629 118.882 19.6693C118.702 19.7127 118.483 19.739 118.225 19.7483C117.506 19.7794 116.928 19.6243 116.49 19.2831C116.056 18.9389 115.841 18.4163 115.844 17.7154V13.9936H114.867V12.505H115.844V10.793H117.826V12.505H119.17ZM121.507 19.6507L119.562 12.505H121.567L122.674 17.306H122.74L123.893 12.505H125.861L127.034 17.278H127.094L128.182 12.505H130.183L128.243 19.6507H126.145L124.917 15.1567H124.829L123.601 19.6507H121.507ZM133.926 19.7903C133.203 19.7903 132.578 19.6367 132.051 19.3296C131.527 19.0196 131.122 18.5884 130.837 18.0364C130.552 17.4812 130.409 16.8377 130.409 16.1058C130.409 15.3676 130.552 14.7225 130.837 14.1704C131.122 13.6153 131.527 13.1842 132.051 12.8772C132.578 12.567 133.203 12.412 133.926 12.412C134.649 12.412 135.272 12.567 135.796 12.8772C136.323 13.1842 136.73 13.6153 137.015 14.1704C137.3 14.7225 137.443 15.3676 137.443 16.1058C137.443 16.8377 137.3 17.4812 137.015 18.0364C136.73 18.5884 136.323 19.0196 135.796 19.3296C135.272 19.6367 134.649 19.7903 133.926 19.7903ZM133.935 18.255C134.425 18.255 134.796 18.0503 135.047 17.6409C135.301 17.2315 135.428 16.7152 135.428 16.0918C135.428 15.4684 135.301 14.952 135.047 14.5426C134.796 14.1301 134.425 13.9239 133.935 13.9239C133.436 13.9239 133.059 14.1301 132.805 14.5426C132.55 14.952 132.423 15.4684 132.423 16.0918C132.423 16.7152 132.55 17.2315 132.805 17.6409C133.059 18.0503 133.436 18.255 133.935 18.255ZM138.367 19.6507V12.505H140.289V13.7517H140.363C140.494 13.3082 140.712 12.9733 141.02 12.7469C141.326 12.5173 141.68 12.4027 142.08 12.4027C142.3 12.4027 142.508 12.4259 142.704 12.4724V14.231C142.611 14.1999 142.482 14.1751 142.317 14.1565C142.153 14.1348 142.003 14.1239 141.866 14.1239C141.429 14.1239 141.066 14.2619 140.777 14.538C140.492 14.8109 140.349 15.1676 140.349 15.6079V19.6507H138.367ZM143.364 19.6507V10.123H145.346V15.2172H145.453L147.742 12.505H150.017L147.365 15.5986L150.152 19.6507H147.83L145.881 16.771L145.346 17.3804V19.6507H143.364Z" fill="black"/>
</g>
<defs>
<clipPath id="clip0">
<rect width="150" height="29.476" fill="white"/>
</clipPath>
</defs>
</svg>
