<svg width="101" height="100" viewBox="0 0 101 100" fill="none" xmlns="http://www.w3.org/2000/svg"> <path fill-rule="evenodd" clip-rule="evenodd" d="M58.4456 49.5382C52.4517 49.8834 48.6953 48.4875 42.7005 48.8337C41.2137 48.9171 39.7372 49.1326 38.2882 49.4774C39.1732 38.3937 47.0191 28.6978 57.6881 28.0815C64.2354 27.7038 70.7794 31.7454 71.1344 38.3064C71.4837 44.7549 66.5658 49.0691 58.4464 49.5374L58.4456 49.5382ZM42.3496 72.2096C36.0774 72.5637 29.8091 68.7803 29.4688 62.6407C29.1341 56.6054 33.8463 52.5679 41.6245 52.1296C47.3659 51.8061 50.965 53.1131 56.7065 52.7887C58.1302 52.7106 59.5443 52.5091 60.9331 52.1861C60.0871 62.559 52.571 71.6338 42.3496 72.2096ZM50.01 0.000790667C22.3899 0 0 22.3851 0 49.9999C0 77.6148 22.3899 100 50.01 100C77.6301 100 100.02 77.614 100.02 49.9999C100.02 22.3859 77.6301 0 50.01 0" fill="#4360DF"/> </svg>