<svg xmlns="http://www.w3.org/2000/svg" width="426" height="460" viewBox="0 0 426 460"><defs><clipPath id="xys5a"><path d="M0 0h426v460H0z"/></clipPath></defs><g><g><g><path fill="#d37ef4" d="M0 0h426v460H0z"/></g><g clip-path="url(#xys5a)"><g><text dominant-baseline="text-before-edge" style="line-height:42px" fill="#2e063e" font-family="Inter-Bold" font-size="42" letter-spacing="-1.35" transform="translate(117 374)"><tspan style="line-height:42px">dap.ps</tspan></text></g></g><g clip-path="url(#xys5a)"><path fill="#2e063e" d="M67.346 394.346a2.192 2.192 0 1 1 0 4.385H54.192a2.192 2.192 0 1 1 0-4.385zm2.596-10.961h-5.126c-1.349 0-2.03.073-2.4.144-.265.052-.384.1-.599.216-.308.164-.523.38-.688.687a1.767 1.767 0 0 0-.215.6c-.071.37-.145 1.05-.145 2.4v2.53h-4.384v-2.53c0-2.932.305-3.996.878-5.067a5.976 5.976 0 0 1 2.486-2.487c1.072-.573 2.135-.878 5.067-.878h5.126c3.795 0 6.783.712 9.284 2.05 2.501 1.337 4.464 3.3 5.801 5.8 1.338 2.502 2.05 5.49 2.05 9.285v.807c0 3.795-.712 6.783-2.05 9.284a13.943 13.943 0 0 1-5.8 5.801c-2.502 1.338-5.49 2.05-9.285 2.05h-5.126c-2.932 0-3.995-.305-5.067-.879a5.976 5.976 0 0 1-2.486-2.486c-.573-1.071-.878-2.134-.878-5.066v-2.53h4.384v2.53c0 1.348.074 2.03.145 2.4.051.265.1.383.215.599.165.307.38.522.688.687.215.115.334.164.6.216.369.07 1.05.144 2.399.144h5.126c3.226 0 5.474-.6 7.216-1.531a9.561 9.561 0 0 0 4.003-4.003c.932-1.742 1.531-3.99 1.531-7.216v-.807c0-3.227-.6-5.474-1.531-7.216a9.561 9.561 0 0 0-4.003-4.003c-1.742-.932-3.99-1.531-7.216-1.531zM40 408.538C40 418.734 48.266 427 58.462 427h23.076C91.734 427 100 418.734 100 408.538v-23.076C100 375.266 91.734 367 81.538 367H58.462C48.266 367 40 375.266 40 385.462z"/></g><g clip-path="url(#xys5a)" opacity=".4"><path fill="#fff" d="M263.833 220.622c.347.433.388 1.053.039 1.484l-7.3 8.984c-2.57 3.162-7.308 3.405-10.187.525-2.88-2.88-2.637-7.618.525-10.187l12.553-10.199a1.074 1.074 0 0 1 1.44.076l.935.934c.375.373.496.927.384 1.443a8.289 8.289 0 0 0 1.61 6.94zm20.802-11.906c-.565.12-1.09-.278-1.258-.83a8.253 8.253 0 0 0-2.063-3.433 8.269 8.269 0 0 0-7.825-2.188c-.397.097-.821.002-1.11-.284l-2.181-2.184c-.58-.578-1-1.306-1.099-2.115-.065-.526-.099-1.062-.099-1.605 0-7.138 5.785-12.923 12.923-12.923.952 0 1.88.103 2.774.3.771.167.987 1.108.429 1.666l-5.788 5.788a5.483 5.483 0 0 0 7.754 7.754l5.788-5.788c.558-.558 1.499-.342 1.667.429.196.894.3 1.822.3 2.774 0 6.207-4.377 11.392-10.212 12.639zm-17.15 3.952l5.183-5.182a3.968 3.968 0 0 1 6.686 3.597l-.033.16a2.136 2.136 0 0 0 2.514 2.513c1.4-.28 2.85.16 3.86 1.17l5.92 5.92a7.614 7.614 0 0 1 0 10.77 7.614 7.614 0 0 1-10.769 0l-5.92-5.922a4.275 4.275 0 0 1-1.17-3.86 2.136 2.136 0 0 0-2.514-2.513l-.16.033a3.968 3.968 0 0 1-3.597-6.686zm-2.03-4.43a1.076 1.076 0 0 1-1.525 0l-19.514-19.514c-1.262-1.262-2.34-4.493-1.262-5.57 1.077-1.077 4.308 0 5.57 1.262l19.514 19.514a1.076 1.076 0 0 1 0 1.525zM269 265c30.928 0 56-25.072 56-56s-25.072-56-56-56-56 25.072-56 56 25.072 56 56 56z"/></g><g clip-path="url(#xys5a)" opacity=".5"><path fill="#fff" d="M384.772 116.154h8.456c7.116 0 9.996.799 12.802 2.302a15.643 15.643 0 0 1 6.514 6.514c1.503 2.806 2.302 5.686 2.302 12.802v8.456c0 7.116-.799 9.996-2.302 12.802a15.643 15.643 0 0 1-6.514 6.514c-2.806 1.503-5.686 2.302-12.802 2.302h-8.456c-7.116 0-9.996-.799-12.802-2.302a15.643 15.643 0 0 1-6.514-6.514c-1.503-2.806-2.302-5.686-2.302-12.802v-8.456c0-7.116.799-9.996 2.302-12.802a15.643 15.643 0 0 1 6.514-6.514c2.806-1.503 5.686-2.302 12.802-2.302zm15.992 22.428c.076.575.082 1.314.082 3.418s-.006 2.843-.082 3.418a9.69 9.69 0 0 1-8.346 8.344c-.575.078-1.314.084-3.418.084h-4.308c-1.046 0-1.671-.002-2.136-.034a2.603 2.603 0 0 1-.442-.054 1.064 1.064 0 0 1-.564-.564 2.6 2.6 0 0 1-.054-.442c-.032-.465-.034-1.09-.034-2.137 0-1.014 0-1.522-.315-1.839-.317-.314-.825-.314-1.84-.314h-2.153c-1.015 0-1.523 0-1.84.314-.314.317-.314.825-.314 1.84v.094c0 .922 0 1.77.05 2.481.051.767.17 1.607.523 2.462a7.55 7.55 0 0 0 4.081 4.082c.856.353 1.696.471 2.462.523.711.05 1.56.05 2.482.05h4.652c1.76 0 2.96 0 4.012-.138a16.156 16.156 0 0 0 13.908-13.908c.138-1.053.138-2.252.138-4.012v-.5c0-1.76 0-2.96-.138-4.012a16.156 16.156 0 0 0-13.908-13.908c-1.053-.138-2.252-.138-4.012-.138h-4.652c-.922 0-1.77 0-2.482.05-.766.052-1.606.17-2.462.523a7.55 7.55 0 0 0-4.081 4.082c-.353.855-.472 1.695-.523 2.462-.05.71-.05 1.559-.05 2.48v.096c0 1.014 0 1.522.314 1.839.317.314.825.314 1.84.314h2.154c1.014 0 1.522 0 1.84-.314.314-.317.314-.825.314-1.84 0-1.046.002-1.67.034-2.136.02-.289.045-.411.054-.442.108-.254.31-.456.564-.564.03-.008.153-.034.442-.054.465-.032 1.09-.034 2.136-.034H389c2.104 0 2.843.006 3.418.082a9.694 9.694 0 0 1 8.346 8.346zm-29.908 1.516c-.164.396-.164.898-.164 1.902s0 1.506.164 1.902c.22.528.638.945 1.165 1.165.397.164.898.164 1.902.164h10.77c1.003 0 1.505 0 1.901-.164a2.16 2.16 0 0 0 1.165-1.165c.164-.396.164-.898.164-1.902s0-1.506-.164-1.902a2.16 2.16 0 0 0-1.165-1.165c-.396-.164-.898-.164-1.902-.164h-10.769c-1.004 0-1.505 0-1.902.164a2.16 2.16 0 0 0-1.165 1.165zM389 198c30.928 0 56-25.072 56-56s-25.072-56-56-56-56 25.072-56 56 25.072 56 56 56z"/></g><g clip-path="url(#xys5a)" opacity=".5"><path fill="#fff" d="M171.728 134.371c2.057-.598 4.205-.983 5.401-1.052-.457.59-.956 3.086-1.492 4.021-1.433-1.038-2.89-2.031-3.909-2.969zm2.867-4.323c.164.144.324.29.482.44m-49.539 4.974v3.23c0 .595-.482 1.077-1.076 1.077h-3.231a3.232 3.232 0 0 0 0 6.462h3.23c.595 0 1.077.482 1.077 1.077v3.23a3.232 3.232 0 0 0 6.462 0v-3.23c0-.595.482-1.077 1.077-1.077h3.23a3.232 3.232 0 0 0 0-6.462h-3.23a1.077 1.077 0 0 1-1.077-1.077v-3.23a3.232 3.232 0 0 0-6.462 0zM160 144.077a4.307 4.307 0 0 0-4.308 4.308 4.307 4.307 0 0 0 4.308 4.307 4.307 4.307 0 0 0 4.308-4.307 4.307 4.307 0 0 0-4.308-4.308zm17.13-10.758c.119-.154.235-.178.349-.011m-6.71 8.615a4.307 4.307 0 0 0 4.308-4.308c.19.181.378.044.56-.275 2.448 1.773 4.825 3.677 4.825 5.66 0 9.516-7.716 17.23-17.231 17.23h-.737c-3.638 0-7.099-1.57-9.494-4.307l-1.641-1.876a7.118 7.118 0 0 0-10.718 0L139 155.923a12.615 12.615 0 0 1-9.494 4.308h-.737c-9.515 0-17.23-7.715-17.23-17.231 0-9.516 7.715-17.23 17.23-17.23h34.462c4.354 0 8.33 1.614 11.364 4.278-.717.714-2.16 3.26-3.826 3.26.236.345.565.7.96 1.063-2.714.79-5.267 1.95-5.267 3.244a4.307 4.307 0 0 0 4.307 4.308zM146 199c30.928 0 56-25.072 56-56s-25.072-56-56-56-56 25.072-56 56 25.072 56 56 56z"/></g><g clip-path="url(#xys5a)" opacity=".3"><path fill="#fff" d="M126.615 300.846a6.457 6.457 0 0 1-6.461-6.457V275c0-14.274 11.572-25.846 25.846-25.846 14.274 0 25.846 11.572 25.846 25.846 0 14.274-11.572 25.846-25.846 25.846zM146 270.692a4.307 4.307 0 0 0-4.308 4.308 4.307 4.307 0 0 0 4.308 4.308 4.307 4.307 0 0 0 4.308-4.308 4.307 4.307 0 0 0-4.308-4.308zm12.923 8.616a4.307 4.307 0 0 0 4.308-4.308 4.307 4.307 0 0 0-4.308-4.308 4.307 4.307 0 0 0-4.308 4.308 4.307 4.307 0 0 0 4.308 4.308zm-25.846-8.616a4.307 4.307 0 0 0-4.308 4.308 4.307 4.307 0 0 0 4.308 4.308 4.307 4.307 0 0 0 4.308-4.308 4.307 4.307 0 0 0-4.308-4.308zM146 331c30.928 0 56-25.072 56-56s-25.072-56-56-56-56 25.072-56 56 25.072 56 56 56z"/></g><g clip-path="url(#xys5a)" opacity=".7"><path fill="#fff" d="M386.383-14.373a6.684 6.684 0 0 1 7.741 5.421l6.961 39.482a6.682 6.682 0 0 1-5.419 7.741l-26.322 4.642a6.684 6.684 0 0 1-7.74-5.421L354.641-1.99a6.681 6.681 0 0 1 5.419-7.741zM402.4 3.287c-.96.051-1.72-.716-1.887-1.663l-2-11.351-.018-.097c-.226-1.213.325-2.524 1.56-2.598.956-.056 2.018.03 3.176.235 4.847.853 7.373 3.089 6.518 7.933-.74 4.196-3.48 7.33-7.349 7.54zm-.896 3.956c-.14-.788.573-1.458 1.331-1.202 3.903 1.325 6.666 3.933 6.87 7.808.066 1.23-1.13 2.046-2.34 1.833l-2.977-.526a2.226 2.226 0 0 1-1.807-1.807zm-9.886-30.524l26.322 4.641a6.679 6.679 0 0 1 5.42 7.74l-6.962 39.483a6.681 6.681 0 0 1-7.741 5.42l-.993-.175c-1.197-.211-1.98-1.35-2.029-2.565a11.278 11.278 0 0 0-.161-1.506l-1.247-7.07a2.228 2.228 0 0 1 2.58-2.581l4.172.736a2.23 2.23 0 0 0 2.58-1.807l5.415-30.71a2.229 2.229 0 0 0-1.807-2.58l-26.322-4.641c-1.114-.196-2.232-.194-3.347-.097-1.63.142-2.884-1.34-1.715-2.483a6.668 6.668 0 0 1 5.835-1.805zM389 66c30.928 0 56-25.072 56-56s-25.072-56-56-56-56 25.072-56 56 25.072 56 56 56z"/></g><g clip-path="url(#xys5a)" opacity=".6"><path fill="#fff" d="M257.488 86.953a1.077 1.077 0 0 1 1.044-1.338h20.936c.7 0 1.214.66 1.044 1.338l-.336 1.34c-.239.958-1.1 1.63-2.089 1.63h-18.174c-.989 0-1.85-.672-2.09-1.63zM249.585 77c.786 0 1.458.566 1.592 1.34l2.128 12.318a4.308 4.308 0 0 0 4.245 3.573h22.9a4.308 4.308 0 0 0 4.245-3.573l2.128-12.318a1.616 1.616 0 0 1 1.592-1.34h3.007c.665 0 1.171.597 1.061 1.254l-3.198 19.192a6.461 6.461 0 0 1-6.373 5.4h-27.824a6.461 6.461 0 0 1-6.373-5.4l-3.198-19.192A1.076 1.076 0 0 1 246.578 77zm-3.989-21.241c.838-2.733 3.406-4.605 6.32-4.605h34.16c2.914 0 5.481 1.872 6.32 4.605.176.575.365 1.171.561 1.781 1.008 3.151 2.122 6.63 1.846 9.23-.323 3.04-3.304 5.922-6.018 5.922-3.44 0-5.776-2.882-6.024-5.923a.581.581 0 0 0-.573-.538.59.59 0 0 0-.577.538c-.323 3.041-3.306 5.923-6.018 5.923-3.442 0-5.777-2.882-6.027-5.923a.58.58 0 0 0-.57-.538.594.594 0 0 0-.58.538c-.32 3.041-3.304 5.923-6.018 5.923-3.44 0-5.774-2.882-6.024-5.923a.58.58 0 0 0-.57-.538.594.594 0 0 0-.58.538c-.323 3.041-3.306 5.923-6.018 5.923-3.442 0-5.776-2.882-6.024-5.923-.218-2.662.907-6.224 1.921-9.434.17-.538.336-1.064.493-1.576zM269 133c30.928 0 56-25.072 56-56s-25.072-56-56-56-56 25.072-56 56 25.072 56 56 56z"/></g><g clip-path="url(#xys5a)" opacity=".8"><path fill="#fff" d="M149.196 34.936l10.746-19.702a1.292 1.292 0 0 1 2.27 0l10.746 19.702c.47.861-.154 1.91-1.135 1.91h-21.492a1.292 1.292 0 0 1-1.135-1.91zm-29.042-8.86c0-5.946 4.821-10.768 10.77-10.768 5.947 0 10.768 4.822 10.768 10.769s-4.821 10.77-10.769 10.77-10.77-4.823-10.77-10.77zm49.538-40.922c1.19 0 2.154.965 2.154 2.154v17.23a2.154 2.154 0 0 1-2.154 2.154h-17.23a2.154 2.154 0 0 1-2.154-2.154v-17.23c0-1.19.964-2.154 2.154-2.154zM124.047 5.697L119.54-5.122a1.617 1.617 0 0 1 .469-1.871l9.892-8.092a1.615 1.615 0 0 1 2.046 0l9.893 8.092c.552.452.742 1.215.468 1.871l-4.508 10.82c-.25.602-.84.994-1.491.994h-10.77c-.652 0-1.24-.392-1.49-.995zM146 67c30.928 0 56-25.072 56-56s-25.072-56-56-56-56 25.072-56 56 25.072 56 56 56z"/></g></g></g></svg>